<?xml version="1.0" encoding="UTF-8" standalone="no"?>
<!-- Created with Inkscape (http://www.inkscape.org/) -->

<svg
   xmlns:dc="http://purl.org/dc/elements/1.1/"
   xmlns:cc="http://creativecommons.org/ns#"
   xmlns:rdf="http://www.w3.org/1999/02/22-rdf-syntax-ns#"
   xmlns:svg="http://www.w3.org/2000/svg"
   xmlns="http://www.w3.org/2000/svg"
   xmlns:xlink="http://www.w3.org/1999/xlink"
   xmlns:sodipodi="http://sodipodi.sourceforge.net/DTD/sodipodi-0.dtd"
   xmlns:inkscape="http://www.inkscape.org/namespaces/inkscape"
   height="84.689529"
   id="svg1"
   inkscape:version="0.47 r22583"
   sodipodi:docname="chess-pieces-orig.svg"
   sodipodi:version="0.32"
   width="78.36364"
   inkscape:output_extension="org.inkscape.output.svg.inkscape"
   version="1.0"
   inkscape:export-filename="C:\joanna\Gfx\drawings_vector\admin\thumbs\Igor Krizanovskij\chess_set_symbols_igor_k_01_ok.png"
   inkscape:export-xdpi="51.457458"
   inkscape:export-ydpi="51.457458">
  <metadata
     id="metadata3">
    <rdf:RDF>
      <cc:Work
         rdf:about="">
        <dc:title />
        <dc:description />
        <dc:subject>
          <rdf:Bag>
            <rdf:li />
            <rdf:li>game</rdf:li>
            <rdf:li>chess</rdf:li>
            <rdf:li>symbols</rdf:li>
            <rdf:li>board</rdf:li>
            <rdf:li>recreation</rdf:li>
            <rdf:li>fonts</rdf:li>
          </rdf:Bag>
        </dc:subject>
        <dc:publisher>
          <cc:Agent
             rdf:about="http://www.openclipart.org">
            <dc:title>Igor Krizanovskij</dc:title>
          </cc:Agent>
        </dc:publisher>
        <dc:creator>
          <cc:Agent>
            <dc:title>Igor Krizanovskij</dc:title>
          </cc:Agent>
        </dc:creator>
        <dc:rights>
          <cc:Agent>
            <dc:title>Igor Krizanovskij</dc:title>
          </cc:Agent>
        </dc:rights>
        <dc:date />
        <dc:format>image/svg+xml</dc:format>
        <dc:type
           rdf:resource="http://purl.org/dc/dcmitype/StillImage" />
        <cc:license
           rdf:resource="http://web.resource.org/cc/PublicDomain" />
        <dc:language>en</dc:language>
      </cc:Work>
      <cc:License
         rdf:about="http://web.resource.org/cc/PublicDomain">
        <cc:permits
           rdf:resource="http://web.resource.org/cc/Reproduction" />
        <cc:permits
           rdf:resource="http://web.resource.org/cc/Distribution" />
        <cc:permits
           rdf:resource="http://web.resource.org/cc/DerivativeWorks" />
      </cc:License>
    </rdf:RDF>
  </metadata>
  <defs
     id="defs3">
    <inkscape:perspective
       sodipodi:type="inkscape:persp3d"
       inkscape:vp_x="0 : 187.5 : 1"
       inkscape:vp_y="0 : 1000 : 0"
       inkscape:vp_z="1052.3622 : 187.5 : 1"
       inkscape:persp3d-origin="526.18109 : 125 : 1"
       id="perspective20" />
    <inkscape:perspective
       id="perspective20-4"
       inkscape:persp3d-origin="526.18109 : 125 : 1"
       inkscape:vp_z="1052.3622 : 187.5 : 1"
       inkscape:vp_y="0 : 1000 : 0"
       inkscape:vp_x="0 : 187.5 : 1"
       sodipodi:type="inkscape:persp3d" />
    <inkscape:perspective
       id="perspective20-2"
       inkscape:persp3d-origin="526.18109 : 125 : 1"
       inkscape:vp_z="1052.3622 : 187.5 : 1"
       inkscape:vp_y="0 : 1000 : 0"
       inkscape:vp_x="0 : 187.5 : 1"
       sodipodi:type="inkscape:persp3d" />
    <inkscape:perspective
       id="perspective20-8"
       inkscape:persp3d-origin="526.18109 : 125 : 1"
       inkscape:vp_z="1052.3622 : 187.5 : 1"
       inkscape:vp_y="0 : 1000 : 0"
       inkscape:vp_x="0 : 187.5 : 1"
       sodipodi:type="inkscape:persp3d" />
    <inkscape:perspective
       id="perspective20-44"
       inkscape:persp3d-origin="526.18109 : 125 : 1"
       inkscape:vp_z="1052.3622 : 187.5 : 1"
       inkscape:vp_y="0 : 1000 : 0"
       inkscape:vp_x="0 : 187.5 : 1"
       sodipodi:type="inkscape:persp3d" />
    <inkscape:perspective
       id="perspective20-7"
       inkscape:persp3d-origin="526.18109 : 125 : 1"
       inkscape:vp_z="1052.3622 : 187.5 : 1"
       inkscape:vp_y="0 : 1000 : 0"
       inkscape:vp_x="0 : 187.5 : 1"
       sodipodi:type="inkscape:persp3d" />
    <inkscape:perspective
       id="perspective4031"
       inkscape:persp3d-origin="148.0419 : 71.681681 : 1"
       inkscape:vp_z="296.0838 : 107.52252 : 1"
       inkscape:vp_y="0 : 1000 : 0"
       inkscape:vp_x="0 : 107.52252 : 1"
       sodipodi:type="inkscape:persp3d" />
  </defs>
  <sodipodi:namedview
     bordercolor="#666666"
     borderopacity="1.0"
     id="base"
     inkscape:current-layer="layer1"
     inkscape:cx="530.8781"
     inkscape:cy="80.776681"
     inkscape:pageopacity="0.0"
     inkscape:pageshadow="2"
     inkscape:window-height="971"
     inkscape:window-width="1280"
     inkscape:window-x="0"
     inkscape:window-y="27"
     inkscape:zoom="0.93135101"
     pagecolor="#ffffff"
     showgrid="false"
     showguides="true"
     inkscape:guide-bbox="true"
     inkscape:window-maximized="1" />
  <g
     id="layer1"
     inkscape:groupmode="layer"
     inkscape:label="Layer 1"
     transform="translate(-69.0686, -71.6311)">
    <path
       d="m 134.52226,157.41682 -52.543663,0 c -0.08607,-5.50826 -0.903698,-18.41405 -2.452898,-22.71738 -0.946732,-2.32379 -2.75413,-5.29309 -5.422196,-8.90789 -3.356596,-4.56154 -5.034896,-8.60666 -5.034896,-12.1354 0,-5.50826 2.366833,-9.76855 7.100495,-12.78088 2.668064,-1.72133 5.637361,-2.58199 8.907893,-2.58199 4.475462,0 8.735761,1.63527 12.780892,4.90578 0,-3.95905 0.387301,-6.67015 1.161901,-8.13327 0.602463,-1.63528 2.581992,-3.61482 5.938592,-5.93861 l 0,-2.9693 -5.293092,-3.2275 0,-4.6476 4.776692,0 1.5492,-4.77668 4.38939,0 1.6783,4.77668 4.64759,0 0,4.6476 -5.16399,3.2275 0,2.9693 c 3.27053,2.40986 5.29309,4.47546 6.06769,6.1968 l 0.9037,3.74388 c 0.0861,1.0328 0.17214,2.40988 0.2582,4.1312 4.04513,-3.27051 8.21937,-4.90578 12.52271,-4.90578 5.76645,0 10.24192,2.19469 13.42638,6.58408 1.80741,2.582 2.7111,5.50826 2.7111,8.77879 0,3.52874 -1.6783,7.61689 -5.0349,12.26448 l -2.9693,4.13122 c -4.86705,3.93926 -3.84507,26.6248 -4.90579,27.36497 z"
       id="king"
       style="font-size:12px;font-style:normal;font-weight:normal;fill-opacity:1;stroke:#000000;stroke-width:3.75;stroke-linecap:butt;stroke-linejoin:round;stroke-miterlimit:4;stroke-opacity:1;stroke-dasharray:none;font-family:Bitstream Vera Sans"
       sodipodi:nodetypes="ccccscscccccccccccccccccscsccc" />
    <path
       d="m 170.47146,157.41682 c -0.0685,-0.82316 -0.10288,-2.43519 -0.10288,-4.83608 0,-8.64319 2.67528,-15.05699 8.02581,-19.24138 1.57773,-1.30334 3.49836,-2.50378 5.76214,-3.60133 -2.67527,-0.82317 -4.49308,-2.84677 -5.45344,-6.07082 -0.27439,-1.02895 -0.41158,-2.0922 -0.41158,-3.18975 0,-4.59599 2.36659,-7.85432 7.09976,-9.77504 -1.23483,-2.0579 -1.8522,-4.01291 -1.85211,-5.86502 -9e-5,-3.08685 1.50905,-5.384842 4.52739,-6.893975 1.37184,-0.685971 2.84668,-1.028961 4.42449,-1.028961 3.42976,0 5.96783,1.337646 7.61424,4.012926 0.75447,1.16614 1.13177,2.46948 1.13185,3.91001 -8e-5,1.98931 -0.58316,3.94431 -1.74923,5.86502 2.53801,1.02895 4.35582,2.40089 5.45345,4.1158 1.09746,1.85212 1.64623,3.73852 1.64634,5.65924 -1.1e-4,3.56702 -1.23485,6.2766 -3.70424,8.12871 -0.61746,0.54878 -1.30343,0.92606 -2.05791,1.13186 6.31082,3.22404 10.39234,7.44275 12.24453,12.6561 0.96027,2.88106 1.44044,6.27659 1.44052,10.18661 -8e-5,2.40089 -0.0344,4.01292 -0.10288,4.83608 l -43.93625,0"
       id="pawn"
       style="font-size:12px;font-style:normal;font-weight:normal;fill-opacity:1;stroke:#000000;stroke-width:3.75000000000000000;stroke-linejoin:round;stroke-miterlimit:4;stroke-opacity:1;stroke-dasharray:none;font-family:Bitstream Vera Sans;" />
    <path
       d="m 400.17705,157.41682 -64.67904,0 0,-11.16609 13.03908,-12.90999 0,-25.69087 -10.06977,-9.940689 0,-14.270583 1.61479,-0.834117 11.48988,0.19472 0,9.22749 8.90579,0 0,-9.22749 14.7195,0 0,9.22749 8.9058,0 0,-9.22749 11.48988,-0.19472 1.6148,0.521844 0,14.582856 -10.06978,9.940689 0,25.69087 13.03907,12.90999 0,11.16609 z"
       id="rook"
       style="font-size:12px;font-style:normal;font-weight:normal;fill-opacity:1;stroke:#000000;stroke-width:3.75000000000000000;stroke-linejoin:round;stroke-miterlimit:4;stroke-opacity:1;stroke-dasharray:none;font-family:Bitstream Vera Sans;"
       sodipodi:nodetypes="ccccccccccccccccccccccc" />
    <path
       style="font-size:12px;font-style:normal;font-weight:normal;fill-opacity:1;stroke:#000000;stroke-width:3.75000000000000000;stroke-linejoin:round;stroke-miterlimit:4;stroke-opacity:1;stroke-dasharray:none;font-family:Bitstream Vera Sans;"
       id="knight"
       d="m 434.78808,111.45726 c 2.15165,0 4.43242,-1.24798 6.84228,-3.7439 1.291,-1.29099 1.9365,-2.40987 1.9365,-3.3566 0,-1.11888 -1.0328,-1.67831 -3.0984,-1.67831 -2.40985,0 -4.43242,1.07584 -6.06768,3.2275 -0.86069,1.03281 -1.291,2.10864 -1.291,3.22752 0,1.54919 0.55942,2.32379 1.6783,2.32379 m -1.54921,-21.301478 c 0,-1.46315 -0.81764,-6.9714 -0.6455,-6.9714 0.17214,0 0.60246,-0.043 1.291,-0.12911 3.87301,0 8.00419,1.29102 12.39359,3.87302 0.51639,0.34427 0.77461,0.51639 0.77461,0.51639 2.49592,-4.04514 4.38938,-6.0677 5.68038,-6.0677 2.75413,1.5492 4.56155,3.2275 5.4222,5.0349 0.43034,0.86068 1.07584,2.66806 1.9365,5.4222 0.68853,-0.17215 1.37706,-0.25819 2.0656,-0.25819 7.22959,0 14.11491,4.43242 20.65599,13.297278 7.83206,10.24193 11.74809,24.18469 11.74809,41.82835 0,3.95907 -0.17213,7.53082 -0.51639,10.7153 l -54.48018,0 c 0.17215,-5.76647 2.28076,-11.23169 6.3259,-16.3957 0.43034,-0.68853 1.0328,-1.46312 1.8074,-2.32379 3.18447,-4.04512 5.12096,-7.14352 5.8095,-9.2952 0.34426,-1.11885 0.60246,-2.28076 0.7746,-3.48569 -5.6804,2.23773 -9.9407,5.5513 -12.7809,9.9407 -1.291,2.15165 -2.71108,4.3894 -4.2603,6.71319 -0.43034,0.68854 -1.07584,1.03281 -1.93649,1.03281 -2.15166,0 -3.22749,-1.33403 -3.22749,-4.0021 -0.86069,1.11886 -1.85045,1.6783 -2.9693,1.6783 0,0 -0.86068,-0.21518 -2.582,-0.6455 -3.70086,-0.94675 -6.32589,-2.58201 -7.87511,-4.90581 -0.51639,-0.77459 -1.07582,-1.80739 -1.6783,-3.09838 0.60248,-3.70088 3.57178,-11.05957 8.90791,-22.0761 3.873,-7.91813 6.28287,-13.598518 7.2296,-17.041168 0.0861,-0.7746 0.12909,-1.89345 0.12909,-3.3566 z m -8.39149,38.342658 c -2.0656,0 -3.44267,0.90369 -4.1312,2.7111 -0.17213,0.43033 -0.2582,0.86066 -0.2582,1.291 0,0.34426 0.12909,0.7746 0.3873,1.29099 2.23773,0 3.6148,-0.94673 4.13119,-2.84018 0.0861,-0.2582 0.12911,-0.55945 0.12911,-0.9037 0,-0.17214 -0.0861,-0.68853 -0.2582,-1.54921"
       sodipodi:nodetypes="ccsscscccccccccscsccccccccscccscccsccsccsc" />
    <path
       sodipodi:nodetypes="ccsscsccccccccscsccccccccscccscccscccsccsc"
       d="m 848.40464,128.56404 c -2.15165,0 -4.43242,1.24798 -6.84228,3.7439 -1.291,1.29099 -1.9365,2.40987 -1.9365,3.3566 0,1.11888 1.0328,1.67831 3.0984,1.67831 2.40985,0 4.43242,-1.07584 6.06768,-3.2275 0.86069,-1.03281 1.291,-2.10864 1.291,-3.22752 0,-1.54919 -0.55942,-2.32379 -1.6783,-2.32379 m 2.19471,28.27288 c -0.17214,0 -0.60246,0.043 -1.291,0.12911 -3.87301,0 -8.00419,-1.29102 -12.39359,-3.87301 -0.51639,-0.34427 -0.77461,-0.51639 -0.77461,-0.51639 -2.49592,4.04513 -4.38938,6.06769 -5.68038,6.06769 -2.75413,-1.5492 -4.56155,-3.2275 -5.4222,-5.03489 -0.43034,-0.86068 -1.07584,-2.66806 -1.9365,-5.4222 -0.68853,0.17215 -1.37706,0.25819 -2.0656,0.25819 -7.22959,0 -14.11491,-4.43242 -20.65599,-13.29729 -7.83206,-10.24193 -11.74809,-24.18469 -11.74809,-41.828349 0,-3.95907 0.17213,-7.53082 0.51639,-10.7153 l 54.48018,0 c -0.17215,5.76647 -2.28076,11.23169 -6.3259,16.3957 -0.43034,0.68853 -1.0328,1.463119 -1.8074,2.323789 -3.18447,4.04512 -5.12096,7.14352 -5.8095,9.2952 -0.34426,1.11885 -0.60246,2.28076 -0.7746,3.48569 5.6804,-2.23773 9.9407,-5.5513 12.7809,-9.9407 1.291,-2.15165 2.71108,-4.389399 4.2603,-6.713189 0.43034,-0.68854 1.07584,-1.03281 1.93649,-1.03281 2.15166,0 3.22749,1.33403 3.22749,4.002099 0.86069,-1.118859 1.85045,-1.678299 2.9693,-1.678299 0,0 0.86068,0.21518 2.582,0.6455 3.70086,0.946749 6.32589,2.582009 7.87511,4.905809 0.51639,0.77459 1.07582,1.80739 1.6783,3.09838 -0.60248,3.70088 -3.57178,11.05957 -8.90791,22.0761 -3.873,7.91813 -6.28287,13.59853 -7.2296,17.04118 -0.0861,0.7746 -0.12909,1.89345 -0.12909,3.3566 0,1.20493 0.21517,3.52872 0.6455,6.97139 m 7.74599,-45.31406 c 2.0656,0 3.44267,-0.90369 4.1312,-2.7111 0.17213,-0.43033 0.2582,-0.86066 0.2582,-1.291 0,-0.34426 -0.12909,-0.7746 -0.3873,-1.29099 -2.23773,0 -3.6148,0.94673 -4.13119,2.84018 -0.0861,0.2582 -0.12911,0.55945 -0.12911,0.9037 0,0.17214 0.0861,0.68853 0.2582,1.54921"
       id="knightrider"
       style="font-size:12px;font-style:normal;font-weight:normal;fill-opacity:1;stroke:#000000;stroke-width:3.75000000000000000;stroke-linejoin:round;stroke-miterlimit:4;stroke-opacity:1;stroke-dasharray:none;font-family:Bitstream Vera Sans;" />
    <path
       sodipodi:nodetypes="cccsccccccccccccccccccsccsccscscccccsccccccccccccccccccssc"
       style="font-size:12px;font-style:normal;font-weight:normal;fill-opacity:1;stroke:#000000;stroke-width:3.75000000000000000;stroke-linejoin:round;stroke-miterlimit:4;stroke-opacity:1;stroke-dasharray:none;font-family:Bitstream Vera Sans;"
       id="bishop"
       d="m 569.43555,125.4306 2.43206,9.36346 c -9e-5,2.83742 -2.87804,4.49932 -8.63383,4.98573 4.21549,1.62138 8.14733,2.43208 11.79552,2.43208 0.48633,0 2.87784,-0.12161 7.17459,-0.36482 3.56694,0 6.48541,1.86459 8.75544,5.59377 0.32417,0.64854 0.72953,1.37815 1.21603,2.18885 l -4.37771,6.68816 c -1.29721,1.62139 -2.67538,2.67529 -4.1345,3.16169 -0.3244,-1.70243 -2.91859,-2.75633 -7.78261,-3.16169 l -2.91849,-0.24319 c -9.97157,-0.81069 -16.70029,-2.95901 -20.18613,-6.44497 -3.16179,3.32381 -7.98539,5.22893 -14.47079,5.71534 -1.45924,0.16215 -3.36436,0.40535 -5.71536,0.72963 -5.91803,0.4864 -9.36346,1.33763 -10.33627,2.55367 -0.16214,0.24319 -0.28375,0.52694 -0.36482,0.85121 -2.10776,-0.89175 -4.09397,-2.91848 -5.95855,-6.08015 -0.72963,-1.2971 -1.58084,-2.55367 -2.55367,-3.7697 2.18886,-4.05344 4.53985,-6.4855 7.05298,-7.2962 0.89178,-0.32428 1.86459,-0.48642 2.91848,-0.48642 0,0 2.39153,0.1216 7.1746,0.36482 3.72916,0 7.66099,-0.8107 11.79551,-2.43208 -5.75588,-0.48641 -8.63382,-2.14831 -8.63382,-4.98573 0,-0.2432 0.64855,-2.31044 1.94565,-6.20176 0.40533,-1.29711 0.60802,-2.18887 0.60802,-2.67527 -4.94521,-5.99909 -7.4178,-11.30911 -7.4178,-15.93003 0,-5.35055 2.63473,-10.21468 7.9042,-14.592391 4.7019,-3.972388 8.10679,-6.080168 10.21467,-6.323368 -1.78361,-2.18886 -2.67536,-4.4588 -2.67527,-6.80979 -9e-5,-3.81023 1.90503,-6.16122 5.71537,-7.05299 0.89165,-0.24311 1.82394,-0.3647 2.79687,-0.3648 4.05332,1e-4 6.68807,1.49978 7.90419,4.49931 l 0.60802,2.55367 0,0.36481 c -9e-5,2.26993 -0.89186,4.53985 -2.67526,6.80979 1.5402,0.40534 3.85066,1.66192 6.93139,3.7697 7.45823,5.188389 11.1874,10.903759 11.18749,17.146059 -9e-5,4.702 -2.43217,9.84986 -7.2962,15.4436 m -13.15812,-9.71172 0,-5.87845 4.54081,0 0,-7.24626 -4.54081,0 0,-5.513649 -7.00302,0 0,5.513649 -4.54083,0 0,7.24626 4.54083,0 0,5.87845 7.00302,0 z m -3.50151,-35.889489 c -1.62148,0 -2.63485,0.72961 -3.0401,2.18887 l -0.12158,0.7296 c -1.1e-4,1.54031 0.81058,2.51314 2.43206,2.91849 0.2431,0.0811 0.4863,0.12159 0.72962,0.12159 2.02661,0 3.03998,-1.01335 3.04008,-3.04008 -10e-5,-1.94566 -1.01347,-2.91847 -3.04008,-2.91847" />
    <path
       id="archbishop"
       style="font-size:12px;font-style:normal;font-weight:normal;fill-opacity:1;fill-rule:evenodd;stroke:#000000;stroke-width:3.75000000000000000;stroke-linejoin:round;stroke-miterlimit:4;stroke-opacity:1;stroke-dasharray:none;font-family:Bitstream Vera Sans;"
       d="m 616.85173,118.89644 c -1.80119,0 -3.00199,0.78791 -3.60238,2.36374 -0.1501,0.37519 -0.22515,0.75039 -0.22515,1.12559 0,0.30015 0.11257,0.67535 0.33772,1.12558 1.95129,0 3.15209,-0.82543 3.60238,-2.47628 0.0751,-0.22512 0.11258,-0.48777 0.11258,-0.78791 0,-0.15009 -0.0751,-0.60031 -0.22515,-1.35072 m 24.31062,-41.073219 c -1.12574,0 -2.76107,1.754395 -4.9375,5.28125 0,0 -0.23721,-0.13734 -0.6875,-0.4375 -3.82754,-2.25118 -7.43525,-3.40625 -10.8125,-3.40625 -0.17753,0.185334 -0.20689,4.65036 -0.5625,6.21875 0,1.275683 -0.0186,2.230896 -0.0937,2.90625 -0.82554,3.001558 -2.93526,7.971385 -6.3125,14.874999 -4.65308,9.60502 -7.25589,16.0233 -7.78125,19.25 0.52536,1.12558 1.01846,2.01215 1.46875,2.6875 1.35091,2.02606 3.64787,3.4558 6.875,4.28125 1.50099,0.37518 2.25,0.5625 2.25,0.5625 0.97564,0 1.84323,-0.49325 2.59375,-1.46875 0,2.32622 0.93627,3.5 2.8125,3.5 0.75048,0 1.31225,-0.30593 1.6875,-0.90625 1.35091,-2.02605 2.59301,-3.96778 3.71875,-5.84375 2.47664,-3.827 6.17172,-6.73648 11.125,-8.6875 -0.15011,1.05055 -0.35606,2.087 -0.65625,3.0625 -0.6004,1.87599 -2.87994,5.01384 -5.0625,8.09375 -2.18257,3.07991 -7.20242,6.9355 -5.25,6.9375 4.24349,-0.17785 5.7626,4.05007 10.25,5.0313 -4.13452,1.62138 -8.08334,2.4375 -11.8125,2.4375 l -7.15625,-0.34375 c -1.05389,0 -2.04572,0.14447 -2.9375,0.46875 -2.51313,0.8107 -4.84239,3.25906 -7.03125,7.3125 0.97283,1.21603 1.80162,2.4529 2.53125,3.75 1.86458,3.16167 3.86099,5.202 5.96875,6.09375 0.0811,-0.32427 0.21286,-0.60056 0.375,-0.84375 0.97281,-1.21604 4.39447,-2.0761 10.3125,-2.5625 2.351,-0.32428 4.25951,-0.5566 5.71875,-0.71875 6.4854,-0.48641 11.30696,-2.39494 14.46875,-5.71875 3.48584,3.48596 10.21593,5.62681 20.1875,6.4375 l 2.9375,0.25 c 4.86402,0.40536 7.45685,1.45382 7.78125,3.15625 1.45912,-0.4864 2.82779,-1.53486 4.125,-3.15625 l 4.375,-6.6875 c -0.4865,-0.8107 -0.89458,-1.53896 -1.21875,-2.1875 -2.27003,-3.72918 -5.18306,-5.59375 -8.75,-5.59375 -4.29675,0.24321 -6.70117,0.34375 -7.1875,0.34375 -3.64819,0 -5.41834,-1.35297 -9.63383,-2.97435 2.90516,0.0253 8.42486,-5.09421 11.58216,-4.9944 0,-15.38305 -2.18132,-27.00782 -9.01083,-35.937501 -5.70379,-7.729044 -11.72708,-11.593748 -18.03125,-11.593748 -0.6004,0 -1.18085,0.06866 -1.78125,0.21875 -0.75049,-2.401265 -1.34349,-3.968345 -1.71875,-4.71875 -0.75048,-1.575826 -2.31716,-3.024292 -4.71875,-4.375 l -5e-5,-5e-5 z m -15.64238,26.215509 c 1.87623,0 3.86505,-1.08808 5.96643,-3.26421 1.12575,-1.125581 1.68862,-2.101101 1.68862,-2.926531 0,-0.97553 -0.90059,-1.463281 -2.70179,-1.463281 -2.10137,0 -3.86504,0.938001 -5.29098,2.813981 -0.75052,0.900481 -1.12575,1.838471 -1.12575,2.813991 0,1.3507 0.48782,2.02605 1.46347,2.02605"
       sodipodi:nodetypes="ccsccscccccccccscccsccccscccccccccccccccccccscccsccccccsscsc" />
    <path
       id="chancellor"
       style="font-size:12px;font-style:normal;font-weight:normal;fill-opacity:1;fill-rule:evenodd;stroke:#000000;stroke-width:3.75000000000000000;stroke-linejoin:round;stroke-miterlimit:4;stroke-opacity:1;stroke-dasharray:none;font-family:Bitstream Vera Sans;"
       d="m 706.85173,118.89644 c -1.80119,0 -3.00199,0.78791 -3.60238,2.36374 -0.1501,0.37519 -0.22515,0.75039 -0.22515,1.12559 0,0.30015 0.11257,0.67535 0.33772,1.12558 1.95129,0 3.15209,-0.82543 3.60238,-2.47628 0.0751,-0.22512 0.11258,-0.48777 0.11258,-0.78791 0,-0.15009 -0.0751,-0.6003 -0.22515,-1.35072 m 24.31062,-41.073219 c -1.12574,0 -2.76107,1.754395 -4.9375,5.28125 0,0 -0.23721,-0.13734 -0.6875,-0.4375 -3.82754,-2.25118 -7.43525,-3.40625 -10.8125,-3.40625 -0.17753,0.185334 -0.20689,4.65036 -0.5625,6.21875 0,1.275683 -0.0186,2.230896 -0.0937,2.90625 -0.82554,3.001558 -2.93526,7.971385 -6.3125,14.874999 -4.65308,9.60503 -7.25589,16.0233 -7.78125,19.25001 0.52536,1.12558 1.01846,2.01215 1.46875,2.6875 1.35091,2.02606 3.64787,3.4558 6.875,4.28125 1.50099,0.37518 2.25,0.5625 2.25,0.5625 0.97564,0 1.84323,-0.49325 2.59375,-1.46875 0,2.32622 0.93627,3.5 2.8125,3.5 0.75048,0 1.31225,-0.30593 1.6875,-0.90625 1.35091,-2.02605 2.59301,-3.96778 3.71875,-5.84375 2.47664,-3.827 6.17172,-6.73648 11.125,-8.6875 -0.15011,1.05055 -0.35606,2.087 -0.65625,3.0625 -0.6004,1.87599 -2.87994,5.01384 -5.0625,8.09375 -2.18257,3.07991 -7.20242,6.93549 -5.25,6.93749 l 2.5625,0 -9.0625,8.8125 0,14.28125 1.625,0.84375 11.5,-0.21875 0,-9.21875 8.90625,0 0,9.21875 14.71875,0 0,-9.21875 8.90625,0 0,9.21875 11.46875,0.21875 1.625,-0.53125 0,-14.59375 -8.96875,-8.78125 2.8125,0 c 0,-15.38305 -3.38924,-27.53907 -10.21875,-36.468751 -5.70379,-7.729044 -11.72708,-11.593748 -18.03125,-11.593748 -0.6004,0 -1.18085,0.06866 -1.78125,0.21875 -0.75049,-2.401265 -1.34349,-3.968345 -1.71875,-4.71875 -0.75048,-1.575826 -2.31716,-3.024292 -4.71875,-4.375 l -5e-5,0 z m -7,56.906249 -0.0312,0.0312 0.0312,-0.0312 5e-5,0 z m -8.64238,-30.69074 c 1.87623,0 3.86505,-1.08808 5.96643,-3.26421 1.12575,-1.125581 1.68862,-2.101101 1.68862,-2.926541 0,-0.97552 -0.90059,-1.463271 -2.70179,-1.463271 -2.10137,0 -3.86504,0.938001 -5.29098,2.813981 -0.75052,0.900481 -1.12575,1.838471 -1.12575,2.813991 0,1.3507 0.48782,2.02605 1.46347,2.02605"
       sodipodi:nodetypes="ccsccscccccccccscccsccccscccccccccccccccccccsccccccccccsscsc" />
    <path
       id="elephant"
       style="fill-opacity:1;fill-rule:evenodd;stroke:#000000;stroke-width:3.75000000000000000;stroke-linecap:butt;stroke-linejoin:round;stroke-miterlimit:4;stroke-opacity:1;stroke-dasharray:none;"
       d="m 960.7382,124.16662 c 1.85515,-2.06265 -4.56141,-4.44313 -7.48647,-7.2662 -2.92507,-2.82306 -6.17687,3.39612 -4.23482,6.41212 1.942,3.01599 9.27269,2.54789 11.72129,0.85408 z m -9.35366,-22.25702 c 0.33645,1.53406 -0.83187,3.21969 -2.45244,3.53773 -1.62052,0.31805 -3.40063,-0.78893 -3.73585,-2.32323 -0.33645,-1.53405 0.83187,-3.219684 2.45239,-3.537734 1.62058,-0.318042 3.40068,0.788944 3.7359,2.323234 z m 7.54082,29.84281 c 3.54139,-4.36112 8.84484,-19.50987 3.15197,-34.705888 -8.03036,-21.435335 -15.04705,-21.649308 -23.47262,-23.324407 -16.51187,-3.282738 -38.80853,2.594445 -52.05899,18.599712 -4.30911,5.204979 3.15791,19.532953 6.0541,24.108223 6.62691,10.46886 13.63213,16.10353 24.14321,11.86787 6.34761,-2.55791 9.85055,-22.86872 9.85055,-22.86872 0,0 -3.62937,19.99924 -9.73328,22.72472 5.69943,7.28522 4.67607,12.3846 12.19799,7.62707 5.24878,-3.47419 10.01938,-9.90962 14.67754,-7.1577 4.65812,2.75192 -7.29652,12.73583 -5.87315,19.17769 1.42337,6.44186 5.47795,11.47062 10.6609,11.65564 5.18296,0.18502 7.80175,-0.75095 10.32497,-2.81002 2.52328,-2.05906 5.77522,-4.26546 6.25647,-5.94516 0.48125,-1.6797 -0.53782,-3.6934 -2.38957,-3.16812 -1.85179,0.52528 -4.61642,4.71465 -7.25539,5.0628 -2.63893,0.34815 -5.58072,-1.34881 -6.68342,-5.40953 -1.10269,-4.06072 6.46044,-10.89213 10.14872,-15.43418 z"
       sodipodi:nodetypes="cssccsssccssssscccsszzzzzsc" />
    <path
       id="cannon"
       style="fill-opacity:1;stroke:#000000;stroke-width:3.74999976000000013;stroke-linecap:butt;stroke-linejoin:round;stroke-miterlimit:4;stroke-opacity:1;stroke-dashoffset:0;"
       d="m 1031.9356,125.89726 c 4.8716,5.03041 4.7484,13.06193 -0.275,17.9389 -5.0234,4.87697 -13.0449,4.7526 -17.9164,-0.2778 -4.8716,-5.03041 -4.7484,-13.06193 0.2751,-17.93891 5.0234,-4.87696 13.0448,-4.75259 17.9163,0.27781 z m 7.1724,-6.96264 c 8.7129,8.99674 8.4926,23.3609 -0.492,32.08323 -8.9846,8.72234 -23.3312,8.49989 -32.0442,-0.49685 -8.71283,-8.99674 -8.49258,-23.3609 0.4921,-32.08324 8.9845,-8.72233 23.3312,-8.49988 32.0441,0.49686 z m 11.5311,-41.280949 c 0.044,-0.02844 -33.3127,18.455841 -42.6459,25.147869 -26.97262,19.33991 -25.21071,32.20464 -7.9805,43.75231 l -9.14429,9.39926 6.20706,0 7.39863,-7.62477 0.1662,-0.1109 c -6.66944,-9.00014 -5.84272,-21.76559 2.4108,-29.77818 8.8068,-8.54971 22.7792,-8.50591 31.5341,-0.0277 l 20.2007,-32.35675 -8.1468,-8.40112 z" />
    <path
       style="fill-opacity:1;stroke:#000000;stroke-width:3.84999989999999981;stroke-miterlimit:4;stroke-opacity:1;stroke-dasharray:none"
       d="m 200.875,5.96875 c -3.51826,0 -6.375,2.825481 -6.375,6.34375 0,3.518269 2.85674,6.375 6.375,6.375 3.51827,0 6.34375,-2.856731 6.34375,-6.375 0,-3.518269 -2.82548,-6.34375 -6.34375,-6.34375 z M 181.96875,9.9375 c -3.51826,0 -6.375,2.856732 -6.375,6.375 0,3.518269 2.85674,6.375 6.375,6.375 3.51827,0 6.375,-2.856731 6.375,-6.375 0,-3.518268 -2.85673,-6.375 -6.375,-6.375 z m 37.875,0 c -3.51828,0 -6.375,2.856732 -6.375,6.375 0,3.518269 2.85672,6.375 6.375,6.375 3.51826,0 6.375,-2.856731 6.375,-6.375 0,-3.518268 -2.85674,-6.375 -6.375,-6.375 z m -19.625,9.46875 c 0.002,0.01044 -0.002,0.02082 0,0.03125 1.89581,10.821435 -4.44973,18.281859 -5.8125,29 -3.17543,-7.032723 -11.0095,-16.921439 -10.375,-26 L 182.5625,22.75 c 3.04106,8.483209 -0.88858,21.08064 -1.59375,27.84375 -5.04619,-4.8351 -9.06837,-6.70017 -11.15625,-16.125 l -0.59375,0.21875 c 2.26507,-0.976486 3.84375,-3.220507 3.84375,-5.84375 0,-3.51827 -2.85673,-6.375 -6.375,-6.375 -3.51826,0 -6.375,2.85673 -6.375,6.375 0,3.51826 2.85674,6.375 6.375,6.375 0.65968,0 1.30782,-0.09512 1.90625,-0.28125 l -0.21875,0.09375 c 4.58604,7.81802 -1.30995,14.22067 0.5625,21.4375 1.87245,7.21683 8.21498,14.70553 6.6875,22.78125 -0.31529,1.72132 -0.46865,5.24025 -0.46875,6.53125 l 51.5,0 c -1e-4,-1.291 -0.15346,-4.80993 -0.46875,-6.53125 -1.52748,-8.07572 4.81505,-15.56442 6.6875,-22.78125 1.86941,-7.205101 -4.01338,-13.60546 0.53125,-21.40625 0.45475,0.103054 0.92032,0.15625 1.40625,0.15625 3.51826,0 6.375,-2.85674 6.375,-6.375 0,-3.51827 -2.85674,-6.375 -6.375,-6.375 -3.51828,0 -6.375,2.85673 -6.375,6.375 0,2.492101 1.44611,4.640739 3.53125,5.6875 -2.0922,9.364742 -6.05993,11.239253 -11.09375,16.0625 C 220.16983,43.83064 216.20894,31.233209 219.25,22.75 l -1.46875,-0.3125 c 0.63417,9.073763 -7.16508,18.967971 -10.34375,26 -1.36144,-10.720792 -7.73985,-18.176897 -5.84375,-29 0.002,-0.01043 -0.002,-0.02081 0,-0.03125 l -0.6875,0.03125 -0.6875,-0.03125 z"
       id="queen"
       sodipodi:nodetypes="csssccsssccsssccsccccccssssccsccccscsssscccccsccc"
       transform="translate(69.0686,71.6311)" />
    <path
       sodipodi:nodetypes="csssccsssccsssccsccccccssssccsccccscsssscccccsccc"
       id="path3662"
       d="m 1113.9436,158.61697 c -3.5183,0 -6.375,-2.82548 -6.375,-6.34375 0,-3.51827 2.8567,-6.375 6.375,-6.375 3.5183,0 6.3437,2.85673 6.3437,6.375 0,3.51827 -2.8254,6.34375 -6.3437,6.34375 z m -18.9063,-3.96875 c -3.5182,0 -6.375,-2.85673 -6.375,-6.375 0,-3.51827 2.8568,-6.375 6.375,-6.375 3.5183,0 6.375,2.85673 6.375,6.375 0,3.51827 -2.8567,6.375 -6.375,6.375 z m 37.875,0 c -3.5182,0 -6.375,-2.85673 -6.375,-6.375 0,-3.51827 2.8568,-6.375 6.375,-6.375 3.5183,0 6.375,2.85673 6.375,6.375 0,3.51827 -2.8567,6.375 -6.375,6.375 z m -19.625,-9.46875 c 0,-0.0104 0,-0.0208 0,-0.0312 1.8959,-10.82144 -4.4497,-18.28186 -5.8125,-29 -3.1754,7.03272 -11.0095,16.92144 -10.375,26 l -1.4687,-0.3125 c 3.0411,-8.48321 -0.8886,-21.08064 -1.5938,-27.84375 -5.0461,4.8351 -9.0683,6.70017 -11.1562,16.125 l -0.5938,-0.21875 c 2.2651,0.97649 3.8438,3.22051 3.8438,5.84375 0,3.51827 -2.8567,6.375 -6.375,6.375 -3.5183,0 -6.375,-2.85673 -6.375,-6.375 0,-3.51826 2.8567,-6.375 6.375,-6.375 0.6597,0 1.3078,0.0951 1.9062,0.28125 l -0.2187,-0.0937 c 4.586,-7.81802 -1.31,-14.22067 0.5625,-21.4375 1.8724,-7.21683 8.215,-14.705529 6.6875,-22.781249 -0.3153,-1.72132 -0.4687,-5.24025 -0.4688,-6.53125 l 51.5,0 c -10e-5,1.291 -0.1534,4.80993 -0.4687,6.53125 -1.5275,8.07572 4.815,15.564419 6.6875,22.781249 1.8694,7.2051 -4.0134,13.60546 0.5312,21.40625 0.4548,-0.10305 0.9204,-0.15625 1.4063,-0.15625 3.5183,0 6.375,2.85674 6.375,6.375 0,3.51827 -2.8567,6.375 -6.375,6.375 -3.5183,0 -6.375,-2.85673 -6.375,-6.375 0,-2.4921 1.4461,-4.64074 3.5312,-5.6875 -2.0922,-9.36474 -6.0599,-11.23925 -11.0937,-16.0625 -0.7052,6.76311 -4.6661,19.36054 -1.625,27.84375 l -1.4688,0.3125 c 0.6342,-9.07376 -7.165,-18.96797 -10.3437,-26 -1.3614,10.72079 -7.7398,18.1769 -5.8437,29 0,0.0104 0,0.0208 0,0.0312 l -0.6875,-0.0312 -0.6875,0.0312 z"
       style="fill-opacity:1;stroke:#000000;stroke-width:3.84999989999999981;stroke-miterlimit:4;stroke-opacity:1;stroke-dasharray:none" />
    <use
       x="0"
       y="0"
       xlink:href="#king"
       id="use3664"
       transform="translate(0,-137.43476)"
       width="78.36364"
       height="84.689529"
       style="fill:#ffffff" />
    <use
       x="0"
       y="0"
       xlink:href="#pawn"
       id="use3666"
       transform="translate(0,-137.43476)"
       width="78.36364"
       height="84.689529"
       style="fill:#ffffff" />
    <use
       x="0"
       y="0"
       xlink:href="#rook"
       id="use3668"
       transform="translate(0,-137.43476)"
       width="78.36364"
       height="84.689529"
       style="fill:#ffffff" />
    <use
       x="0"
       y="0"
       xlink:href="#knight"
       id="use3670"
       transform="translate(0,-137.43476)"
       width="78.36364"
       height="84.689529"
       style="fill:#ffffff" />
    <use
       x="0"
       y="0"
       xlink:href="#knightrider"
       id="use3672"
       transform="translate(0,-137.43476)"
       width="78.36364"
       height="84.689529"
       style="fill:#ffffff" />
    <use
       x="0"
       y="0"
       xlink:href="#bishop"
       id="use3674"
       transform="translate(0,-137.43476)"
       width="78.36364"
       height="84.689529"
       style="fill:#ffffff" />
    <use
       x="0"
       y="0"
       xlink:href="#archbishop"
       id="use3676"
       transform="translate(0,-137.43476)"
       width="78.36364"
       height="84.689529"
       style="fill:#ffffff" />
    <use
       x="0"
       y="0"
       xlink:href="#chancellor"
       id="use3678"
       transform="translate(0,-137.43476)"
       width="78.36364"
       height="84.689529"
       style="fill:#ffffff" />
    <use
       x="0"
       y="0"
       xlink:href="#elephant"
       id="use3680"
       transform="translate(0,-137.43476)"
       width="78.36364"
       height="84.689529"
       style="fill:#ffffff" />
    <use
       x="0"
       y="0"
       xlink:href="#cannon"
       id="use3682"
       transform="translate(0,-137.43476)"
       width="78.36364"
       height="84.689529"
       style="fill:#ffffff" />
    <use
       x="0"
       y="0"
       xlink:href="#queen"
       id="use3684"
       transform="translate(0,-137.43476)"
       width="78.36364"
       height="84.689529"
       style="fill:#ffffff" />
    <use
       x="0"
       y="0"
       xlink:href="#path3662"
       id="use3686"
       transform="translate(0,-137.43476)"
       width="78.36364"
       height="84.689529"
       style="fill:#ffffff" />
  </g>
</svg>
