<?xml version="1.0" encoding="UTF-8" standalone="no"?>
<!-- Created with Inkscape (http://www.inkscape.org/) -->

<svg
   xmlns:dc="http://purl.org/dc/elements/1.1/"
   xmlns:cc="http://creativecommons.org/ns#"
   xmlns:rdf="http://www.w3.org/1999/02/22-rdf-syntax-ns#"
   xmlns:svg="http://www.w3.org/2000/svg"
   xmlns="http://www.w3.org/2000/svg"
   xmlns:sodipodi="http://sodipodi.sourceforge.net/DTD/sodipodi-0.dtd"
   xmlns:inkscape="http://www.inkscape.org/namespaces/inkscape"
   height="84.689529"
   id="svg1"
   inkscape:version="0.47 r22583"
   sodipodi:docname="chess-pieces.svg"
   sodipodi:version="0.32"
   width="78.36364"
   inkscape:output_extension="org.inkscape.output.svg.inkscape"
   version="1.0"
   inkscape:export-filename="C:\joanna\Gfx\drawings_vector\admin\thumbs\Igor Krizanovskij\chess_set_symbols_igor_k_01_ok.png"
   inkscape:export-xdpi="51.457458"
   inkscape:export-ydpi="51.457458">
  <metadata
     id="metadata3">
    <rdf:RDF>
      <cc:Work
         rdf:about="">
        <dc:title />
        <dc:description />
        <dc:subject>
          <rdf:Bag>
            <rdf:li />
            <rdf:li>game</rdf:li>
            <rdf:li>chess</rdf:li>
            <rdf:li>symbols</rdf:li>
            <rdf:li>board</rdf:li>
            <rdf:li>recreation</rdf:li>
            <rdf:li>fonts</rdf:li>
          </rdf:Bag>
        </dc:subject>
        <dc:publisher>
          <cc:Agent
             rdf:about="http://www.openclipart.org">
            <dc:title>Igor Krizanovskij</dc:title>
          </cc:Agent>
        </dc:publisher>
        <dc:creator>
          <cc:Agent>
            <dc:title>Igor Krizanovskij</dc:title>
          </cc:Agent>
        </dc:creator>
        <dc:rights>
          <cc:Agent>
            <dc:title>Igor Krizanovskij</dc:title>
          </cc:Agent>
        </dc:rights>
        <dc:date />
        <dc:format>image/svg+xml</dc:format>
        <dc:type
           rdf:resource="http://purl.org/dc/dcmitype/StillImage" />
        <cc:license
           rdf:resource="http://web.resource.org/cc/PublicDomain" />
        <dc:language>en</dc:language>
      </cc:Work>
      <cc:License
         rdf:about="http://web.resource.org/cc/PublicDomain">
        <cc:permits
           rdf:resource="http://web.resource.org/cc/Reproduction" />
        <cc:permits
           rdf:resource="http://web.resource.org/cc/Distribution" />
        <cc:permits
           rdf:resource="http://web.resource.org/cc/DerivativeWorks" />
      </cc:License>
    </rdf:RDF>
  </metadata>
  <defs
     id="defs3">
    <inkscape:perspective
       sodipodi:type="inkscape:persp3d"
       inkscape:vp_x="0 : 187.5 : 1"
       inkscape:vp_y="0 : 1000 : 0"
       inkscape:vp_z="1052.3622 : 187.5 : 1"
       inkscape:persp3d-origin="526.18109 : 125 : 1"
       id="perspective20" />
    <inkscape:perspective
       id="perspective20-4"
       inkscape:persp3d-origin="526.18109 : 125 : 1"
       inkscape:vp_z="1052.3622 : 187.5 : 1"
       inkscape:vp_y="0 : 1000 : 0"
       inkscape:vp_x="0 : 187.5 : 1"
       sodipodi:type="inkscape:persp3d" />
    <inkscape:perspective
       id="perspective20-2"
       inkscape:persp3d-origin="526.18109 : 125 : 1"
       inkscape:vp_z="1052.3622 : 187.5 : 1"
       inkscape:vp_y="0 : 1000 : 0"
       inkscape:vp_x="0 : 187.5 : 1"
       sodipodi:type="inkscape:persp3d" />
    <inkscape:perspective
       id="perspective20-8"
       inkscape:persp3d-origin="526.18109 : 125 : 1"
       inkscape:vp_z="1052.3622 : 187.5 : 1"
       inkscape:vp_y="0 : 1000 : 0"
       inkscape:vp_x="0 : 187.5 : 1"
       sodipodi:type="inkscape:persp3d" />
    <inkscape:perspective
       id="perspective20-44"
       inkscape:persp3d-origin="526.18109 : 125 : 1"
       inkscape:vp_z="1052.3622 : 187.5 : 1"
       inkscape:vp_y="0 : 1000 : 0"
       inkscape:vp_x="0 : 187.5 : 1"
       sodipodi:type="inkscape:persp3d" />
    <inkscape:perspective
       id="perspective20-7"
       inkscape:persp3d-origin="526.18109 : 125 : 1"
       inkscape:vp_z="1052.3622 : 187.5 : 1"
       inkscape:vp_y="0 : 1000 : 0"
       inkscape:vp_x="0 : 187.5 : 1"
       sodipodi:type="inkscape:persp3d" />
    <inkscape:perspective
       id="perspective4031"
       inkscape:persp3d-origin="148.0419 : 71.681681 : 1"
       inkscape:vp_z="296.0838 : 107.52252 : 1"
       inkscape:vp_y="0 : 1000 : 0"
       inkscape:vp_x="0 : 107.52252 : 1"
       sodipodi:type="inkscape:persp3d" />
  </defs>
  <sodipodi:namedview
     bordercolor="#666666"
     borderopacity="1.0"
     id="base"
     inkscape:current-layer="svg1"
     inkscape:cx="1008.9856"
     inkscape:cy="119.89652"
     inkscape:pageopacity="0.0"
     inkscape:pageshadow="2"
     inkscape:window-height="724"
     inkscape:window-width="1024"
     inkscape:window-x="0"
     inkscape:window-y="25"
     inkscape:zoom="0.46567551"
     pagecolor="#ffffff"
     showgrid="false"
     showguides="true"
     inkscape:guide-bbox="true"
     inkscape:window-maximized="1" />
  <g
     id="layer1"
     inkscape:groupmode="layer"
     inkscape:label="Layer 1">
    <path
       style="fill-opacity:1;stroke:#000000;stroke-width:2.82339048;stroke-miterlimit:4;stroke-opacity:1;stroke-dasharray:none"
       d="m 1910.2515,70.992851 c -1.2427,0 -3.0479,1.936515 -5.4501,5.829486 0,0 -0.2618,-0.151598 -0.7589,-0.482916 -4.2249,-2.48487 -8.2071,-3.759846 -11.9349,-3.759846 -0.1959,0.204572 -0.2285,5.133104 -0.6209,6.864306 0,1.408118 -0.021,2.462486 -0.1039,3.207944 -0.9111,3.313146 -3.2399,8.798888 -6.9677,16.419153 -5.1363,10.602112 -8.0091,17.686632 -8.5891,21.248302 0.58,1.24244 1.1241,2.22103 1.6212,2.9665 1.4911,2.23638 4.0267,3.81454 7.5888,4.72567 1.6568,0.41414 2.4834,0.6209 2.4834,0.6209 1.077,0 2.0346,-0.54445 2.8631,-1.62123 0,2.5677 1.0335,3.86334 3.1043,3.86334 0.8285,0 1.4487,-0.33769 1.8627,-1.00033 1.4914,-2.23637 2.8623,-4.37966 4.105,-6.45039 2.321,-3.5867 5.647,-6.42121 9.9342,-8.52001 -0.296,4.81743 -1.4937,6.51399 -4.5188,13.45266 -1.3732,5.29246 2.9493,4.13197 -0.414,9.8653 l 0.1727,0.0689 c -0.439,-0.1365 -0.9306,-0.20696 -1.4143,-0.20696 -2.5802,0 -4.6567,2.07657 -4.6567,4.65669 0,2.58011 2.0765,4.69118 4.6567,4.69118 2.5801,0 4.691,-2.11107 4.691,-4.69118 0,-1.92375 -1.1672,-3.56116 -2.8285,-4.27726 l 0.4485,0.17247 c 1.5311,-6.91169 4.4745,-2.42164 8.175,-5.96747 0.5174,4.95972 3.4032,8.33533 1.1729,14.55648 l 1.0694,0.20696 c -0.4654,-6.65774 5.2599,-8.01928 7.5886,-13.17671 0.9994,7.86013 5.6675,7.44845 4.2772,15.38433 0,0.007 0,0.0269 0,0.0344 l 0.5175,-0.0344 0.4829,0.0344 c 0,-0.007 0,-0.0269 0,-0.0344 -1.3905,-7.9371 3.2789,-7.52226 4.2772,-15.38433 2.3311,5.15693 8.0538,6.52249 7.5888,13.17671 l 1.1038,-0.20696 c -2.2302,-6.22115 0.6556,-9.59676 1.1727,-14.55648 3.6916,3.53713 6.6064,-0.96913 8.1406,5.89848 -1.5291,0.76764 -2.5869,2.3462 -2.5869,4.17378 0,2.58011 2.0765,4.69118 4.6565,4.69118 2.5801,0 4.6912,-2.11107 4.6912,-4.69118 0,-2.58012 -2.1111,-4.65669 -4.6912,-4.65669 -0.3562,0 -0.6667,0.0279 -1.0002,0.10346 -3.3328,-5.72069 0.957,-4.54694 -0.414,-9.83079 -0.4172,-1.38918 -0.8502,-2.52301 -1.2763,-3.55289 -0.3497,-15.22352 -4.0771,-21.84496 -11.2451,-31.217079 -6.2957,-8.531378 -12.9444,-12.797278 -19.903,-12.797278 -0.6626,0 -1.3035,0.07584 -1.9661,0.241458 -0.8284,-2.650532 -1.4828,-4.380288 -1.8971,-5.208596 -0.8285,-1.739404 -2.5578,-3.338238 -5.2088,-4.82916 z m -11.7971,20.489442 c 1.9882,0 3.0009,0.509936 3.0009,1.586724 0,0.911128 -0.6199,2.000017 -1.8625,3.242441 -2.3195,2.40203 -4.5175,3.62187 -6.5883,3.62187 -1.0771,0 -1.6214,-0.751203 -1.6214,-2.24211 0,-1.076794 0.4135,-2.110502 1.2418,-3.104465 1.574,-2.070722 3.5101,-3.10446 5.8295,-3.10446 z m -15.0394,24.835687 c 0.1656,0.82832 0.276,1.31758 0.276,1.48325 0,0.3313 -0.056,0.61385 -0.138,0.86235 -0.4969,1.82221 -1.8129,2.75952 -3.9667,2.75952 -0.2486,-0.49697 -0.3794,-0.91047 -0.3794,-1.24178 0,-0.41416 0.076,-0.82765 0.2414,-1.2418 0.6627,-1.73941 1.9786,-2.62154 3.9667,-2.62154 z m 31.0101,30.94113 c -2.58,0 -4.6912,2.11108 -4.6912,4.69118 0,2.58013 2.1112,4.65671 4.6912,4.65671 2.5801,0 4.6912,-2.07658 4.6912,-4.65671 0,-2.5801 -2.1111,-4.69118 -4.6912,-4.69118 z m 27.7677,0 c -2.5801,0 -4.6566,2.11108 -4.6566,4.69118 0,2.58013 2.0765,4.65671 4.6566,4.65671 2.5803,0 4.6912,-2.07658 4.6912,-4.65671 0,-2.5801 -2.1109,-4.69118 -4.6912,-4.69118 z m -13.901,2.93199 c -2.5802,0 -4.6912,2.11108 -4.6912,4.6912 0,2.58011 2.111,4.62218 4.6912,4.62218 2.5801,0 4.6566,-2.04207 4.6566,-4.62218 0,-2.58012 -2.0765,-4.6912 -4.6566,-4.6912 z"
       id="amazon" />
    <path
       style="font-size:12px;font-style:normal;font-weight:normal;fill-opacity:1;stroke:#000000;stroke-width:3.8499999;stroke-miterlimit:4;stroke-opacity:1;stroke-dasharray:none;font-family:Bitstream Vera Sans"
       d="m 1462.0374,87.78735 c -3.9978,3.539233 -5.8474,8.102529 -6.3126,13.21875 -5.6145,-2.089217 -11.6865,-3.095927 -17.625,-2.1875 -7.5756,0.941185 -10.657,5.47698 -10.6872,12.90625 4e-4,0.0103 -5e-4,0.021 0,0.0312 -3e-4,0.0211 10e-5,0.0414 0,0.0625 0.1834,5.01555 2.2645,9.7714 4.6874,14.09375 2.0227,2.59102 3.7596,5.40058 5.2188,8.34375 2.2971,7.82334 1.8043,22.56162 2.6562,23.15625 l 0.2188,0 52.3438,0 0.2187,0 c 0.852,-0.59463 0.3591,-15.33291 2.6563,-23.15625 1.4123,-2.96982 3.2381,-5.72626 5.2187,-8.34375 2.4658,-4.33559 4.4403,-9.07504 4.6875,-14.09375 10e-4,-0.0205 -10e-4,-0.042 0,-0.0625 -10e-5,-0.0106 2e-4,-0.0207 0,-0.0312 0.1605,-7.6513 -3.2976,-11.72375 -10.6873,-12.90625 -5.9626,-1.189455 -11.9227,0.360404 -17.625,2.1875 -0.4652,-5.116221 -2.3147,-9.679517 -6.3125,-13.21875 l -8.6566,0 z"
       id="alt-king"
       sodipodi:nodetypes="ccccsccccccccccsccccc" />
    <path
       style="font-size:12px;font-style:normal;font-weight:normal;fill-opacity:1;stroke:#000000;stroke-width:3.8499999;stroke-miterlimit:4;stroke-opacity:1;stroke-dasharray:none;font-family:Bitstream Vera Sans"
       d="m 106.00605,71.5061 -1.5625,6.78125 -6.625,0 -0.0312,0 -0.125,0 0,4.65625 7.28125,3.21875 0,2.96875 c -5.12328,3.086195 -6.7174,7.928777 -7.1875,13.71875 -5.37773,-3.496664 -12.14376,-4.651191 -18.875,-2.96875 -0.0965,0.02928 -0.18572,0.06273 -0.28125,0.09375 -6.18212,1.94596 -9.17968,7.68661 -9.53125,13.6875 0.0683,2.60092 0.85073,4.97507 1.96875,7.21875 0.82928,1.75333 1.86441,3.42366 3.0625,5.03125 l 2.5,3.46875 c 1.198,1.83977 2.10639,3.47446 2.71875,4.875 2.2971,7.82334 1.8041,22.56162 2.65625,23.15625 l 53.625,0 c 0.8521,-0.59463 0.3591,-15.33291 2.6562,-23.15625 0.61236,-1.40054 1.52075,-3.03523 2.71875,-4.875 l 2.5,-3.46875 c 1.19809,-1.60759 2.23322,-3.27792 3.0625,-5.03125 1.11802,-2.24368 1.90045,-4.61783 1.96875,-7.21875 -0.35157,-6.00089 -3.34913,-11.74154 -9.53125,-13.6875 -0.0955,-0.03102 -0.18475,-0.06447 -0.28125,-0.09375 -6.73124,-1.682441 -13.49727,-0.527914 -18.875,2.96875 -0.4701,-5.789973 -2.06422,-10.632555 -7.1875,-13.71875 l 0,-2.96875 7.28125,-3.21875 0,-4.65625 -0.125,0 -0.0312,0 -6.625,0 -1.5625,-6.78125 -0.125,0 -0.9375,0 -0.125,0 -3.3125,0 -0.9375,0 -0.125,0 -5e-5,0 z"
       id="king"
       sodipodi:nodetypes="ccccccccccsccccccccccccsccccccccccccccccc" />
    <path
       d="m 400.17705,157.41682 -64.67904,0 0,-11.16609 13.03908,-12.90999 0,-25.69087 -10.06977,-9.940689 0,-14.270583 1.61479,-0.834117 11.48988,0.19472 0,9.22749 8.90579,0 0,-9.22749 14.7195,0 0,9.22749 8.9058,0 0,-9.22749 11.48988,-0.19472 1.6148,0.521844 0,14.582856 -10.06978,9.940689 0,25.69087 13.03907,12.90999 0,11.16609 z"
       id="rook"
       style="font-size:12px;font-style:normal;font-weight:normal;fill-opacity:1;stroke:#000000;stroke-width:3.75;stroke-linejoin:round;stroke-miterlimit:4;stroke-opacity:1;stroke-dasharray:none;font-family:Bitstream Vera Sans"
       sodipodi:nodetypes="ccccccccccccccccccccccc" />
    <path
       style="font-size:12px;font-style:normal;font-weight:normal;fill-opacity:1;stroke:#000000;stroke-width:3.75;stroke-linejoin:round;stroke-miterlimit:4;stroke-opacity:1;stroke-dasharray:none;font-family:Bitstream Vera Sans"
       id="knight"
       d="m 434.78808,111.45726 c 2.15165,0 4.43242,-1.24798 6.84228,-3.7439 1.291,-1.29099 1.9365,-2.40987 1.9365,-3.3566 0,-1.11888 -1.0328,-1.67831 -3.0984,-1.67831 -2.40985,0 -4.43242,1.07584 -6.06768,3.2275 -0.86069,1.03281 -1.291,2.10864 -1.291,3.22752 0,1.54919 0.55942,2.32379 1.6783,2.32379 m -1.54921,-21.301478 c 0,-1.46315 -0.81764,-6.9714 -0.6455,-6.9714 0.17214,0 0.60246,-0.043 1.291,-0.12911 3.87301,0 8.00419,1.29102 12.39359,3.87302 0.51639,0.34427 0.77461,0.51639 0.77461,0.51639 2.49592,-4.04514 4.38938,-6.0677 5.68038,-6.0677 2.75413,1.5492 4.56155,3.2275 5.4222,5.0349 0.43034,0.86068 1.07584,2.66806 1.9365,5.4222 0.68853,-0.17215 1.37706,-0.25819 2.0656,-0.25819 7.22959,0 14.11491,4.43242 20.65599,13.297278 7.83206,10.24193 11.74809,24.18469 11.74809,41.82835 0,3.95907 -0.17213,7.53082 -0.51639,10.7153 l -54.48018,0 c 0.17215,-5.76647 2.28076,-11.23169 6.3259,-16.3957 0.43034,-0.68853 1.0328,-1.46312 1.8074,-2.32379 3.18447,-4.04512 5.12096,-7.14352 5.8095,-9.2952 0.34426,-1.11885 0.60246,-2.28076 0.7746,-3.48569 -5.6804,2.23773 -9.9407,5.5513 -12.7809,9.9407 -1.291,2.15165 -2.71108,4.3894 -4.2603,6.71319 -0.43034,0.68854 -1.07584,1.03281 -1.93649,1.03281 -2.15166,0 -3.22749,-1.33403 -3.22749,-4.0021 -0.86069,1.11886 -1.85045,1.6783 -2.9693,1.6783 0,0 -0.86068,-0.21518 -2.582,-0.6455 -3.70086,-0.94675 -6.32589,-2.58201 -7.87511,-4.90581 -0.51639,-0.77459 -1.07582,-1.80739 -1.6783,-3.09838 0.60248,-3.70088 3.57178,-11.05957 8.90791,-22.0761 3.873,-7.91813 6.28287,-13.598518 7.2296,-17.041168 0.0861,-0.7746 0.12909,-1.89345 0.12909,-3.3566 z m -8.39149,38.342658 c -2.0656,0 -3.44267,0.90369 -4.1312,2.7111 -0.17213,0.43033 -0.2582,0.86066 -0.2582,1.291 0,0.34426 0.12909,0.7746 0.3873,1.29099 2.23773,0 3.6148,-0.94673 4.13119,-2.84018 0.0861,-0.2582 0.12911,-0.55945 0.12911,-0.9037 0,-0.17214 -0.0861,-0.68853 -0.2582,-1.54921"
       sodipodi:nodetypes="ccsscscccccccccscsccccccccscccscccsccsccsc" />
    <path
       sodipodi:nodetypes="cccsccccccccccccccccccsccsccscscccccsccccccccccccccccccssc"
       style="font-size:12px;font-style:normal;font-weight:normal;fill-opacity:1;stroke:#000000;stroke-width:3.75;stroke-linejoin:round;stroke-miterlimit:4;stroke-opacity:1;stroke-dasharray:none;font-family:Bitstream Vera Sans"
       id="bishop"
       d="m 569.43555,125.4306 2.43206,9.36346 c -9e-5,2.83742 -2.87804,4.49932 -8.63383,4.98573 4.21549,1.62138 8.14733,2.43208 11.79552,2.43208 0.48633,0 2.87784,-0.12161 7.17459,-0.36482 3.56694,0 6.48541,1.86459 8.75544,5.59377 0.32417,0.64854 0.72953,1.37815 1.21603,2.18885 l -4.37771,6.68816 c -1.29721,1.62139 -2.67538,2.67529 -4.1345,3.16169 -0.3244,-1.70243 -2.91859,-2.75633 -7.78261,-3.16169 l -2.91849,-0.24319 c -9.97157,-0.81069 -16.70029,-2.95901 -20.18613,-6.44497 -3.16179,3.32381 -7.98539,5.22893 -14.47079,5.71534 -1.45924,0.16215 -3.36436,0.40535 -5.71536,0.72963 -5.91803,0.4864 -9.36346,1.33763 -10.33627,2.55367 -0.16214,0.24319 -0.28375,0.52694 -0.36482,0.85121 -2.10776,-0.89175 -4.09397,-2.91848 -5.95855,-6.08015 -0.72963,-1.2971 -1.58084,-2.55367 -2.55367,-3.7697 2.18886,-4.05344 4.53985,-6.4855 7.05298,-7.2962 0.89178,-0.32428 1.86459,-0.48642 2.91848,-0.48642 0,0 2.39153,0.1216 7.1746,0.36482 3.72916,0 7.66099,-0.8107 11.79551,-2.43208 -5.75588,-0.48641 -8.63382,-2.14831 -8.63382,-4.98573 0,-0.2432 0.64855,-2.31044 1.94565,-6.20176 0.40533,-1.29711 0.60802,-2.18887 0.60802,-2.67527 -4.94521,-5.99909 -7.4178,-11.30911 -7.4178,-15.93003 0,-5.35055 2.63473,-10.21468 7.9042,-14.592391 4.7019,-3.972388 8.10679,-6.080168 10.21467,-6.323368 -1.78361,-2.18886 -2.67536,-4.4588 -2.67527,-6.80979 -9e-5,-3.81023 1.90503,-6.16122 5.71537,-7.05299 0.89165,-0.24311 1.82394,-0.3647 2.79687,-0.3648 4.05332,1e-4 6.68807,1.49978 7.90419,4.49931 l 0.60802,2.55367 0,0.36481 c -9e-5,2.26993 -0.89186,4.53985 -2.67526,6.80979 1.5402,0.40534 3.85066,1.66192 6.93139,3.7697 7.45823,5.188389 11.1874,10.903759 11.18749,17.146059 -9e-5,4.702 -2.43217,9.84986 -7.2962,15.4436 m -13.15812,-9.71172 0,-5.87845 4.54081,0 0,-7.24626 -4.54081,0 0,-5.513649 -7.00302,0 0,5.513649 -4.54083,0 0,7.24626 4.54083,0 0,5.87845 7.00302,0 z m -3.50151,-35.889489 c -1.62148,0 -2.63485,0.72961 -3.0401,2.18887 l -0.12158,0.7296 c -1.1e-4,1.54031 0.81058,2.51314 2.43206,2.91849 0.2431,0.0811 0.4863,0.12159 0.72962,0.12159 2.02661,0 3.03998,-1.01335 3.04008,-3.04008 -10e-5,-1.94566 -1.01347,-2.91847 -3.04008,-2.91847" />
    <path
       id="archbishop"
       style="font-size:12px;font-style:normal;font-weight:normal;fill-opacity:1;fill-rule:evenodd;stroke:#000000;stroke-width:3.75;stroke-linejoin:round;stroke-miterlimit:4;stroke-opacity:1;stroke-dasharray:none;font-family:Bitstream Vera Sans"
       d="m 616.85173,118.89644 c -1.80119,0 -3.00199,0.78791 -3.60238,2.36374 -0.1501,0.37519 -0.22515,0.75039 -0.22515,1.12559 0,0.30015 0.11257,0.67535 0.33772,1.12558 1.95129,0 3.15209,-0.82543 3.60238,-2.47628 0.0751,-0.22512 0.11258,-0.48777 0.11258,-0.78791 0,-0.15009 -0.0751,-0.60031 -0.22515,-1.35072 m 24.31062,-41.073219 c -1.12574,0 -2.76107,1.754395 -4.9375,5.28125 0,0 -0.23721,-0.13734 -0.6875,-0.4375 -3.82754,-2.25118 -7.43525,-3.40625 -10.8125,-3.40625 -0.17753,0.185334 -0.20689,4.65036 -0.5625,6.21875 0,1.275683 -0.0186,2.230896 -0.0937,2.90625 -0.82554,3.001558 -2.93526,7.971385 -6.3125,14.874999 -4.65308,9.60502 -7.25589,16.0233 -7.78125,19.25 0.52536,1.12558 1.01846,2.01215 1.46875,2.6875 1.35091,2.02606 3.64787,3.4558 6.875,4.28125 1.50099,0.37518 2.25,0.5625 2.25,0.5625 0.97564,0 1.84323,-0.49325 2.59375,-1.46875 0,2.32622 0.93627,3.5 2.8125,3.5 0.75048,0 1.31225,-0.30593 1.6875,-0.90625 1.35091,-2.02605 2.59301,-3.96778 3.71875,-5.84375 2.47664,-3.827 6.17172,-6.73648 11.125,-8.6875 -0.15011,1.05055 -0.35606,2.087 -0.65625,3.0625 -0.6004,1.87599 -2.87994,5.01384 -5.0625,8.09375 -2.18257,3.07991 -7.20242,6.9355 -5.25,6.9375 4.24349,-0.17785 5.7626,4.05007 10.25,5.0313 -4.13452,1.62138 -8.08334,2.4375 -11.8125,2.4375 l -7.15625,-0.34375 c -1.05389,0 -2.04572,0.14447 -2.9375,0.46875 -2.51313,0.8107 -4.84239,3.25906 -7.03125,7.3125 0.97283,1.21603 1.80162,2.4529 2.53125,3.75 1.86458,3.16167 3.86099,5.202 5.96875,6.09375 0.0811,-0.32427 0.21286,-0.60056 0.375,-0.84375 0.97281,-1.21604 4.39447,-2.0761 10.3125,-2.5625 2.351,-0.32428 4.25951,-0.5566 5.71875,-0.71875 6.4854,-0.48641 11.30696,-2.39494 14.46875,-5.71875 3.48584,3.48596 10.21593,5.62681 20.1875,6.4375 l 2.9375,0.25 c 4.86402,0.40536 7.45685,1.45382 7.78125,3.15625 1.45912,-0.4864 2.82779,-1.53486 4.125,-3.15625 l 4.375,-6.6875 c -0.4865,-0.8107 -0.89458,-1.53896 -1.21875,-2.1875 -2.27003,-3.72918 -5.18306,-5.59375 -8.75,-5.59375 -4.29675,0.24321 -6.70117,0.34375 -7.1875,0.34375 -3.64819,0 -5.41834,-1.35297 -9.63383,-2.97435 2.90516,0.0253 8.42486,-5.09421 11.58216,-4.9944 0,-15.38305 -2.18132,-27.00782 -9.01083,-35.937501 -5.70379,-7.729044 -11.72708,-11.593748 -18.03125,-11.593748 -0.6004,0 -1.18085,0.06866 -1.78125,0.21875 -0.75049,-2.401265 -1.34349,-3.968345 -1.71875,-4.71875 -0.75048,-1.575826 -2.31716,-3.024292 -4.71875,-4.375 l -5e-5,-5e-5 z m -15.64238,26.215509 c 1.87623,0 3.86505,-1.08808 5.96643,-3.26421 1.12575,-1.125581 1.68862,-2.101101 1.68862,-2.926531 0,-0.97553 -0.90059,-1.463281 -2.70179,-1.463281 -2.10137,0 -3.86504,0.938001 -5.29098,2.813981 -0.75052,0.900481 -1.12575,1.838471 -1.12575,2.813991 0,1.3507 0.48782,2.02605 1.46347,2.02605"
       sodipodi:nodetypes="ccsccscccccccccscccsccccscccccccccccccccccccscccsccccccsscsc" />
    <path
       id="chancellor"
       style="font-size:12px;font-style:normal;font-weight:normal;fill-opacity:1;fill-rule:evenodd;stroke:#000000;stroke-width:3.75;stroke-linejoin:round;stroke-miterlimit:4;stroke-opacity:1;stroke-dasharray:none;font-family:Bitstream Vera Sans"
       d="m 706.85173,118.89644 c -1.80119,0 -3.00199,0.78791 -3.60238,2.36374 -0.1501,0.37519 -0.22515,0.75039 -0.22515,1.12559 0,0.30015 0.11257,0.67535 0.33772,1.12558 1.95129,0 3.15209,-0.82543 3.60238,-2.47628 0.0751,-0.22512 0.11258,-0.48777 0.11258,-0.78791 0,-0.15009 -0.0751,-0.6003 -0.22515,-1.35072 m 24.31062,-41.073219 c -1.12574,0 -2.76107,1.7544 -4.9375,5.28125 0,0 -0.23721,-0.13734 -0.6875,-0.4375 -3.82754,-2.25118 -7.43525,-3.40625 -10.8125,-3.40625 -0.17753,0.18533 -0.20689,4.65036 -0.5625,6.21875 0,1.27568 -0.0186,2.2309 -0.0937,2.90625 -0.82554,3.00156 -2.93526,7.97139 -6.3125,14.874999 -4.65308,9.60503 -7.25589,16.0233 -7.78125,19.25001 0.52536,1.12558 1.01846,2.01215 1.46875,2.6875 1.35091,2.02606 3.64787,3.4558 6.875,4.28125 1.50099,0.37518 2.25,0.5625 2.25,0.5625 0.97564,0 1.84323,-0.49325 2.59375,-1.46875 0,2.32622 0.93627,3.5 2.8125,3.5 0.75048,0 1.31225,-0.30593 1.6875,-0.90625 1.35091,-2.02605 2.59301,-3.96778 3.71875,-5.84375 2.47664,-3.827 6.17172,-6.73648 11.125,-8.6875 -0.15011,1.05055 -0.35606,2.087 -0.65625,3.0625 -0.6004,1.87599 -2.87994,5.01384 -5.0625,8.09375 -2.18257,3.07991 -7.20242,6.93549 -5.25,6.93749 l 2.5625,0 -9.0625,8.8125 0,14.28125 1.625,0.84375 11.5,-0.21875 0,-9.21875 8.90625,0 0,9.21875 14.71875,0 0,-9.21875 8.90625,0 0,9.21875 11.46875,0.21875 1.625,-0.53125 0,-14.59375 -8.96875,-8.78125 2.8125,0 c 0,-15.38305 -3.38924,-27.53907 -10.21875,-36.468749 -5.70379,-7.72905 -11.72708,-11.59375 -18.03125,-11.59375 -0.6004,0 -1.18085,0.0687 -1.78125,0.21875 -0.75049,-2.40126 -1.34349,-3.96834 -1.71875,-4.71875 -0.75048,-1.57583 -2.31716,-3.02429 -4.71875,-4.375 l -5e-5,0 z m -7,56.906249 -0.0312,0.0312 0.0312,-0.0312 5e-5,0 z m -8.64238,-30.69074 c 1.87623,0 3.86505,-1.08808 5.96643,-3.26421 1.12575,-1.125579 1.68862,-2.101099 1.68862,-2.926539 0,-0.97552 -0.90059,-1.46327 -2.70179,-1.46327 -2.10137,0 -3.86504,0.938 -5.29098,2.81398 -0.75052,0.900479 -1.12575,1.838469 -1.12575,2.813989 0,1.3507 0.48782,2.02605 1.46347,2.02605"
       sodipodi:nodetypes="ccsccscccccccccscccsccccscccccccccccccccccccsccccccccccsscsc" />
    <path
       id="elephant"
       style="fill-opacity:1;fill-rule:evenodd;stroke:#000000;stroke-width:3.75;stroke-linecap:butt;stroke-linejoin:round;stroke-miterlimit:4;stroke-opacity:1;stroke-dasharray:none"
       d="m 940.7382,124.16662 c 1.85515,-2.06265 -4.56141,-4.44313 -7.48647,-7.2662 -2.92507,-2.82306 -6.17687,3.39612 -4.23482,6.41212 1.942,3.01599 9.27269,2.54789 11.72129,0.85408 z m -9.35366,-22.25702 c 0.33645,1.53406 -0.83187,3.21969 -2.45244,3.53773 -1.62052,0.31805 -3.40063,-0.78893 -3.73585,-2.32323 -0.33645,-1.53405 0.83187,-3.219684 2.45239,-3.537734 1.62058,-0.318042 3.40068,0.788944 3.7359,2.323234 z m 7.54082,29.84281 c 3.54139,-4.36112 8.84484,-19.50987 3.15197,-34.705888 -8.03036,-21.435335 -15.04705,-21.649308 -23.47262,-23.324407 -16.51187,-3.282738 -38.80853,2.594445 -52.05899,18.599712 -4.30911,5.204979 3.15791,19.532953 6.0541,24.108223 6.62691,10.46886 13.63213,16.10353 24.14321,11.86787 6.34761,-2.55791 9.85055,-22.86872 9.85055,-22.86872 0,0 -3.62937,19.99924 -9.73328,22.72472 5.69943,7.28522 4.67607,12.3846 12.19799,7.62707 5.24878,-3.47419 10.01938,-9.90962 14.67754,-7.1577 4.65812,2.75192 -7.29652,12.73583 -5.87315,19.17769 1.42337,6.44186 5.47795,11.47062 10.6609,11.65564 5.18296,0.18502 7.80175,-0.75095 10.32497,-2.81002 2.52328,-2.05906 5.77522,-4.26546 6.25647,-5.94516 0.48125,-1.6797 -0.53782,-3.6934 -2.38957,-3.16812 -1.85179,0.52528 -4.61642,4.71465 -7.25539,5.0628 -2.63893,0.34815 -5.58072,-1.34881 -6.68342,-5.40953 -1.10269,-4.06072 6.46044,-10.89213 10.14872,-15.43418 z"
       sodipodi:nodetypes="cssccsssccssssscccsszzzzzsc" />
    <path
       id="cannon"
       style="fill-opacity:1;stroke:#000000;stroke-width:3.74999976;stroke-linecap:butt;stroke-linejoin:round;stroke-miterlimit:4;stroke-opacity:1;stroke-dashoffset:0"
       d="m 1011.9356,125.89726 c 4.8716,5.03041 4.7484,13.06193 -0.275,17.9389 -5.0234,4.87697 -13.0449,4.7526 -17.9164,-0.2778 -4.8716,-5.03041 -4.7484,-13.06193 0.2751,-17.93891 5.0234,-4.87696 13.0448,-4.75259 17.9163,0.27781 z m 7.1724,-6.96264 c 8.7129,8.99674 8.4926,23.3609 -0.492,32.08323 -8.9846,8.72234 -23.3312,8.49989 -32.0442,-0.49685 -8.71283,-8.99674 -8.49258,-23.3609 0.4921,-32.08324 8.9845,-8.72233 23.3312,-8.49988 32.0441,0.49686 z m 11.5311,-41.280949 c 0.044,-0.02844 -33.3127,18.455841 -42.6459,25.147869 -26.97262,19.33991 -25.21071,32.20464 -7.9805,43.75231 l -9.14429,9.39926 6.20706,0 7.39863,-7.62477 0.1662,-0.1109 c -6.66944,-9.00014 -5.84272,-21.76559 2.4108,-29.77818 8.8068,-8.54971 22.7792,-8.50591 31.5341,-0.0277 l 20.2007,-32.35675 -8.1468,-8.40112 z" />
    <path
       style="fill-opacity:1;stroke:#000000;stroke-width:3.8499999;stroke-miterlimit:4;stroke-opacity:1;stroke-dasharray:none"
       d="m 200.875,5.96875 c -3.51826,0 -6.375,2.825481 -6.375,6.34375 0,3.518269 2.85674,6.375 6.375,6.375 3.51827,0 6.34375,-2.856731 6.34375,-6.375 0,-3.518269 -2.82548,-6.34375 -6.34375,-6.34375 z M 181.96875,9.9375 c -3.51826,0 -6.375,2.856732 -6.375,6.375 0,3.518269 2.85674,6.375 6.375,6.375 3.51827,0 6.375,-2.856731 6.375,-6.375 0,-3.518268 -2.85673,-6.375 -6.375,-6.375 z m 37.875,0 c -3.51828,0 -6.375,2.856732 -6.375,6.375 0,3.518269 2.85672,6.375 6.375,6.375 3.51826,0 6.375,-2.856731 6.375,-6.375 0,-3.518268 -2.85674,-6.375 -6.375,-6.375 z m -19.625,9.46875 c 0.002,0.01044 -0.002,0.02082 0,0.03125 1.89581,10.821435 -4.44973,18.281859 -5.8125,29 -3.17543,-7.032723 -11.0095,-16.921439 -10.375,-26 L 182.5625,22.75 c 3.04106,8.483209 -0.88858,21.08064 -1.59375,27.84375 -5.04619,-4.8351 -9.06837,-6.70017 -11.15625,-16.125 l -0.59375,0.21875 c 2.26507,-0.976486 3.84375,-3.220507 3.84375,-5.84375 0,-3.51827 -2.85673,-6.375 -6.375,-6.375 -3.51826,0 -6.375,2.85673 -6.375,6.375 0,3.51826 2.85674,6.375 6.375,6.375 0.65968,0 1.30782,-0.09512 1.90625,-0.28125 l -0.21875,0.09375 c 4.58604,7.81802 -1.30995,14.22067 0.5625,21.4375 1.87245,7.21683 8.21498,14.70553 6.6875,22.78125 -0.31529,1.72132 -0.46865,5.24025 -0.46875,6.53125 l 51.5,0 c -1e-4,-1.291 -0.15346,-4.80993 -0.46875,-6.53125 -1.52748,-8.07572 4.81505,-15.56442 6.6875,-22.78125 1.86941,-7.205101 -4.01338,-13.60546 0.53125,-21.40625 0.45475,0.103054 0.92032,0.15625 1.40625,0.15625 3.51826,0 6.375,-2.85674 6.375,-6.375 0,-3.51827 -2.85674,-6.375 -6.375,-6.375 -3.51828,0 -6.375,2.85673 -6.375,6.375 0,2.492101 1.44611,4.640739 3.53125,5.6875 -2.0922,9.364742 -6.05993,11.239253 -11.09375,16.0625 C 220.16983,43.83064 216.20894,31.233209 219.25,22.75 l -1.46875,-0.3125 c 0.63417,9.073763 -7.16508,18.967971 -10.34375,26 -1.36144,-10.720792 -7.73985,-18.176897 -5.84375,-29 0.002,-0.01043 -0.002,-0.02081 0,-0.03125 l -0.6875,0.03125 -0.6875,-0.03125 z"
       id="queen"
       sodipodi:nodetypes="csssccsssccsssccsccccccssssccsccccscsssscccccsccc"
       transform="translate(69.0686,71.6311)" />
    <path
       sodipodi:nodetypes="cssscccccssssccsccccscssssccccc"
       id="vizier"
       d="m 1171.9436,77.59985 c -3.5183,0 -6.375,2.825481 -6.375,6.34375 0,3.518269 2.8567,6.375 6.375,6.375 3.5183,0 6.3437,-2.856731 6.3437,-6.375 0,-3.518269 -2.8254,-6.34375 -6.3437,-6.34375 z m -0.6563,13.4375 c 0,0.01044 0,0.02082 0,0.03125 0.8045,25.08484 -20.4201,47.94779 -30.4062,15.03125 l -0.5938,0.21875 c 2.2651,-0.97649 3.8438,-3.22051 3.8438,-5.84375 0,-3.51827 -2.8567,-6.375 -6.375,-6.375 -3.5183,0 -6.375,2.85673 -6.375,6.375 0,3.51826 2.8567,6.375 6.375,6.375 0.6597,0 1.3078,-0.0951 1.9062,-0.28125 l -0.2187,0.0937 c 4.586,7.81802 4.69,14.22067 6.5625,21.4375 1.8724,7.21683 2.215,14.70553 0.6875,22.78125 -0.3153,1.72132 -0.4687,5.24025 -0.4688,6.53125 l 51.5,0 c -10e-5,-1.291 -0.1534,-4.80993 -0.4687,-6.53125 -1.5275,-8.07572 -1.185,-15.56442 0.6875,-22.78125 1.8694,-7.2051 1.9866,-13.60546 6.5312,-21.40625 0.4548,0.10305 0.9204,0.15625 1.4063,0.15625 3.5183,0 6.375,-2.85674 6.375,-6.375 0,-3.51827 -2.8567,-6.375 -6.375,-6.375 -3.5183,0 -6.375,2.85673 -6.375,6.375 0,2.4921 1.4461,4.64074 3.5312,5.6875 -12.2816,33.157 -31.2069,9.99258 -30.3749,-15.09375 0,-0.01043 0,-0.02081 0,-0.03125 l -1.375,0 -10e-5,5e-5 z"
       style="fill-opacity:1;stroke:#000000;stroke-width:3.8499999;stroke-miterlimit:4;stroke-opacity:1;stroke-dasharray:none" />
    <path
       id="wheeled-elephant"
       style="fill-opacity:1;stroke:#000000;stroke-width:3.74999976;stroke-linecap:butt;stroke-linejoin:round;stroke-miterlimit:4;stroke-opacity:1;stroke-dashoffset:0"
       d="m 1264.3142,120.99732 c 8.7129,8.99674 8.4926,23.3609 -0.492,32.08323 -8.9846,8.72234 -23.3312,8.49989 -32.0442,-0.49685 -8.7129,-8.99674 -8.4926,-23.3609 0.4921,-32.08324 8.9845,-8.72233 23.3312,-8.49988 32.0441,0.49686 z m -7.1724,6.96264 c 4.8716,5.03041 4.7484,13.06193 -0.275,17.9389 -5.0234,4.87697 -13.0449,4.7526 -17.9164,-0.2778 -4.8716,-5.03041 -4.7484,-13.06193 0.2751,-17.93891 5.0234,-4.87696 13.0448,-4.75259 17.9163,0.27781 z m 13.6768,-55.11011 c -14.7548,0.151344 -31.5152,6.464471 -42.2812,19.46875 -4.3091,5.204979 3.1662,19.54973 6.0624,24.125 0.3119,0.4926 0.6237,0.96683 0.9376,1.4375 8.8583,-5.8903 20.8959,-4.86095 28.625,2.96875 1.7591,-4.16116 3.0641,-9.06601 3.7812,-12.21875 -0.6971,3.16929 -1.926,8.13386 -3.6875,12.3125 0.021,0.0211 0.042,0.0413 0.062,0.0625 4.0687,4.20121 6.1851,9.57899 6.375,15 0.1283,-0.0783 0.2414,-0.13424 0.375,-0.21875 5.2488,-3.47419 9.9981,-9.90817 14.6562,-7.15625 4.6582,2.75192 -7.2983,12.71439 -5.875,19.15625 1.4233,6.44186 5.5046,11.47123 10.6876,11.65625 5.1829,0.18502 7.7892,-0.75343 10.3124,-2.8125 2.5234,-2.05906 5.7689,-4.2578 6.25,-5.9375 0.4813,-1.6797 -0.5232,-3.68153 -2.375,-3.15625 -1.8516,0.52528 -4.6111,4.71435 -7.25,5.0625 -2.6389,0.34815 -5.5847,-1.34553 -6.6874,-5.40625 -1.1027,-4.06072 6.4366,-10.89545 10.125,-15.4375 3.5414,-4.36112 8.8491,-19.52273 3.1562,-34.71875 -8.0303,-21.435335 -15.0431,-21.637401 -23.4688,-23.3125 -3.0959,-0.615513 -6.3762,-0.909925 -9.7812,-0.875 z m 19.4375,26.6875 c 1.431,0.0198 2.8317,1.0325 3.125,2.375 0.3365,1.53406 -0.8169,3.21321 -2.4375,3.53125 -1.6205,0.31805 -3.4147,-0.7782 -3.75,-2.3125 -0.3364,-1.53405 0.8483,-3.2132 2.4688,-3.53125 0.2025,-0.03975 0.3893,-0.06533 0.5937,-0.0625 z m -21.6563,5.90625 c 0,0 -0.234,1.23337 -0.6562,3.15625 0.4356,-1.91751 0.6562,-3.15625 0.6562,-3.15625 z m 25,10.75 c 0.5351,-0.0257 1.1079,0.18943 1.6563,0.71875 2.9251,2.82307 9.3238,5.18735 7.4687,7.25 -2.4485,1.69381 -9.7767,2.17224 -11.7187,-0.84375 -1.5779,-2.4505 0.2753,-7.01346 2.5937,-7.125 z" />
    <path
       id="wheeled-knight"
       style="fill-opacity:1;stroke:#000000;stroke-width:3.93440413;stroke-linecap:butt;stroke-linejoin:round;stroke-miterlimit:4;stroke-opacity:1;stroke-dashoffset:0"
       d="m 1392.8449,124.98069 c 5.1112,5.27778 4.9819,13.70424 -0.2885,18.82104 -5.2704,5.11679 -13.6864,4.9863 -18.7974,-0.29146 -5.1112,-5.27778 -4.9819,-13.70425 0.2886,-18.82105 5.2704,-5.11678 13.6863,-4.9863 18.7973,0.29147 z m 7.5251,-7.30502 c 9.1414,9.43915 8.9103,24.50966 -0.5162,33.6609 -9.4264,9.15126 -24.4785,8.91787 -33.6199,-0.52128 -9.1413,-9.43915 -8.9102,-24.50966 0.5163,-33.66092 9.4263,-9.15124 24.4785,-8.91785 33.6198,0.5213 z m -34.833,-42.121769 c -1.291,0 -3.1915,2.01736 -5.6875,6.0625 0,0 -0.2648,-0.15573 -0.7812,-0.5 -4.3894,-2.582 -8.5333,-3.875 -12.4063,-3.875 -0.6885,0.0861 -1.1091,0.125 -1.2812,0.125 -0.1722,0 0.6562,5.5056 0.6562,6.96875 0,1.46315 -0.039,2.56915 -0.125,3.34375 -0.9467,3.44265 -3.377,9.14437 -7.25,17.062499 -5.3361,11.01653 -8.3037,18.36162 -8.9062,22.0625 0.6025,1.29099 1.1711,2.31916 1.6875,3.09375 1.5492,2.3238 4.1741,3.9595 7.875,4.90625 l 2.5937,0.65625 c 1.1189,0 2.1081,-0.56864 2.9688,-1.6875 0,2.66807 1.0671,4 3.2187,4 0.8607,0 1.5072,-0.34271 1.9375,-1.03125 1.5493,-2.32379 2.959,-4.5671 4.25,-6.71875 2.0874,-3.22595 4.9411,-5.87375 8.5625,-7.9375 1.0511,-1.77032 2.3587,-3.43514 3.9063,-4.9375 9.4263,-9.15124 24.4836,-8.9079 33.625,0.53125 3.9993,4.12963 6.1987,9.33812 6.625,14.65625 -1.0912,-13.66051 -4.8846,-24.75289 -11.4063,-33.281249 -6.541,-8.86486 -13.4266,-13.3125 -20.6562,-13.3125 -0.6886,0 -1.374,0.1091 -2.0625,0.28125 -0.8607,-2.75414 -1.5072,-4.57682 -1.9375,-5.4375 -0.8607,-1.8074 -2.6521,-3.48205 -5.4063,-5.03125 z m -12.2812,21.3125 c 2.0656,0 3.0937,0.53737 3.0937,1.65625 0,0.94673 -0.6465,2.084009 -1.9375,3.374999 -2.4098,2.49592 -4.6921,3.75 -6.8437,3.75 -1.1189,0 -1.6563,-0.79456 -1.6563,-2.34375 0,-1.11888 0.4206,-2.18594 1.2813,-3.21875 1.6352,-2.151659 3.6526,-3.218749 6.0625,-3.218749 z m -15.625,25.812499 c 0.1721,0.86068 0.25,1.35911 0.25,1.53125 0,0.34425 -0.039,0.64805 -0.125,0.90625 -0.5164,1.89345 -1.8873,2.84375 -4.125,2.84375 -0.2582,-0.51639 -0.375,-0.93699 -0.375,-1.28125 0,-0.43034 0.078,-0.85092 0.25,-1.28125 0.6885,-1.80741 2.0594,-2.71875 4.125,-2.71875 z"
       sodipodi:nodetypes="csssccssscccccsscccscccscccssccsccccscsscccsccscc" />
    <path
       style="font-size:12px;font-style:normal;font-weight:normal;fill-opacity:1;stroke:#000000;stroke-width:3.8499999;stroke-linejoin:round;stroke-miterlimit:4;stroke-opacity:1;stroke-dasharray:none;font-family:Bitstream Vera Sans"
       d="m 122.25,25.34375 c -7.2114,0.791954 -9.2271,7.691257 -5.9375,13.71875 -7.67698,3.407642 -10.14379,15.470209 -1.3125,19.03125 -11.39791,5.411933 -13.63765,16.176939 -13.59375,27.6875 l 42.4375,0 c 0.0439,-11.51056 -2.19584,-22.27557 -13.59375,-27.6875 8.83129,-3.56104 6.36448,-15.62361 -1.3125,-19.03125 3.2896,-6.02749 1.2739,-12.926796 -5.9375,-13.71875 -0.13548,0.0984 -0.25628,0.237739 -0.375,0.40625 -0.11872,-0.168511 -0.23952,-0.307852 -0.375,-0.40625 z"
       transform="translate(69.0686,71.6311)"
       id="pawn"
       sodipodi:nodetypes="cccccccccc" />
    <path
       style="font-size:12px;font-style:normal;font-weight:normal;fill-opacity:1;stroke:#000000;stroke-width:4.58196306;stroke-linejoin:round;stroke-miterlimit:4;stroke-opacity:1;stroke-dasharray:none;font-family:Bitstream Vera Sans"
       d="m 815.3896,76.080997 -1.85956,8.070503 -7.88455,0 -0.0371,0 -0.14876,0 0,5.541498 8.66556,3.830699 -2.93811,7.921743 c -9.13653,4.0555 -12.07233,18.41141 -1.56203,22.64947 -13.56489,6.44085 -16.23045,19.25251 -16.1782,32.95146 l 50.50573,0 c 0.0523,-13.69895 -2.61331,-26.51061 -16.1782,-32.95146 10.5103,-4.23806 7.5745,-18.59397 -1.56203,-22.64947 l -2.93811,-7.921743 8.66556,-3.830699 0,-5.541498 -0.14876,0 -0.0371,0 -7.88455,0 -1.85956,-8.070503 -0.14877,0 -1.11574,0 -0.14876,0 -3.94228,0 -1.11573,0 -0.14877,0 z"
       id="guard"
       sodipodi:nodetypes="cccccccccccccccccccccccccc" />
    <path
       sodipodi:nodetypes="ccccccccccccccccccc"
       style="font-size:12px;font-style:normal;font-weight:normal;fill-opacity:1;stroke:#000000;stroke-width:3.75;stroke-linejoin:round;stroke-miterlimit:4;stroke-opacity:1;stroke-dasharray:none;font-family:Bitstream Vera Sans"
       id="small-rook"
       d="m 1114.177,157.41682 -52.679,0 0,-11.16609 13.0391,-12.90999 0,-19.69087 -10.0698,-9.94069 0,-14.270582 1.6148,-0.834117 11.4899,0.19472 0,9.22749 20.5311,0 0,-9.22749 11.4899,-0.19472 1.6148,0.521844 0,14.582855 -10.0698,9.94069 0,19.69087 13.039,12.90999 0,11.16609 z" />
    <path
       id="elephant-queen"
       style="fill-opacity:1;stroke:#000000;stroke-width:3.26853561;stroke-miterlimit:4;stroke-opacity:1;stroke-dasharray:none"
       d="m 1556.7653,72.691177 c -3.0813,0 -5.5832,2.325279 -5.5832,5.22071 0,2.895421 2.5019,5.246422 5.5832,5.246422 3.0812,0 5.5558,-2.351001 5.5558,-5.246422 0,-2.895431 -2.4746,-5.22071 -5.5558,-5.22071 z m -16.558,3.26616 c -3.0813,0 -5.5832,2.350992 -5.5832,5.246422 0,2.895431 2.5019,5.246432 5.5832,5.246432 3.0813,0 5.5832,-2.351001 5.5832,-5.246432 0,-2.89543 -2.5019,-5.246422 -5.5832,-5.246422 z m 33.1707,0 c -3.0813,0 -5.5833,2.350992 -5.5833,5.246422 0,2.895431 2.502,5.246432 5.5833,5.246432 3.0812,0 5.5831,-2.351001 5.5831,-5.246432 0,-2.89543 -2.5019,-5.246422 -5.5831,-5.246422 z m -17.1875,7.792481 c 0,0.0087 0,0.01715 0,0.02572 1.6603,8.905717 -3.8971,9.049849 -5.0905,17.870542 -2.781,-5.787706 -9.6421,-7.930255 -9.0864,-15.401629 l -1.2863,0.257173 c 2.6633,6.981424 -0.7782,11.353154 -1.3957,16.918986 -4.4195,-3.979136 -7.9421,0.48153 -9.7707,-7.274813 l -0.52,0.180028 c 1.9838,-0.803619 3.3663,-2.650378 3.3663,-4.809231 0,-2.89543 -2.5019,-5.246423 -5.5831,-5.246423 -3.0812,0 -5.5832,2.350993 -5.5832,5.246423 0,2.895421 2.502,5.246431 5.5832,5.246431 0.5778,0 1.1454,-0.07826 1.6695,-0.23146 l -0.1916,0.07713 c 4.0164,6.433985 -1.1473,11.703165 0.4926,17.642395 l 55.996,0 c 1.6373,-5.92958 -3.5148,-11.19687 0.4653,-17.616674 0.3983,0.08485 0.806,0.128586 1.2316,0.128586 3.0812,0 5.5831,-2.35101 5.5831,-5.246431 0,-2.895422 -2.5019,-5.246422 -5.5831,-5.246422 -3.0813,0 -5.5832,2.351 -5.5832,5.246422 0,2.050923 1.2665,3.819186 3.0927,4.680644 -1.8324,7.706875 -5.3073,3.253989 -9.7159,7.223365 -0.6176,-5.565816 -4.0865,-9.937556 -1.4232,-16.918971 l -1.2863,-0.257182 c 0.5554,7.467435 -6.275,9.614492 -9.0589,15.401623 -1.1924,-8.822869 -6.7785,-8.963441 -5.118,-17.870527 0,-0.0087 0,-0.01714 0,-0.02571 l -0.6021,0.02571 -0.6021,-0.02571 0,4.4e-5 0,-3.5e-5 z m 28.1883,51.671052 c 1.3584,-1.41934 -3.3403,-3.05738 -5.4822,-4.99998 -2.142,-1.94259 -4.5232,2.33693 -3.1011,4.41228 1.422,2.07534 6.7902,1.75324 8.5833,0.5877 z m -6.8496,-15.31538 c 0.2464,1.0556 -0.6091,2.21551 -1.7958,2.43436 -1.1868,0.21886 -2.4902,-0.54287 -2.7358,-1.59865 -0.2463,-1.05559 0.6092,-2.21552 1.7959,-2.43437 1.1867,-0.21885 2.4903,0.54289 2.7357,1.59866 z m 5.522,20.53528 c 2.5933,-3.00095 5.9523,-15.72552 1.7835,-26.18213 l -56.0099,0.0354 c -3.1554,3.58162 3.5366,12.455 5.6574,15.6033 4.8528,7.20379 9.9826,11.08108 17.6796,8.16647 4.6484,-1.76014 7.2135,-15.73632 7.2135,-15.73632 0,0 -2.6577,13.76178 -7.1276,15.63723 4.1736,5.01306 3.4243,8.52203 8.9324,5.24829 3.8436,-2.39063 7.3371,-6.81896 10.7481,-4.92531 3.4111,1.89364 -5.3431,8.76371 -4.3008,13.19644 1.0423,4.43276 4.0114,7.89311 7.8068,8.02043 3.7954,0.12731 5.7131,-0.51674 7.5608,-1.93361 1.8477,-1.41688 4.2291,-2.93513 4.5815,-4.09096 0.3524,-1.15583 -0.3938,-2.54149 -1.7499,-2.18003 -1.3559,0.36145 -3.3804,3.24422 -5.3129,3.48379 -1.9324,0.23957 -4.0867,-0.92814 -4.8942,-3.72239 -0.8074,-2.79423 4.7309,-7.49504 7.4317,-10.62048 l 0,-8e-5 0,-4e-5 z"
       sodipodi:nodetypes="csssccsssccsssccsccccccsssscccccsssscccccsccccccssccsssccccsscccssssssssccc" />
    <path
       id="wheeled-super-elephant"
       style="fill-opacity:1;stroke:#000000;stroke-width:4.12289715;stroke-linecap:butt;stroke-linejoin:round;stroke-miterlimit:4;stroke-opacity:1;stroke-dashoffset:0"
       d="m 1669.1164,124.63922 c 5.3562,5.53065 5.2206,14.36081 -0.3022,19.72274 -5.523,5.36193 -14.3421,5.22519 -19.698,-0.30543 -5.3561,-5.53063 -5.2207,-14.36079 0.3024,-19.72273 5.5229,-5.36193 14.3419,-5.22518 19.6978,0.30542 z m 7.8857,-7.655 c 9.5792,9.89138 9.3371,25.6839 -0.5409,35.27357 -9.8781,9.58968 -25.6513,9.34511 -35.2306,-0.54625 -9.5794,-9.89138 -9.3372,-25.6839 0.541,-35.27358 9.8778,-9.58967 25.6511,-9.3451 35.2305,0.54626 z m -51.0598,-22.399436 c -4.5388,5.881576 4.2039,21.330966 7.5586,26.249096 0.9005,1.32026 1.802,2.58046 2.7142,3.74496 1.2619,-2.96819 3.1077,-5.75625 5.566,-8.14271 7.63,-7.40744 18.7705,-8.94858 27.8638,-4.70698 0.2678,-1.35433 0.1947,-10.64523 0.6528,-11.23584 1.7815,-2.296891 -0.3236,9.90228 -0.5841,11.2702 2.6524,1.24734 5.1231,2.9912 7.2838,5.22233 4.2422,4.3803 6.5341,9.9203 6.9403,15.56394 5.0369,2.90251 9.0276,8.19534 14.5675,10.92568 3.5002,1.72501 14.0041,4.66054 22.9164,-9.13908 8.9124,-13.79963 -13.7876,-39.502046 -3.7793,-45.66108 3.0495,-1.87661 5.1692,1.417134 5.6346,-0.446648 0.4656,-1.863769 0.8199,-2.758526 -0.5153,-4.535186 -1.2594,-1.675798 4.4479,-11.554414 -9.3796,-0.171787 -13.8274,11.382635 10.0922,37.942641 2.6798,46.691801 -1.9756,5.76264 -13.3907,9.27133 -15.7012,4.98183 -0.7521,-1.39643 -0.01,-4.30235 1.0307,-8.00529 -3.1115,1.63952 -10.1477,2.1111 -12.2313,-0.8933 -2.2475,-3.24077 1.0774,-10.20681 4.3977,-7.21507 2.466,2.2218 7.0649,4.09717 8.4521,5.87514 2.119,-7.57516 4.6771,-17.98903 0.5152,-28.035702 -9.6314,-23.250386 -11.3747,-23.21429 -20.6957,-24.737376 -20.3552,-3.839122 -42.9514,7.94019 -55.887,22.401072 z m 76.0675,30.372006 c -0.2257,0.80692 -0.4117,1.4947 -0.6185,2.23323 0.2449,-0.12901 0.4955,-0.26982 0.6872,-0.4123 0.5045,-0.60126 0.4119,-1.20481 -0.068,-1.82093 l -7e-4,0 z m -14.5676,-24.77174 c 1.573,-0.032 3.1315,1.044 3.5044,2.50808 0.4275,1.67295 -0.8081,3.54058 -2.5769,3.95111 -1.7686,0.41057 -3.7654,-0.73178 -4.1915,-2.40502 -0.4275,-1.67293 0.8081,-3.57492 2.5768,-3.98545 0.2211,-0.0513 0.4624,-0.0642 0.6872,-0.0687 l 0,-2e-5 z"
       sodipodi:nodetypes="csssccsssccscscscscsssssscscsscsccccccccsssscc" />
    <path
       id="super-elephant"
       style="fill-opacity:1;fill-rule:evenodd;stroke:#000000;stroke-width:4.12289715;stroke-linecap:butt;stroke-linejoin:round;stroke-miterlimit:4;stroke-opacity:1;stroke-dasharray:none"
       d="m 1833.951,126.76915 c 1.9606,-2.33635 -5.1795,-4.7102 -8.4999,-7.70195 -3.3206,-2.99174 -6.6592,3.96439 -4.4116,7.20517 2.2474,3.24078 10.2848,2.45017 12.9115,0.49678 z m -11.1164,-24.10341 c 0.4275,1.67295 -0.7929,3.56913 -2.5616,3.97966 -1.7684,0.41056 -3.7663,-0.73873 -4.1923,-2.41197 -0.4276,-1.67295 0.7927,-3.56911 2.5613,-3.97964 1.7688,-0.410489 3.7664,0.73872 4.1926,2.41195 z m 9.4103,36.50695 c -3.6525,-7.24223 8.9834,-25.77063 2.1555,-42.253369 -9.6314,-23.250393 -13.3495,-23.221103 -22.6705,-24.74419 -18.2669,-2.984835 -39.9482,4.313167 -53.9045,22.39897 -4.5387,5.881559 4.2059,21.343659 7.5607,26.261789 7.676,11.2534 15.5856,17.18075 26.9755,12.13055 6.8785,-3.04981 9.9621,-25.49919 9.9621,-25.49919 0,0 -3.2343,22.1118 -9.8386,25.33654 -11.9074,6.27158 -22.7341,-1.66541 -32.1109,-21.01136 -4.3724,3.7813 -4.786,45.36949 -2.4521,45.37468 l 50.5288,0.11237 c 1.8638,0.004 -2.5435,-14.36687 -2.2753,-16.55477 0.7213,-5.88486 4.0392,-11.26618 9.2611,-8.41792 5.2221,2.84826 9.2692,12.34159 14.9505,15.14158 3.5,1.72501 14.0005,4.68782 22.9127,-9.1118 8.9124,-13.79962 -13.7733,-43.498579 -3.765,-49.657629 3.0495,-1.87661 5.1482,1.39519 5.6138,-0.46859 0.4655,-1.86377 0.8485,-2.735859 -0.4867,-4.512525 -1.2594,-1.675788 4.4253,-11.57814 -9.4021,-0.195513 -13.8274,11.382648 10.1064,41.939137 2.6941,50.688297 -1.9757,5.76265 -12.0566,12.22431 -15.7091,4.98208 z"
       sodipodi:nodetypes="cssccsssccssssscccssssszszzzcz" />
  </g>
</svg>
