<?xml version="1.0"?>
<svg
     xmlns="http://www.w3.org/2000/svg"
     xmlns:xlink="http://www.w3.org/1999/xlink">

    <!-- FILLS -->

    <g id="fill-white">
        <rect x="-20" y="-20"
              width="40" height="40"
              fill="white"
              stroke="none" />
    </g>

    <g id="fill-yellow">
        <g transform="scale(0.7)">
            <path d="M -40 -20 l 40 40
                 M -35 -20 l 40 40 M -30 -20 l 40 40
                 M -25 -20 l 40 40 M -20 -20 l 40 40
                 M -15 -20 l 40 40 M -10 -20 l 40 40
                 M -5  -20 l 40 40 M 0   -20 l 40 40
                 M 5   -20 l 40 40 M 10  -20 l 40 40"
              fill="none"
              stroke="#ffff00"
              stroke-width="1.5pt" />
        </g>
    </g>

    <g id="fill-purple">
        <g transform="scale(0.7)">
            <rect x="-20" y="-20"
                  width="40" height="40"
                  fill="#660066"
                  stroke="none" />
            <path d="M -40 -20 l 40 40
                 M -35 -20 l 40 40 M -30 -20 l 40 40
                 M -25 -20 l 40 40 M -20 -20 l 40 40
                 M -15 -20 l 40 40 M -10 -20 l 40 40
                 M -5  -20 l 40 40 M 0   -20 l 40 40
                 M 5   -20 l 40 40 M 10  -20 l 40 40"
              fill="none"
              stroke="white"
              stroke-width="0.7pt" />
        </g>
    </g>

    <g id="fill-clear">
        <g transform="scale(0.7)">
            <path d="M -10.5 -20 l 0 40 M -7.5  -20 l 0 40
                 M -1.5  -20 l 0 40 M 1.5   -20 l 0 40
                 M -4.5  -20 l 0 40 M 4.5   -20 l 0 40
                 M  7.5  -20 l 0 40 M 10.5  -20 l 0 40"
              fill="none"
              stroke="#cccccc"
              stroke-width="0.85pt" />
        </g>
    </g>

    <g id="fill-blue">
        <g transform="scale(0.7)">
            <rect x="-20" y="-20"
              width="40" height="40"
              fill="#0000ff"
              stroke="none" />
            <path d="M -10.5 -20 l 0 40 M -7.5  -20 l 0 40
                 M -1.5  -20 l 0 40 M 1.5   -20 l 0 40
                 M -4.5  -20 l 0 40 M 4.5   -20 l 0 40
                 M  7.5  -20 l 0 40 M 10.5  -20 l 0 40"
              fill="none"
              stroke="white"
              stroke-width="0.7pt" />
        </g>
    </g>

    <g id="fill-teal">
        <g transform="scale(0.7)">
            <path d="M -10.5 -20 l 0 40 M -7.5  -20 l 0 40
                 M -1.5  -20 l 0 40 M 1.5   -20 l 0 40
                 M -4.5  -20 l 0 40 M 4.5   -20 l 0 40
                 M  7.5  -20 l 0 40 M 10.5  -20 l 0 40
                 M -20 -1.5 l 40 0 M -20  1.5 l 40 0
                 M -20 -4.5 l 40 0 M -20  4.5 l 40 0
                 M -20 -7.5 l 40 0 M -20  7.5 l 40 0
                 M -20 -10.5 l 40 0 M -20  10.5 l 40 0"
              fill="none"
              stroke="#008888"
              stroke-width="0.85pt" />
        </g>
    </g>

    <g id="fill-red">
        <g transform="scale(0.7)">
            <rect x="-20" y="-20"
              width="40" height="40"
              fill="#ff0000"
              stroke="none" />
            <path d="M -10.5 -20 l 0 40 M -7.5  -20 l 0 40
                 M -1.5  -20 l 0 40 M 1.5   -20 l 0 40
                 M -4.5  -20 l 0 40 M 4.5   -20 l 0 40
                 M  7.5  -20 l 0 40 M 10.5  -20 l 0 40
                 M -20 -1.5 l 40 0 M -20  1.5 l 40 0
                 M -20 -4.5 l 40 0 M -20  4.5 l 40 0
                 M -20 -7.5 l 40 0 M -20  7.5 l 40 0
                 M -20 -10.5 l 40 0 M -20  10.5 l 40 0"
              fill="none"
              stroke="white"
              stroke-width="0.7pt" />
        </g>
    </g>

    <g id="fill-green">
        <g transform="scale(0.7)">
            <path d="M -40 -20 l 40 40
                 M -35 -20 l 40 40 M -30 -20 l 40 40
                 M -25 -20 l 40 40 M -20 -20 l 40 40
                 M -15 -20 l 40 40 M -10 -20 l 40 40
                 M -5  -20 l 40 40 M 0   -20 l 40 40
                 M 5   -20 l 40 40 M 10  -20 l 40 40
                 M -40 20 l 40 -40
                 M -35 20 l 40 -40 M -30 20 l 40 -40
                 M -25 20 l 40 -40 M -20 20 l 40 -40
                 M -15 20 l 40 -40 M -10 20 l 40 -40
                 M -5  20 l 40 -40 M 0   20 l 40 -40
                 M 5   20 l 40 -40 M 10  20 l 40 -40"
              fill="none"
              stroke="#00cc00"
              stroke-width="0.85pt" />
        </g>
    </g>

    <g id="fill-orange">
        <g transform="scale(0.7)">
            <rect x="-20" y="-20"
              width="40" height="40"
              fill="#ff8800"
              stroke="none" />
            <path d="M -40 -20 l 40 40
                 M -35 -20 l 40 40 M -30 -20 l 40 40
                 M -25 -20 l 40 40 M -20 -20 l 40 40
                 M -15 -20 l 40 40 M -10 -20 l 40 40
                 M -5  -20 l 40 40 M 0   -20 l 40 40
                 M 5   -20 l 40 40 M 10  -20 l 40 40
                 M -40 20 l 40 -40
                 M -35 20 l 40 -40 M -30 20 l 40 -40
                 M -25 20 l 40 -40 M -20 20 l 40 -40
                 M -15 20 l 40 -40 M -10 20 l 40 -40
                 M -5  20 l 40 -40 M 0   20 l 40 -40
                 M 5   20 l 40 -40 M 10  20 l 40 -40"
              fill="none"
              stroke="white"
              stroke-width="0.85pt" />
        </g>
    </g>

    <g id="fill-black">
        <rect x="-20" y="-20"
              width="40" height="40"
              fill="black"
              stroke="none" />
    </g>

    <!-- PLAYER -->

    <g id="player">
        <path
            d="m 0.01576969,-4.1541865 c 0.17167817,0 1.26706091,2.5127551 1.40595171,2.613665 0.1388905,0.1009099 2.8671549,0.3661969 2.9202065,0.529473 C 4.3949789,-0.84777281 2.3436988,0.97048209 2.2906475,1.1337581 2.2375955,1.2970338 2.8283728,3.9737455 2.6894823,4.0746554 2.5505915,4.1755656 0.18744786,2.7865533 0.01576934,2.7865533 c -0.17167814,0 -2.53482214,1.389012 -2.67371264,1.2881021 -0.1388909,-0.1009099 0.4518864,-2.7776219 0.3988348,-2.9408976 -0.053052,-0.16327571 -2.104332,-1.98153101 -2.0512804,-2.1448067 0.053052,-0.1632757 2.781316,-0.4285627 2.9202065,-0.5294726 0.1388908,-0.1009099 1.2342736,-2.613665 1.40595209,-2.613665 z"
            stroke-width="0.5pt"
            stroke="black"
            fill="none"
        />
    </g>

    <clipPath id="clip-path-player">
        <use xlink:href="#player"/>
    </clipPath>

    <rect id="bounding-box-player"
          x="-5" y="-5" width="10" height="10" />










    <!-- SIMPLE PIECES -->

    <g id="circle">
        <circle
            cx="0" cy="0"
            r="4"
            stroke-width="0.5pt"
            stroke="black"
            fill="none"
        />
    </g>

    <clipPath id="clip-path-circle">
        <use xlink:href="#circle"/>
    </clipPath>

    <rect id="bounding-box-circle"
          x="-5" y="-5" width="10" height="10" />

    <g id="double-circle">
        <path
            d="m 2.0050612,-0.00747652 c 0,1.11202662 -0.9014753,2.01350372 -2.01350308,2.01350372 -1.11202562,0 -2.01349932,-0.9014771 -2.01349932,-2.01350372 0,-1.11202558 0.9014737,-2.01350078 2.01349932,-2.01350078 1.11202778,0 2.01350308,0.9014752 2.01350308,2.01350078 z m 3.1013337,0 c 0,-2.82484238 -2.2899892,-5.11483168 -5.11483678,-5.11483168 -2.82484302,0 -5.11483402,2.2899893 -5.11483402,5.11483168 0,2.82484642 2.289991,5.11483572 5.11483402,5.11483572 2.82484758,0 5.11483678,-2.2899893 5.11483678,-5.11483572 z"
            stroke-width="0.5pt"
            stroke="black"
            fill="none"
        />
    </g>

    <clipPath id="clip-path-double-circle">
        <use xlink:href="#double-circle"/>
    </clipPath>

    <rect id="bounding-box-double-circle"
          x="-6" y="-6" width="12" height="12" />

    <g id="triple-circle">
        <path
            d="m 1.0426893,-0.00747582 c 0,0.58052301 -0.47060667,1.05113062 -1.05113028,1.05113062 -0.58052248,0 -1.05112832,-0.47060761 -1.05112832,-1.05113062 0,-0.58052246 0.47060584,-1.05112908 1.05112832,-1.05112908 0.58052361,0 1.05113028,0.47060662 1.05113028,1.05112908 z m 1.7217531,-1.25e-6 c 0,1.53142157 -1.2414619,2.77288587 -2.77288499,2.77288587 -1.53142011,0 -2.77287981,-1.2414643 -2.77287981,-2.77288587 0,-1.53142013 1.2414597,-2.77288183 2.77287981,-2.77288183 1.53142309,0 2.77288499,1.2414617 2.77288499,2.77288183 z m 2.3419525,5.5e-7 c 0,-2.82484238 -2.2899892,-5.11483168 -5.11483678,-5.11483168 -2.82484302,0 -5.11483402,2.2899893 -5.11483402,5.11483168 0,2.82484642 2.289991,5.11483572 5.11483402,5.11483572 2.82484758,0 5.11483678,-2.2899893 5.11483678,-5.11483572 z"
            stroke-width="0.5pt"
            stroke="black"
            fill="none"
        />
    </g>

    <clipPath id="clip-path-triple-circle">
        <use xlink:href="#triple-circle"/>
    </clipPath>

    <rect id="bounding-box-triple-circle"
          x="-6" y="-6" width="12" height="12" />









    <!-- DIRECTIONAL PIECES -->

    <g id="east">
        <path
              d="m -4 -1.5 l 0 3 l 4 0 l 0 3 l 4.5 -4.5 l -4.5 -4.5 l 0 3 z"
              fill="none"
              stroke="black"
              stroke-width="0.5pt" />
    </g>

    <clipPath id="clip-path-north">
        <use xlink:href="#north"/>
    </clipPath>

    <rect id="bounding-box-north"
          x="-5" y="-5" width="10" height="10" />

    <g id="north">
        <g transform="rotate(-90)">
            <use xlink:href="#east" />
        </g>
    </g>

    <clipPath id="clip-path-east">
        <use xlink:href="#east"/>
    </clipPath>

    <rect id="bounding-box-east"
          x="-5" y="-5" width="10" height="10" />

    <g id="west">
        <g transform="rotate(-180)">
            <use xlink:href="#east" />
        </g>
    </g>

    <clipPath id="clip-path-south">
        <use xlink:href="#south"/>
    </clipPath>

    <rect id="bounding-box-south"
          x="-5" y="-5" width="10" height="10" />

    <g id="south">
        <g transform="rotate(-270)">
            <use xlink:href="#east" />
        </g>
    </g>

    <clipPath id="clip-path-west">
        <use xlink:href="#west"/>
    </clipPath>

    <rect id="bounding-box-west"
          x="-5" y="-5" width="10" height="10" />








    <!-- STACKING PIECES -->

    <g id="small">
        <rect
            x="-4" y="-4"
            width="8" height="8"
            stroke-width="0.7pt"
            stroke="black"
            fill="none"
        />
    </g>

    <clipPath id="clip-path-small">
        <use xlink:href="#small"/>
    </clipPath>

    <rect id="bounding-box-small"
          x="-5" y="-5" width="10" height="10" />


    <g id="medium">
        <rect
            x="-9" y="-4"
            width="18" height="8"
            stroke-width="0.7pt"
            stroke="black"
            fill="none"
        />
    </g>

    <clipPath id="clip-path-medium">
        <use xlink:href="#medium"/>
    </clipPath>

    <rect id="bounding-box-medium"
          x="-10" y="-5" width="20" height="10" />

    <g id="large">
        <rect
            x="-14" y="-4"
            width="28" height="8"
            stroke-width="0.7pt"
            stroke="black"
            fill="none"
        />
    </g>

    <clipPath id="clip-path-large">
        <use xlink:href="#large"/>
    </clipPath>

    <rect id="bounding-box-large"
          x="-15" y="-5" width="30" height="10" />










    <!-- CHESS PIECES -->

    <g id="bishop">
        <g transform="scale(1.5)">
        <path
       d="m 1.6559879,0.97977318 0.243206,0.93634612 c -9e-6,0.283742 -0.287804,0.449932 -0.863383,0.498573 0.421549,0.162138 0.814733,0.243208 1.179552,0.243208 0.048633,0 0.287784,-0.012161 0.717459,-0.036482 0.356694,0 0.648541,0.186459 0.875544,0.559377 0.032417,0.064854 0.072953,0.137815 0.121603,0.218885 l -0.437771,0.668816 c -0.129721,0.162139 -0.267538,0.267529 -0.41345,0.316169 -0.03244,-0.170243 -0.291859,-0.275633 -0.778261,-0.316169 l -0.291849,-0.024319 c -0.997157,-0.081069 -1.67002889,-0.295901 -2.01861289,-0.644497 -0.316179,0.332381 -0.798539,0.522893 -1.44707911,0.571534 -0.145924,0.016215 -0.336436,0.040535 -0.571536,0.072963 -0.591803,0.04864 -0.936346,0.133763 -1.033627,0.255367 -0.016214,0.024319 -0.028375,0.052694 -0.036482,0.085121 -0.210776,-0.089175 -0.409397,-0.291848 -0.595855,-0.608015 -0.072963,-0.12971 -0.158084,-0.255367 -0.255367,-0.37697 0.218886,-0.405344 0.453985,-0.64855 0.705298,-0.72962 0.089178,-0.032428 0.186459,-0.048642 0.291848,-0.048642 0,0 0.239153,0.01216 0.71746,0.036482 0.372916,0 0.766099,-0.08107 1.1795511,-0.243208 -0.5755881,-0.048641 -0.8633821,-0.214831 -0.8633821,-0.498573 0,-0.02432 0.064855,-0.231044 0.194565,-0.620176 0.040533,-0.1297111 0.060802,-0.2188871 0.060802,-0.2675271 -0.494521,-0.59990902 -0.74178,-1.13091102 -0.74178,-1.59300302 0,-0.53505488 0.263473,-1.02146788 0.79042,-1.45923898 0.4701901,-0.3972388 0.81067911,-0.6080168 1.02146711,-0.6323368 -0.178361,-0.218886 -0.267536,-0.44588 -0.267527,-0.680979 -9e-6,-0.381023 0.190503,-0.616122 0.571537,-0.705299 0.089165,-0.024311 0.182394,-0.03647 0.279687,-0.03648 0.405332,10e-6 0.66880701,0.149978 0.79041898,0.449931 l 0.060802,0.255367 0,0.036481 c -9e-6,0.226993 -0.089186,0.453985 -0.26752595,0.680979 0.15401998,0.040534 0.38506599,0.166192 0.69313896,0.37697 0.745823,0.5188389 1.11874,1.0903759 1.118749,1.71460578 -9e-6,0.4702 -0.243217,0.984986 -0.72962,1.54436 m -1.44707696,-1.130908 0,-0.559374 0.42561001,0 0,-0.46209588 -0.42561001,0 0,-0.522894 -0.437772,0 0,0.522894 -0.425612,0 0,0.46209588 0.425612,0 0,0.559374 0.437772,0 m -0.218886,-3.42921278 c -0.162148,0 -0.263485,0.072961 -0.30401,0.218887 l -0.012158,0.07296 c -1.1e-5,0.154031 0.081058,0.251314 0.243206,0.291849 0.02431,0.00811 0.04863,0.012159 0.072962,0.012159 0.202661,0 0.303998,-0.101335 0.304008,-0.304008 -1e-5,-0.194566 -0.101347,-0.291847 -0.304008,-0.291847"
              fill="none"
              stroke="black"
              stroke-width="0.3pt" />
        </g>
    </g>

    <clipPath id="clip-path-bishop">
        <use xlink:href="#bishop"/>
    </clipPath>

    <rect id="bounding-box-bishop"
          x="-7.5" y="-7.5" width="15" height="15" />

    <g id="knight">
        <g transform="scale(1.5)">
        <path
       d="m -2.1078481,-0.41756082 c 0.215165,0 0.443242,-0.124798 0.684228,-0.37438997 0.1291,-0.12909894 0.1936501,-0.24098691 0.1936501,-0.33565991 0,-0.111888 -0.1032801,-0.167831 -0.3098401,-0.167831 -0.240985,0 -0.443242,0.107584 -0.606768,0.32274997 -0.086069,0.10328097 -0.1291,0.21086394 -0.1291,0.32275191 0,0.154919 0.055942,0.232379 0.16783,0.232379 m -0.154921,-2.13014768 c 0,-0.146315 -0.081764,-0.69714 -0.06455,-0.69714 0.017214,0 0.060246,-0.0043 0.1291,-0.012911 0.387301,0 0.800419,0.129102 1.23935911,0.387302 0.051639,0.034427 0.077461,0.051639 0.077461,0.051639 0.249592,-0.404514 0.438938,-0.60677 0.568038,-0.60677 0.275413,0.15492 0.456155,0.32275 0.54222,0.50349 0.043034,0.086068 0.107584,0.266806 0.19365,0.54222 0.068853,-0.017215 0.137706,-0.025819 0.20656001,-0.025819 0.72295888,0 1.41149088,0.443242 2.06559888,1.3297278 0.783206,1.02419288 1.174809,2.418469 1.174809,4.182835 0,0.395907 -0.017213,0.753082 -0.051639,1.07153 l -5.448018,0 c 0.017215,-0.576647 0.228076,-1.123169 0.63259011,-1.63957 0.043034,-0.068853 0.10328,-0.146312 0.18074,-0.232379 0.318447,-0.404512 0.512096,-0.714352 0.58095,-0.92952 0.034426,-0.1118851 0.060246,-0.2280761 0.07746,-0.3485691 -0.56804,0.223773 -0.99407001,0.5551301 -1.27809011,0.9940701 -0.1291,0.215165 -0.271108,0.43894 -0.42603,0.671319 -0.043034,0.068854 -0.107584,0.103281 -0.193649,0.103281 -0.215166,0 -0.322749,-0.133403 -0.322749,-0.40021 -0.086069,0.111886 -0.185045,0.16783 -0.29693,0.16783 0,0 -0.086068,-0.021518 -0.2582,-0.06455 -0.370086,-0.094675 -0.632589,-0.258201 -0.787511,-0.490581 -0.051639,-0.077459 -0.107582,-0.180739 -0.16783,-0.309838 0.060248,-0.370088 0.357178,-1.10595712 0.890791,-2.20761012 0.3873,-0.79181288 0.628287,-1.35985168 0.72296,-1.70411668 0.00861,-0.07746 0.012909,-0.189345 0.012909,-0.33566 z m -0.839149,3.8342658 c -0.20656,0 -0.344267,0.090369 -0.41312,0.27111 -0.017213,0.043033 -0.02582,0.086066 -0.02582,0.1291 0,0.034426 0.012909,0.07746 0.03873,0.129099 0.223773,0 0.36148,-0.094673 0.413119,-0.284018 0.00861,-0.02582 0.012911,-0.055945 0.012911,-0.09037 0,-0.017214 -0.00861,-0.068853 -0.02582,-0.154921"
              fill="none"
              stroke="black"
              stroke-width="0.3pt" />
        </g>
    </g>

    <clipPath id="clip-path-knight">
        <use xlink:href="#knight"/>
    </clipPath>

    <rect id="bounding-box-knight"
          x="-7.5" y="-7.5" width="15" height="15" />

    <g id="king">
        <g transform="scale(1.5)">
        <path
       d="m 2.6172069,4.1783953 -5.2543662,0 c -0.00861,-0.550826 -0.09037,-1.841405 -0.2452898,-2.271738 -0.094673,-0.232379 -0.275413,-0.529309 -0.5422196,-0.8907891 -0.3356596,-0.45615402 -0.5034896,-0.86066602 -0.5034896,-1.21354002 0,-0.55082597 0.2366833,-0.97685488 0.7100495,-1.27808788 0.2668064,-0.172133 0.5637361,-0.258199 0.8907893,-0.258199 0.4475462,0 0.8735761,0.163527 1.2780893,0.490578 0,-0.395905 0.03873,-0.667015 0.11619011,-0.813327 0.060246,-0.163528 0.2581991,-0.361482 0.5938591,-0.593861 l 0,-0.29693 -0.5293091,-0.32275 0,-0.46476 0.4776691,0 0.15492,-0.477668 0.438939,0 0.16783,0.477668 0.46475895,0 0,0.46476 -0.51639895,0.32275 0,0.29693 c 0.32705301,0.240986 0.52930895,0.447546 0.60676892,0.61968 l 0.09037,0.374388 c 0.00861,0.10328 0.017214,0.240988 0.02582,0.41312 0.404513,-0.327051 0.821937,-0.490578 1.252271,-0.490578 0.576645,0 1.024192,0.219469 1.342638,0.658408 0.180741,0.25819994 0.27111,0.55082588 0.27111,0.87787888 0,0.352874 -0.16783,0.761689 -0.50349,1.22644802 l -0.29693,0.4131221 c -0.486705,0.393926 -0.384507,2.66248 -0.490579,2.736497 z"
              fill="none"
              stroke="black"
              stroke-width="0.3pt" />
        </g>
    </g>

    <clipPath id="clip-path-king">
        <use xlink:href="#king"/>
    </clipPath>

    <rect id="bounding-box-king"
          x="-7.5" y="-7.5" width="15" height="15" />

    <g id="queen">
        <g transform="scale(1.5)">
        <path
       d="m 0.01962721,-3.8557671 c -0.35183,0 -0.6375,0.28255 -0.6375,0.63438 0,0.35183 0.28567,0.6375001 0.6375,0.6375001 0.35183,0 0.63437997,-0.2856701 0.63437997,-0.6375001 0,-0.35183 -0.28254997,-0.63438 -0.63437997,-0.63438 z m -1.89061991,0.39688 c -0.35183,0 -0.6375,0.28567 -0.6375,0.6375 0,0.3518301 0.28567,0.6375001 0.6375,0.6375001 0.35182,0 0.6375,-0.28567 0.6375,-0.6375001 0,-0.35183 -0.28568,-0.6375 -0.6375,-0.6375 z m 3.7875,0 c -0.35183,0 -0.6375,0.28567 -0.6375,0.6375 0,0.3518301 0.28567,0.6375001 0.6375,0.6375001 0.35182,0 0.6375,-0.28567 0.6375,-0.6375001 0,-0.35183 -0.28568,-0.6375 -0.6375,-0.6375 z m -1.96250009,0.9468701 c 0,0.001 0,0.002 0,0.003 0.18958,1.08214 -0.44498,1.82819 -0.58125,2.9 -0.31755,-0.70327 -1.10094991,-1.69214 -1.03749991,-2.6 l -0.14688,0.0312 c 0.30411,0.84832 -0.0889,2.10806 -0.15937,2.78438 -0.50462,-0.48352 -0.90684,-0.67002 -1.11563,-1.6125 l -0.0594,0.0219 c 0.2265,-0.0977 0.38437,-0.32205 0.38437,-0.58437 0,-0.35183 -0.28567,-0.6375 -0.6375,-0.6375 -0.35183,0 -0.6375,0.28567 -0.6375,0.6375 0,0.35182 0.28567,0.63749002 0.6375,0.63749002 0.066,0 0.13078,-0.009 0.19063,-0.0281 l -0.0219,0.009 c 0.4586,0.78179998 -0.13099,1.42206998 0.0563,2.14374998 0.18725,0.7216799 0.8215,1.4705499 0.66875,2.2781199 -0.0315,0.17214 -0.0469,0.52403 -0.0469,0.65313 l 5.15,0 c -1e-5,-0.1291 -0.0153,-0.48099 -0.0469,-0.65313 -0.15275,-0.80757 0.48151,-1.55644 0.66875,-2.2781199 0.18694,-0.72051 -0.40134,-1.36055 0.0531,-2.14061998 0.0455,0.0103 0.092,0.0156 0.14062,0.0156 0.35183,0 0.6375,-0.28567002 0.6375,-0.63750002 0,-0.35183 -0.28567,-0.6375 -0.6375,-0.6375 -0.35183,0 -0.6375,0.28567 -0.6375,0.6375 0,0.24921 0.14461,0.46407 0.35313,0.56875 -0.20922,0.93646998 -0.606,1.12392998 -1.10938,1.60624998 -0.0705,-0.67631 -0.46661,-1.93604998 -0.1625,-2.78436998 l -0.14687,-0.0312 c 0.0634,0.90737 -0.71651002,1.89678998 -1.0343801,2.59999998 -0.13613999,-1.07208 -0.77397999,-1.81768998 -0.58436999,-2.90000998 0,-10e-4 0,-0.002 0,-0.003 l -0.0687,0.003 -0.0688,-0.003 z"
              fill="none"
              stroke="black"
              stroke-width="0.3pt" />
        </g>
    </g>

    <clipPath id="clip-path-queen">
        <use xlink:href="#queen"/>
    </clipPath>

    <rect id="bounding-box-queen"
          x="-7.5" y="-7.5" width="15" height="15" />

    <g id="rook">
        <g transform="scale(1.5)">
        <path
       d="m 3.2239759,4.1783953 -6.467904,0 0,-1.116609 1.303908,-1.290999 0,-2.56908709 -1.006977,-0.99406881 0,-1.4270583 0.161479,-0.083412 1.148988,0.019472 0,0.922749 0.89057911,0 0,-0.922749 1.47194998,0 0,0.922749 0.89057991,0 0,-0.922749 1.148988,-0.019472 0.16148,0.052184 0,1.4582856 -1.006978,0.99406881 0,2.56908709 1.303907,1.290999 0,1.116609 z"
              fill="none"
              stroke="black"
              stroke-width="0.3pt" />
        </g>
    </g>

    <clipPath id="clip-path-rook">
        <use xlink:href="#rook"/>
    </clipPath>

    <rect id="bounding-box-rook"
          x="-7.5" y="-7.5" width="15" height="15" />

    <g id="pawn">
        <g transform="scale(1.5)">
        <path
       d="m -2.2067886,4.1783953 c -0.00685,-0.082316 -0.010288,-0.243519 -0.010288,-0.483608 0,-0.864319 0.267528,-1.505699 0.802581,-1.924138 0.1577731,-0.130334 0.3498361,-0.250378 0.57621411,-0.360133 C -1.1058085,1.3281993 -1.2875896,1.1258392 -1.3836256,0.80343418 c -0.027439,-0.102895 -0.041158,-0.20922 -0.041158,-0.318975 0,-0.459599 0.2366591,-0.785432 0.70997561,-0.977504 -0.1234825,-0.20579 -0.1852195,-0.40129094 -0.1852105,-0.58650188 -9e-6,-0.308685 0.1509045,-0.5384842 0.4527385,-0.6893975 0.137184,-0.068597 0.284668,-0.1028961 0.442449,-0.1028961 0.342976,0 0.596783,0.1337646 0.76142398,0.4012926 0.075447,0.116614 0.11317697,0.246948 0.11318497,0.391001 -8e-6,0.19893094 -0.058316,0.39443088 -0.17492294,0.58650188 0.25380091,0.102895 0.43558188,0.240089 0.54534488,0.41158 0.109746,0.185212 0.164623,0.373852 0.164634,0.565924 -1.1e-5,0.356702 -0.123485,0.62766002 -0.370424,0.81287112 -0.061746,0.054878 -0.13034294,0.092606 -0.20579094,0.113186 0.63108194,0.322404 1.03923394,0.744275 1.22445294,1.26561 0.096027,0.288106 0.144044,0.627659 0.144052,1.018661 -8e-6,0.240089 -0.00344,0.401292 -0.010288,0.483608 l -4.3936245,0"
              fill="none"
              stroke="black"
              stroke-width="0.3pt" />
        </g>
    </g>

    <clipPath id="clip-path-pawn">
        <use xlink:href="#pawn"/>
    </clipPath>

    <rect id="bounding-box-pawn"
          x="-7.5" y="-7.5" width="15" height="15" />










    <!-- CHINESE CHESS PIECES -->

    <!-- rook == chess rook -->

    <rect id="bounding-box-elephant"
          x="-7.5" y="-7.5" width="15" height="15" />

    <g id="elephant">
        <g transform="scale(1.5)">
        <path
       d="m 3.5408119,0.85337518 c 0.185515,-0.206265 -0.456141,-0.444313 -0.748647,-0.72662 -0.292507,-0.282306 -0.617687,0.339612 -0.423482,0.641212 0.1942,0.30159902 0.927269,0.25478902 1.172129,0.085408 z M 2.6054459,-1.3723267 c 0.033645,0.153406 -0.083187,0.321969 -0.245244,0.353773 -0.162052,0.031805 -0.340063,-0.078893 -0.373585,-0.232323 -0.033645,-0.153405 0.083187,-0.3219684 0.245239,-0.3537734 0.162058,-0.031804 0.340068,0.078894 0.37359,0.2323234 z m 0.754082,2.984281 c 0.354139,-0.4361121 0.884484,-1.95098712 0.315197,-3.4705888 -0.803036,-2.1435335 -1.504705,-2.1649308 -2.347262,-2.3324407 -1.65118689,-0.3282738 -3.8808533,0.2594445 -5.2058993,1.8599712 -0.430911,0.5204979 0.315791,1.95329518 0.60541,2.41082218 0.662691,1.04688602 1.363213,1.61035312 2.41432111,1.18678702 0.6347613,-0.255791 0.9850553,-2.2868719 0.9850553,-2.2868719 0,0 -0.362937,1.99992388 -0.9733283,2.2724719 0.5699433,0.7285221 0.4676073,1.2384601 1.2197993,0.7627071 0.52487795,-0.347419 1.00193789,-0.9909621 1.46775389,-0.71577 0.465812,0.275192 -0.729652,1.273583 -0.587315,1.917769 0.142337,0.644186 0.547795,1.147062 1.06609,1.165564 0.518296,0.018502 0.780175,-0.075095 1.032497,-0.281002 0.252328,-0.205906 0.577522,-0.426546 0.625647,-0.594516 0.048125,-0.16797 -0.053782,-0.36934 -0.238957,-0.316812 -0.185179,0.052528 -0.461642,0.471465 -0.725539,0.50628 -0.263893,0.034815 -0.558072,-0.134881 -0.668342,-0.540953 -0.110269,-0.406072 0.646044,-1.089213 1.014872,-1.543418 z"
              fill="none"
              stroke="black"
              stroke-width="0.3pt" />
        </g>
    </g>

    <clipPath id="clip-path-elephant">
        <use xlink:href="#elephant"/>
    </clipPath>

    <rect id="bounding-box-cannon"
          x="-7.5" y="-7.5" width="15" height="15" />

    <g id="cannon">
        <g transform="scale(1.5)">
        <path
       d="m 0.87707496,1.0264392 c 0.48715994,0.5030411 0.47483994,1.3061931 -0.0275,1.7938901 -0.50233995,0.487697 -1.30448995,0.47526 -1.79164025,-0.02778 -0.48716011,-0.503041 -0.47484011,-1.306193 0.02751,-1.79389112 0.5023403,-0.487696 1.3044803,-0.475259 1.79163025,0.027781 z M 1.5943149,0.33017518 c 0.87129,0.89967402 0.84926,2.33609012 -0.0492,3.20832312 -0.89845988,0.872234 -2.33311989,0.849989 -3.2044203,-0.049685 -0.871283,-0.899674 -0.849258,-2.3360901 0.04921,-3.20832412 0.89845041,-0.872233 2.33312039,-0.849988 3.2044103,0.049686 z m 1.15311,-4.12809508 c 0.0044,-0.00284 -3.33126989,1.8455841 -4.2645903,2.5147872 -2.697262,1.93399088 -2.521071,3.220464 -0.79805,4.375231 l -0.914429,0.939926 0.620706,0 0.739863,-0.762477 0.01662,-0.01109 c -0.666944,-0.900014 -0.584272,-2.1765591 0.24108,-2.97781812 0.88068041,-0.854971 2.27792042,-0.850591 3.1534103,-0.00277 l 2.02007,-3.23567518 -0.81468,-0.840112 z"
              fill="none"
              stroke="black"
              stroke-width="0.3pt" />
        </g>
    </g>

    <clipPath id="clip-path-cannon">
        <use xlink:href="#cannon"/>
    </clipPath>










    <!-- FAIRY CHESS PIECES -->

    <!-- knight rider = knight with extra movement -->

    <rect id="bounding-box-knightrider"
          x="-7.5" y="-7.5" width="15" height="15" />

    <g id="knightrider">
        <g transform="scale(1.5)">
        <path
       d="m 2.0878959,1.2931173 c -0.215165,0 -0.443242,0.124798 -0.684228,0.37439 -0.1291,0.129099 -0.19365,0.240987 -0.19365,0.33566 0,0.111888 0.10328,0.167831 0.30984,0.167831 0.240985,0 0.443242,-0.107584 0.606768,-0.32275 0.086069,-0.103281 0.1291,-0.210864 0.1291,-0.322752 0,-0.154919 -0.055942,-0.232379 -0.16783,-0.232379 m 0.219471,2.827288 c -0.017214,0 -0.060246,0.0043 -0.1291,0.012911 -0.387301,0 -0.800419,-0.129102 -1.23935897,-0.387301 -0.051639,-0.034427 -0.077461,-0.051639 -0.077461,-0.051639 -0.24959195,0.404513 -0.43893795,0.606769 -0.56803795,0.606769 -0.275413,-0.15492 -0.456155,-0.32275 -0.54222,-0.503489 -0.043034,-0.086068 -0.107584,-0.266806 -0.19365,-0.54222 -0.068853,0.017215 -0.137706,0.025819 -0.20656,0.025819 -0.72295908,0 -1.41149108,-0.443242 -2.06559908,-1.329729 -0.783206,-1.02419312 -1.174809,-2.41846912 -1.174809,-4.1828349 0,-0.395907 0.017213,-0.753082 0.051639,-1.07153 l 5.448018,0 c -0.017215,0.576647 -0.228076,1.123169 -0.63259,1.63957 -0.043034,0.068853 -0.10327997,0.1463119 -0.18073994,0.2323789 -0.31844698,0.404512 -0.51209598,0.71435191 -0.58094998,0.92951988 -0.034426,0.111885 -0.060246,0.228076 -0.07746,0.348569 0.56804001,-0.223773 0.99406992,-0.55513 1.27808992,-0.99406988 0.1291,-0.215165 0.271108,-0.4389399 0.42603,-0.6713189 0.043034,-0.068854 0.107584,-0.103281 0.193649,-0.103281 0.215166,0 0.322749,0.133403 0.322749,0.4002099 0.086069,-0.1118859 0.185045,-0.1678299 0.29693,-0.1678299 0,0 0.086068,0.021518 0.2582,0.06455 0.370086,0.094675 0.632589,0.2582009 0.787511,0.4905809 0.051639,0.077459 0.107582,0.18073897 0.16783,0.30983794 -0.060248,0.37008794 -0.357178,1.10595694 -0.890791,2.20761006 -0.3873,0.791813 -0.628287,1.359853 -0.72296,1.704118 -0.00861,0.07746 -0.012909,0.189345 -0.012909,0.33566 0,0.120493 0.021517,0.352872 0.06455,0.697139 m 0.774599,-4.53140612 c 0.20656,0 0.344267,-0.090369 0.41312,-0.27111 0.017213,-0.043033 0.02582,-0.086066 0.02582,-0.12909994 0,-0.034426 -0.012909,-0.07746 -0.03873,-0.12909897 -0.223773,0 -0.36148,0.094673 -0.413119,0.28401791 -0.00861,0.02582 -0.012911,0.055945 -0.012911,0.09037 0,0.017214 0.00861,0.068853 0.02582,0.154921"
              fill="none"
              stroke="black"
              stroke-width="0.3pt" />
        </g>
    </g>

    <clipPath id="clip-path-knightrider">
        <use xlink:href="#knightrider"/>
    </clipPath>

    <!-- archbishop = knight + bishop -->

    <rect id="bounding-box-archbishop"
          x="-7.5" y="-7.5" width="15" height="15" />

    <g id="archbishop">
        <g transform="scale(1.5)">
        <path
       d="m -3.4051056,0.32635718 c -0.180119,0 -0.300199,0.078791 -0.360238,0.236374 -0.01501,0.037519 -0.022515,0.075039 -0.022515,0.112559 0,0.030015 0.011257,0.067535 0.033772,0.112558 0.195129,0 0.315209,-0.082543 0.360238,-0.247628 0.00751,-0.022512 0.011258,-0.048777 0.011258,-0.078791 0,-0.015009 -0.00751,-0.060031 -0.022515,-0.135072 m 2.43106211,-4.10732178 c -0.11257401,0 -0.27610701,0.1754395 -0.49375011,0.528125 0,0 -0.023721,-0.013734 -0.06875,-0.04375 -0.382754,-0.225118 -0.743525,-0.340625 -1.08125,-0.340625 -0.017753,0.018533 -0.020689,0.465036 -0.05625,0.621875 0,0.1275683 -0.00186,0.2230896 -0.00937,0.290625 -0.082554,0.3001558 -0.293526,0.7971385 -0.63125,1.4874999 -0.465308,0.96050188 -0.725589,1.60232988 -0.778125,1.92499988 0.052536,0.112558 0.101846,0.201215 0.146875,0.26875 0.135091,0.20260602 0.364787,0.34558012 0.6875,0.42812512 0.150099,0.037518 0.225,0.05625 0.225,0.05625 0.097564,0 0.184323,-0.049325 0.259375,-0.146875 0,0.232622 0.093627,0.35 0.28125,0.35 0.075048,0 0.131225,-0.030593 0.16875,-0.090625 0.135091,-0.202605 0.259301,-0.3967781 0.371875,-0.58437512 0.247664,-0.3827 0.617172,-0.673648 1.11250011,-0.86875 -0.015011,0.105055 -0.035606,0.2087 -0.065625,0.30625 -0.06004,0.187599 -0.28799401,0.501384 -0.50625011,0.80937502 -0.218257,0.3079911 -0.720242,0.6935501 -0.525,0.6937501 0.424349,-0.017785 0.57626,0.405007 1.02500011,0.50313 -0.41345211,0.162138 -0.80833411,0.24375 -1.18125011,0.24375 l -0.715625,-0.034375 c -0.105389,0 -0.204572,0.014447 -0.29375,0.046875 -0.251313,0.08107 -0.484239,0.325906 -0.703125,0.73125 0.097283,0.121603 0.180162,0.24529 0.253125,0.375 0.186458,0.316167 0.386099,0.5202 0.596875,0.609375 0.00811,-0.032427 0.021286,-0.060056 0.0375,-0.084375 0.097281,-0.121604 0.439447,-0.20761 1.03125,-0.25625 0.2351,-0.032428 0.425951,-0.05566 0.571875,-0.071875 0.64853961,-0.048641 1.13069561,-0.239494 1.44687461,-0.571875 0.348584,0.348596 1.02159289,0.562681 2.01874989,0.64375 l 0.29375,0.025 c 0.486402,0.040536 0.745685,0.145382 0.778125,0.315625 0.145912,-0.04864 0.282779,-0.153486 0.4125,-0.315625 l 0.4375,-0.66875 c -0.04865,-0.08107 -0.089458,-0.153896 -0.121875,-0.21875 -0.227003,-0.372918 -0.518306,-0.559375 -0.875,-0.559375 -0.429675,0.024321 -0.670117,0.034375 -0.71875,0.034375 -0.364819,0 -0.541834,-0.135297 -0.963383,-0.297435 0.290516,0.00253 0.842486,-0.509421 1.158216,-0.49944 0,-1.53830512 -0.218132,-2.70078206 -0.901083,-3.5937501 -0.570379,-0.7729044 -1.17270789,-1.1593748 -1.80312489,-1.1593748 -0.06004,0 -0.118085,0.00687 -0.178125,0.021875 -0.075049,-0.2401265 -0.134349,-0.3968345 -0.171875,-0.471875 -0.075048,-0.1575826 -0.231716,-0.3024292 -0.4718745,-0.4375 l -5e-6,-5e-6 z m -1.56423811,2.6215509 c 0.187623,0 0.386505,-0.108808 0.596643,-0.326421 0.112575,-0.1125581 0.168862,-0.2101101 0.168862,-0.2926531 0,-0.097553 -0.090059,-0.1463281 -0.270179,-0.1463281 -0.210137,0 -0.386504,0.0938 -0.529098,0.2813981 -0.075052,0.090048 -0.112575,0.1838471 -0.112575,0.2813991 0,0.13507 0.048782,0.202605 0.146347,0.202605"
              fill="none"
              stroke="black"
              stroke-width="0.3pt" />
        </g>
    </g>

    <clipPath id="clip-path-archbishop">
        <use xlink:href="#archbishop"/>
    </clipPath>

    <!-- chancellor = knight + rook -->

    <rect id="bounding-box-chancellor"
          x="-7.5" y="-7.5" width="15" height="15" />

    <g id="chancellor">
        <g transform="scale(1.5)">
        <path
       d="m -3.0129181,0.32635718 c -0.180119,0 -0.300199,0.078791 -0.360238,0.236374 -0.01501,0.037519 -0.022515,0.075039 -0.022515,0.112559 0,0.030015 0.011257,0.067535 0.033772,0.112558 0.195129,0 0.315209,-0.082543 0.360238,-0.247628 0.00751,-0.022512 0.011258,-0.048777 0.011258,-0.078791 0,-0.015009 -0.00751,-0.06003 -0.022515,-0.135072 m 2.43106211,-4.10732178 c -0.112574,0 -0.276107,0.1754395 -0.49375001,0.528125 0,0 -0.023721,-0.013734 -0.06875,-0.04375 -0.3827541,-0.225118 -0.7435251,-0.340625 -1.0812501,-0.340625 -0.017753,0.018533 -0.020689,0.465036 -0.05625,0.621875 0,0.1275683 -0.00186,0.2230896 -0.00937,0.290625 -0.082554,0.3001558 -0.293526,0.7971385 -0.63125,1.4874999 -0.465308,0.96050288 -0.725589,1.60232988 -0.778125,1.92500088 0.052536,0.112558 0.101846,0.201215 0.146875,0.26875 0.135091,0.20260602 0.364787,0.34558012 0.6875,0.42812512 0.150099,0.037518 0.225,0.05625 0.225,0.05625 0.097564,0 0.184323,-0.049325 0.259375,-0.146875 0,0.232622 0.093627,0.35 0.28125,0.35 0.075048,0 0.131225,-0.030593 0.16875,-0.090625 0.135091,-0.202605 0.259301,-0.3967781 0.371875,-0.58437512 0.247664,-0.3827 0.61717209,-0.673648 1.11250009,-0.86875 -0.015011,0.105055 -0.035606,0.2087 -0.065625,0.30625 -0.06004,0.187599 -0.287994,0.501384 -0.50624999,0.80937502 -0.218257,0.3079911 -0.7202421,0.6935491 -0.5250001,0.6937491 l 0.25625,0 -0.90625,0.88125 0,1.428125 0.1625,0.084375 1.15000011,-0.021875 0,-0.921875 0.890625,0 0,0.921875 1.47187489,0 0,-0.921875 0.890625,0 0,0.921875 1.146875,0.021875 0.1625,-0.053125 0,-1.459375 -0.896875,-0.878125 0.28125,0 c 0,-1.53830512 -0.338924,-2.75390706 -1.021875,-3.6468751 -0.570379,-0.7729044 -1.17270794,-1.1593748 -1.80312489,-1.1593748 -0.06004,0 -0.118085,0.00687 -0.178125,0.021875 -0.075049,-0.2401265 -0.134349,-0.3968345 -0.171875,-0.471875 -0.075048,-0.1575826 -0.231716,-0.3024292 -0.471875,-0.4375 l -5e-6,0 z m -0.70000001,5.6906249 -0.00312,0.00312 0.00312,-0.00312 5e-6,0 z m -0.8642381,-3.069074 c 0.187623,0 0.386505,-0.108808 0.596643,-0.326421 0.112575,-0.1125581 0.168862,-0.2101101 0.168862,-0.2926541 0,-0.097552 -0.090059,-0.1463271 -0.270179,-0.1463271 -0.210137,0 -0.386504,0.0938 -0.529098,0.2813981 -0.075052,0.090048 -0.112575,0.1838471 -0.112575,0.2813991 0,0.13507 0.048782,0.202605 0.146347,0.202605"
              fill="none"
              stroke="black"
              stroke-width="0.3pt" />
        </g>
    </g>

    <clipPath id="clip-path-chancellor">
        <use xlink:href="#chancellor"/>
    </clipPath>

    <rect id="bounding-box-grasshopper"
          x="-7.5" y="-7.5" width="15" height="15" />

    <g id="grasshopper">
        <g transform="scale(1.5)">
        <path
       d="m 0.01962721,4.2459529 c -0.35183,0 -0.6375,-0.28255 -0.6375,-0.63438 0,-0.35183 0.28567,-0.6375 0.6375,-0.6375 0.35183,0 0.63436997,0.28567 0.63436997,0.6375 0,0.35183 -0.28253997,0.63438 -0.63436997,0.63438 z m -1.89062991,-0.39688 c -0.35182,0 -0.6375,-0.28567 -0.6375,-0.6375 0,-0.35182 0.28568,-0.6375 0.6375,-0.6375 0.35183,0 0.6375,0.28568 0.6375,0.6375 0,0.35183 -0.28567,0.6375 -0.6375,0.6375 z m 3.7875,0 c -0.35182,0 -0.6375,-0.28567 -0.6375,-0.6375 0,-0.35182 0.28568,-0.6375 0.6375,-0.6375 0.35183,0 0.6375,0.28568 0.6375,0.6375 0,0.35183 -0.28567,0.6375 -0.6375,0.6375 z m -1.96250009,-0.94687 c 0,-10e-4 0,-0.002 0,-0.003 0.18959,-1.08215 -0.44497,-1.8281899 -0.58125,-2.89999990478 C -0.94479279,0.702473 -1.7282027,1.6913429 -1.6647527,2.5992029 l -0.14687,-0.0312 c 0.30411,-0.84832 -0.0889,-2.1080699 -0.15938,-2.7843799 -0.50461,0.48351 -0.90683,0.67002 -1.11562,1.6124999 l -0.0594,-0.0219 c 0.22651,0.0977 0.38438,0.32205 0.38438,0.58437 0,0.35183 -0.28567,0.6375 -0.6375,0.6375 -0.35183,0 -0.6375,-0.28567 -0.6375,-0.6375 0,-0.35182 0.28567,-0.6375 0.6375,-0.6375 0.066,0 0.13078,0.01 0.19062,0.0281 l -0.0219,-0.009 c 0.4586,-0.7818099 -0.131,-1.4220699 0.0563,-2.14374994 0.18724,-0.72168996 0.8215,-1.47055996 0.66875,-2.27813006 -0.0315,-0.17213 -0.0469,-0.52402 -0.0469,-0.65312 l 5.15,0 c -1e-5,0.1291 -0.0153,0.48099 -0.0469,0.65312 -0.15275,0.8075701 0.4815,1.5564401 0.66875,2.27813006 0.18694,0.72051004 -0.40134,1.36054004 0.0531,2.14061994 0.0455,-0.0103 0.092,-0.0156 0.14063,-0.0156 0.35183,0 0.6375,0.28567 0.6375,0.6375 0,0.35182 -0.28567,0.6375 -0.6375,0.6375 -0.35183,0 -0.6375,-0.28568 -0.6375,-0.6375 0,-0.24921 0.14461,-0.46408 0.35312,-0.56875 -0.20922,-0.9364799 -0.60599,-1.1239299 -1.10937,-1.6062499 -0.0705,0.67631 -0.46661,1.9360499 -0.1625,2.7843699 l -0.14688,0.0312 C 1.7735773,1.6921629 0.99367728,0.702733 0.6758072,-4.6700478e-4 0.53966721,1.071613 -0.09817279,1.8172229 0.09143721,2.8995329 c 0,10e-4 0,0.002 0,0.003 l -0.0687,-0.003 -0.0688,0.003 z"
              fill="none"
              stroke="black"
              stroke-width="0.3pt" />
        </g>
    </g>

    <clipPath id="clip-path-grasshopper">
        <use xlink:href="#grasshopper"/>
    </clipPath>









    <!-- PLAYING CARD SUITS -->

    <g id="spade">
        <g transform="scale(0.5)">
        <path
            d="m 6.2108297,8.23837 0,1.368 -12.504,0 0,-1.368 c 0.24,-0.016 0.51198,-0.056 0.816,-0.12 
0.30398,-0.08 0.60798,-0.152 0.912,-0.216 0.31998,-0.08 0.63998,-0.2 0.96,-0.36 0.31998,-0.16 
0.61599,-0.344 0.88801,-0.552 0.28797,-0.208 0.55998,-0.48 0.816,-0.816 0.25598,-0.336 0.46398,-0.72 
0.624,-1.152 -0.72002,0.528 -1.51202,0.792 -2.376,0.792 -0.97602,0 -1.81602,-0.344 -2.52,-1.032 
-0.688,-0.68798 -1.032,-1.51998 -1.032,-2.496 0,-0.63998 0.088,-1.19198 0.264,-1.656 0.176,-0.46398004 
0.416,-0.86398004 0.72,-1.20000004 0.31998,-0.33598 0.67198,-0.65597996 1.056,-0.95999996 
0.38398,-0.31998 0.80798,-0.69598 1.272,-1.128 0.46398,-0.44798 0.91198,-0.95198 1.344,-1.512 
0.44798,-0.55998 0.89598,-1.30398 1.344,-2.232 0.46398,-0.94398 0.86398,-2.0159801 
1.20000005,-3.2159981 0.30398,1.184018 0.67198,2.2480181 1.10400005,3.1919981 0.44798,0.92802 
0.8879799,1.67202 1.3199999,2.232 0.44798,0.54402 0.89598,1.04002 1.344,1.488 0.46398,0.43202 
0.88798,0.80802 1.272,1.128 0.39998,0.30402 0.75998,0.62401996 1.08,0.95999996 0.31998,0.33602 
0.56798,0.74402 0.744,1.224 0.176,0.48002004 0.26398,1.04002004 0.264,1.68000004 -2e-5,0.97602 
-0.35202,1.80802 -1.056,2.496 -0.68802,0.688 -1.52002,1.032 -2.496,1.032 -0.86402,0 -1.65602,-0.264 
-2.3759999,-0.792 0.192,0.512 0.45598,0.968 0.7919999,1.368 0.35198,0.4 0.70398,0.704 1.056,0.912 
0.36798,0.192 0.75198,0.368 1.152,0.528 0.41598,0.144 0.78398,0.232 1.104,0.264 0.33598,0.032 
0.63998,0.08 0.912,0.144"
              fill="none"
              stroke="black"
              stroke-width="0.7pt" />
        </g>
    </g>

    <clipPath id="clip-path-spade">
        <use xlink:href="#spade"/>
    </clipPath>

    <rect id="bounding-box-spade"
          x="-5" y="-5" width="10" height="10" />

    <g id="club">
        <g transform="scale(0.5)">
        <path
            d="m 6.2468297,7.56637 0,1.368 -12.576,0 0,-1.368 c 0.576,-0.096 1.072,-0.2 1.488,-0.312 
0.416,-0.128 0.848,-0.296 1.296,-0.504 0.46401,-0.224 0.848,-0.48 1.15201,-0.768 0.32,-0.288 0.6,-0.656 
0.84,-1.104 0.256,-0.46398 0.432,-0.98398 0.528,-1.56 -0.48,0.56002 -1.064,1.00802 -1.752,1.344 
-0.672,0.336 -1.336,0.504 -1.992,0.504 -1.168,0 -2.168,-0.424 -3,-1.272 -0.816,-0.86398 -1.224,-1.89598 
-1.224,-3.096 0,-1.16798004 0.376,-2.16798 1.128,-3 0.752,-0.83198 1.672,-1.24798 2.76,-1.248 
0.368,2e-5 0.728,0.056 1.08,0.168 -0.192,-0.47998 -0.288,-0.98398 -0.288,-1.512 0,-1.15198 
0.416,-2.12798 1.248,-2.9280001 0.848,-0.81598 1.856,-1.22398 3.02400005,-1.224 1.16800005,2e-5 
2.16799995,0.40802 2.99999995,1.224 0.848,0.8000201 1.272,1.7760201 1.272,2.9280001 0,0.51202 
-0.096,1.01602 -0.288,1.512 0.336,-0.112 0.696,-0.168 1.08,-0.168 1.088,2e-5 2.008,0.41602 2.76,1.248 
0.75198,0.83202 1.12798,1.83201996 1.128,3 -2e-5,1.20002 -0.41602,2.23202 -1.248,3.096 -0.816,0.848 
-1.808,1.272 -2.976,1.272 -1.424,0 -2.672,-0.64 -3.74399995,-1.92 0.11200005,0.73602 0.32000005,1.368 
0.62400005,1.896 0.3039999,0.512 0.7039999,0.928 1.1999999,1.248 0.512,0.304 1.032,0.544 1.56,0.72 
0.528,0.176 1.168,0.328 1.92,0.456"
              fill="none"
              stroke="black"
              stroke-width="0.7pt" />
        </g>
    </g>

    <clipPath id="clip-path-club">
        <use xlink:href="#club"/>
    </clipPath>

    <rect id="bounding-box-club"
          x="-5" y="-5" width="10" height="10" />

    <g id="heart">
        <g transform="scale(0.5)">
        <path
            d="m 3.8948397,-9.8456281 c 1.10398,2e-5 2.04799,0.38402 2.832,1.151998 0.79998,0.76802 
1.19998,1.6880201 1.20001,2.7600001 -2e-5,0.73602 -0.112,1.43202 -0.33601,2.088 -0.20802,0.64002 
-0.49602,1.23202 -0.864,1.776 -0.35202,0.54402 -0.76002,1.09601996 -1.224,1.65599996 -0.44802,0.56002 
-0.93602,1.17602004 -1.464,1.84800004 -0.51202,0.67202 -1.00802,1.38402 -1.488,2.136 -0.48002,0.752 
-0.9520199,1.672 -1.4159999,2.76 -0.44802005,1.088 -0.82402005,2.256 -1.12800005,3.504 
-0.35202005,-1.328 -0.77602005,-2.56 -1.27200005,-3.696 -0.48002,-1.136 -0.968,-2.088 -1.464,-2.856 
-0.48,-0.76798 -0.984,-1.48798 -1.512,-2.16 -0.512,-0.68798004 -0.992,-1.29598004 -1.44,-1.82400004 
-0.432,-0.52797996 -0.832,-1.04797996 -1.2,-1.55999996 -0.352,-0.51198 -0.632,-1.06398 -0.84,-1.656 
-0.192,-0.59198 -0.288,-1.21598 -0.288,-1.872 0,-1.15198 0.384,-2.1119801 1.152,-2.8800001 
0.784,-0.783978 1.736,-1.175978 2.856,-1.175998 1.744,2e-5 3.06398,0.872018 3.96000005,2.6159981 
0.43198,-0.8799801 0.99998,-1.5359801 1.70400005,-1.9679981 0.7039799,-0.43198 1.4479799,-0.64798 
2.2319999,-0.648"
              fill="none"
              stroke="black"
              stroke-width="0.7pt" />
        </g>
    </g>

    <clipPath id="clip-path-heart">
        <use xlink:href="#heart"/>
    </clipPath>

    <rect id="bounding-box-heart"
          x="-5" y="-5" width="10" height="10" />

    <g id="diamond">
        <g transform="scale(0.6)">
        <path
            d="m -0.06516025,-8.6336201 c 0.38398,0.76801 1.31198005,2.1520101 2.78399995,4.1519901 
1.47198,1.98402 2.65598,3.47202 3.552,4.46399996 -1.12001,1.28002004 -2.32802,2.80002004 
-3.624,4.56000004 -1.2800199,1.76 -2.18401995,3.12 -2.71199995,4.08 C -1.2491803,6.51037 
-3.3451803,3.63039 -6.3531603,-0.01763004 -3.2651803,-3.74561 -1.1691803,-6.61761 
-0.06516025,-8.6336201"
              fill="none"
              stroke="black"
              stroke-width="0.7pt" />
        </g>
    </g>

    <clipPath id="clip-path-diamond">
        <use xlink:href="#diamond"/>
    </clipPath>

    <rect id="bounding-box-diamond"
          x="-5" y="-5" width="10" height="10" />
  
</svg>
