<?xml version="1.0"?>
<svg
     xmlns="http://www.w3.org/2000/svg"
     xmlns:xlink="http://www.w3.org/1999/xlink">

    <g id="fill-white">
        <rect x="-15" y="-5"
              width="30" height="10"
              fill="white"
              stroke="none" />
    </g>

    <g id="fill-yellow">
        <path d="M -20 -5 l 10 10
                 M -15 -5 l 10 10 M -10 -5 l 10 10
                 M -5  -5 l 10 10 M 0   -5 l 10 10
                 M 5   -5 l 10 10 M 10  -5 l 10 10"
              fill="none"
              stroke="#ccaa00"
              stroke-width="0.85pt" />
    </g>

    <g id="fill-purple">
        <rect x="-15" y="-5"
              width="30" height="10"
              fill="#660066"
              stroke="none" />
        <path d="M -20 -5 l 10 10
                 M -15 -5 l 10 10 M -10 -5 l 10 10
                 M -5  -5 l 10 10 M 0   -5 l 10 10
                 M 5   -5 l 10 10 M 10  -5 l 10 10"
              fill="none"
              stroke="white"
              stroke-width="0.7pt" />
    </g>

    <g id="fill-clear">
        <path d="M -10.5 -5 l 0 10 M -7.5  -5 l 0 10
                 M -1.5  -5 l 0 10 M 1.5   -5 l 0 10
                 M -4.5  -5 l 0 10 M 4.5   -5 l 0 10
                 M  7.5  -5 l 0 10 M 10.5  -5 l 0 10"
              fill="none"
              stroke="#888888"
              stroke-width="0.85pt" />
    </g>

    <g id="fill-blue">
        <rect x="-15" y="-5"
              width="30" height="10"
              fill="#0000ff"
              stroke="none" />
        <path d="M -10.5 -5 l 0 10 M -7.5  -5 l 0 10
                 M -1.5  -5 l 0 10 M 1.5   -5 l 0 10
                 M -4.5  -5 l 0 10 M 4.5   -5 l 0 10
                 M  7.5  -5 l 0 10 M 10.5  -5 l 0 10"
              fill="none"
              stroke="white"
              stroke-width="0.7pt" />
    </g>

    <g id="fill-teal">
        <path d="M -10.5 -5 l 0 10 M -7.5  -5 l 0 10
                 M -1.5  -5 l 0 10 M 1.5   -5 l 0 10
                 M -4.5  -5 l 0 10 M 4.5   -5 l 0 10
                 M  7.5  -5 l 0 10 M 10.5  -5 l 0 10
                 M -15 -1.5 l 30 0 M -15  1.5 l 30 0"
              fill="none"
              stroke="#008888"
              stroke-width="0.85pt" />
    </g>

    <g id="fill-red">
        <rect x="-15" y="-5"
              width="30" height="10"
              fill="#ff0000"
              stroke="none" />
        <path d="M -10.5 -5 l 0 10 M -7.5  -5 l 0 10
                 M -1.5  -5 l 0 10 M 1.5   -5 l 0 10
                 M -4.5  -5 l 0 10 M 4.5   -5 l 0 10
                 M  7.5  -5 l 0 10 M 10.5  -5 l 0 10
                 M -15 -1.5 l 30 0 M -15  1.5 l 30 0"
              fill="none"
              stroke="white"
              stroke-width="0.7pt" />
    </g>

    <g id="fill-green">
        <path d="M -20 -5 l 10 10
                 M -15 -5 l 10 10 M -10 -5 l 10 10
                 M -5  -5 l 10 10 M 0   -5 l 10 10
                 M 5   -5 l 10 10 M 10  -5 l 10 10
                 M -20 5 l 10 -10
                 M -15 5 l 10 -10 M -10 5 l 10 -10
                 M -5  5 l 10 -10 M 0   5 l 10 -10
                 M 5   5 l 10 -10 M 10  5 l 10 -10"
              fill="none"
              stroke="#00cc00"
              stroke-width="0.85pt" />
    </g>

    <g id="fill-orange">
        <rect x="-15" y="-5"
              width="30" height="10"
              fill="#cc4400"
              stroke="none" />
        <path d="M -20 -5 l 10 10
                 M -15 -5 l 10 10 M -10 -5 l 10 10
                 M -5  -5 l 10 10 M 0   -5 l 10 10
                 M 5   -5 l 10 10 M 10  -5 l 10 10
                 M -20 5 l 10 -10
                 M -15 5 l 10 -10 M -10 5 l 10 -10
                 M -5  5 l 10 -10 M 0   5 l 10 -10
                 M 5   5 l 10 -10 M 10  5 l 10 -10"
              fill="none"
              stroke="white"
              stroke-width="0.7pt" />
    </g>

    <g id="fill-black">
        <rect x="-15" y="-5"
              width="30" height="10"
              fill="black"
              stroke="none" />
    </g>

    <g id="small">
        <rect
            x="-4" y="-4"
            width="8" height="8"
            stroke-width="1pt"
            stroke="black"
            fill="none"
        />
    </g>

    <clipPath id="clip-path-small">
        <use xlink:href="#small"/>
    </clipPath>

    <rect id="bounding-box-small"
          x="-5" y="-5" width="10" height="10" />


    <g id="medium">
        <rect
            x="-9" y="-4"
            width="18" height="8"
            stroke-width="1pt"
            stroke="black"
            fill="none"
        />
    </g>

    <clipPath id="clip-path-medium">
        <use xlink:href="#medium"/>
    </clipPath>

    <rect id="bounding-box-medium"
          x="-10" y="-5" width="20" height="10" />

    <g id="large">
        <rect
            x="-14" y="-4"
            width="28" height="8"
            stroke-width="1pt"
            stroke="black"
            fill="none"
        />
    </g>

    <clipPath id="clip-path-large">
        <use xlink:href="#large"/>
    </clipPath>

    <rect id="bounding-box-large"
          x="-15" y="-5" width="30" height="10" />

    <g id="player">
        <circle
            cx="0" cy="0" r="4"
            stroke-width="1pt"
            stroke="black"
            fill="none"
        />
    </g>

    <clipPath id="clip-path-player">
        <use xlink:href="#player"/>
    </clipPath>

    <rect id="bounding-box-player"
          x="-5" y="-5" width="10" height="10" />


    <!-- CHESS PIECES -->

    <!-- TODO: bish -->

    <g id="knight">
        <path
            d="m -1.5411203,-5.93531 c 0.47654,-0.30468 0.5547,-0.76576 0.23438,-1.38296 
-0.3125,-0.6249801 -0.1368,-1.1093601 0.52736,-1.4531201 0.66404005,0.63282 1.04296005,1.2343801 
1.13672005,1.8046801 0.0938,0.57034 -0.0274,0.91408 -0.36328,1.03126 l 0.0468,0 c 0,0.008 -0.008,0.012 
-0.0234,0.012 C 4.2049597,-3.26719 6.4744797,1.62733 6.8260597,8.76013 l -11.36718,0 c -0.1016,-0.4375 
-0.1524,-0.8828 -0.1524,-1.33594 -2e-5,-1.24998 0.81638,-2.4453 2.4492,-3.58592 1.63282,-1.14062 
2.39452005,-2.17578 2.28516005,-3.10548 -0.53906005,1.35938 -1.29298005,2.01172 -2.26172005,1.95704 
-0.72655,1.17968 -1.50782,1.75 -2.34374,1.71094 l 0.5625,-1.21876 -1.2539,0.9375 c -0.89064,-0.21874 
-1.44142,-0.65234 -1.65236,-1.30078 0.78126,-2.03906 1.11718,-3.8828 1.00782,-5.53126 0.375,-0.85154 
0.94922,-1.68358 1.72266,-2.49608 0.086,-0.32812 -0.012,-0.5742 -0.29298,-0.73828 -0.27344,-0.164 
-0.26172,-0.74218 0.0352,-1.7343801 0.8125,0.2109601 1.4375,0.7929801 1.875,1.7461001 l 1.01956,-1.4e-4 
z m -3.01174,2.98837 0,0.18746 c 0.0312,0.23438 0.0782,0.35156 0.1406,0.35156 l 0.2461,0 c 0.53904,0 
0.80858,-0.1914 0.80858,-0.57422 0,-0.26562 0.168,-0.58592 0.50392,-0.96094 l -0.0704,0 c -0.75,2e-5 
-1.26954,0.25002 -1.5586,0.75 l -0.0702,0.24615 z m -1.2773,5.27339 -4e-5,0.28124 c -2e-5,0.22658 
0.1094,0.33986 0.32812,0.33984 l 0.1172,0 c 0.5625,-0.1172 0.84375,-0.3828 0.84376,-0.79686 l 
-0.082,-0.39844 c -0.48438,0 -0.88674,0.1914 -1.20704,0.57422 z"
              fill="none"
              stroke="black"
              stroke-width="1pt" />
    </g>

    <clipPath id="clip-path-knight">
        <use xlink:href="#knight"/>
    </clipPath>

    <rect id="bounding-box-knight"
          x="-15" y="-15" width="30" height="30" />

    <g id="king">
        <path
            d="m -5.4317803,8.76003 0,-4.4883 c -0.32814,-0.1016 -0.64064,-0.23826 -0.9375,-0.41014 
-0.53908,-0.42188 -1.01954,-1.01562 -1.44142,-1.78126 -0.42188,-0.76562 -0.6328,-1.56640004 
-0.6328,-2.40234004 0,-0.84373996 0.21484,-1.64841996 0.64452,-2.41405996 0.42968,-0.77342 
1.03124,-1.36718 1.8047,-1.78126 0.77342,-0.41404 1.5664,-0.62108 2.3789,-0.62108 0.62499,0 
1.23437,0.121 1.82812,0.36328 l 0,-0.0234 c 0,-0.28124 0.0702,-0.54296 0.21095,-0.78516 
0.14059,-0.24998 0.33592,-0.4453 0.58594,-0.58594 0.1016,-0.0546 0.21484,-0.0976 0.33984,-0.129 l 
0,-0.63282 -1.26562,0 0,-0.8203001 1.26562,0 0,-1.01954 1.23048005,0 0,1.01954 1.26561995,0 0,0.8203001 
-1.26561995,0 0,0.63282 c 0.125,0.0312 0.23825,0.0742 0.33984,0.129 0.24216005,0.1406 
0.43358005,0.33596 0.57421005,0.58594 0.14841,0.2422 0.22264,0.50392 0.22264,0.78516 l 0,0.0234 c 
0.5937399,-0.24218 1.1992199,-0.36328 1.8164199,-0.36328 0.81248,0 1.60544,0.20704 2.3789,0.62108 
0.77342,0.41408 1.37499,1.00784 1.80468,1.78126 0.42968,0.76564 0.64452,1.57032 0.64454,2.41405996 
-2e-5,0.83594 -0.21096,1.63672004 -0.63282,2.40234004 -0.42188,0.76564 -0.89844,1.35938 
-1.42968,1.78126 -0.3047,0.1718 -0.6172,0.3086 -0.9375,0.41014 l 0,4.4883 -10.79296,0 m 
4.30078,-13.46486 c -1e-5,0.1954 0.0468,0.37892 0.1406,0.55078 0.1016,0.164 0.23826,0.2969 
0.41016,0.39844 0.1796,0.0938 0.35936005,0.1406 0.53906005,0.1406 0.1874,2e-5 0.36718,-0.0468 
0.53906,-0.1406 0.1796,-0.1016 0.3164,-0.23436 0.41016,-0.39844 0.0938,-0.1718 0.14060005,-0.35544 
0.14060005,-0.55078 -2e-5,-0.1874 -0.0468,-0.36716 -0.14060005,-0.53906 -0.0938,-0.1796 
-0.23048,-0.31248 -0.41016,-0.39844 -0.1718,-0.0938 -0.35158,-0.1406 -0.53906,-0.1406 -0.1796,2e-5 
-0.35938005,0.0468 -0.53906005,0.1406 -0.172,0.086 -0.3086,0.21878 -0.41016,0.39844 -0.0938,0.1718 
-0.1406,0.35158 -0.1406,0.53906"
              fill="none"
              stroke="black"
              stroke-width="1pt" />
    </g>

    <clipPath id="clip-path-king">
        <use xlink:href="#king"/>
    </clipPath>

    <rect id="bounding-box-king"
          x="-15" y="-15" width="30" height="30" />

    <g id="queen">
        <path
            d="m -6.8965203,-3.18139 c -0.7422,-0.016 -1.16016,-0.39452 -1.25392,-1.13672 0,-0.21874 
0.0548,-0.42576 0.164,-0.62108 0.1172,-0.20312 0.28126,-0.35936 0.4922,-0.46876 0.21094,-0.1094 
0.42968,-0.164 0.65624,-0.164 0.21876,2e-5 0.4336,0.0546 0.64454,0.164 0.21094,0.1094 0.37108,0.26564 
0.48046,0.46876 0.1094,0.1954 0.164,0.40234 0.164,0.62108 -0.0312,0.50002 -0.26952,0.83596 
-0.71484,1.00782 l 2.98608,4.47938 -0.79466,-6.77626 c -0.64846,2e-5 -1.04298,-0.36326 -1.1836,-1.08984 
0,-0.21874 0.0546,-0.42576 0.164,-0.6211 0.1172,-0.1954 0.27734,-0.3476401 0.48046,-0.4570201 
0.21095,-0.1094 0.4375,-0.164 0.6797,-0.164 0.21875,0 0.42968,0.0546 0.6328,0.164 0.21095,0.1094 
0.3711,0.2617201 0.48049,0.4570201 0.1172,0.1954 0.17579,0.40236 0.17579,0.6211 -0.016,0.35158 
-0.20313,0.66016 -0.5625,0.92578 l 2.21484,5.46703996 0.50391,-6.31079996 c -0.52345,-0.23434 
-0.79296,-0.53904 -0.80858,-0.91406 -2e-5,-0.2187201 0.0586,-0.4296601 0.17579,-0.6328001 
0.11721,-0.20312 0.27734,-0.35546 0.48046,-0.45704 0.21095,-0.1016 0.42187005,-0.1524 
0.63283005,-0.1524 0.22654,2e-5 0.4414,0.0508 0.64451,0.1524 0.21095,0.1016 0.37500005,0.25392 
0.49220005,0.45704 0.11721,0.20314 0.1758,0.41408 0.1758,0.6328001 -0.0234,0.4219 -0.29688,0.72658 
-0.82032005,0.91406 l 0.44532,6.31107996 L 3.0994397,-5.65405 c -0.35938,-0.36716 -0.53905,-0.71482 
-0.53905,-1.04296 0,-0.21092 0.0546,-0.41404 0.164,-0.60938 0.1172,-0.2031 0.28124,-0.3593601 
0.4922,-0.4687401 0.21092,-0.1094 0.42186,-0.164 0.6328,-0.164 0.23436,0 0.45702,0.0546 0.66797,0.164 
0.21092,0.1094 0.37108,0.2656401 0.48046,0.4687401 0.1172,0.1954 0.1758,0.39846 0.1758,0.60938 
-0.086,0.66408 -0.46486,1.0586 -1.13672,1.1836 l -1.07812,6.6825 3.01172,-4.58486 c -0.33596,-0.2656 
-0.50392,-0.56638 -0.5039,-0.90234 -2e-5,-0.21874 0.0546,-0.42576 0.164,-0.62108 0.1172,-0.20312 
0.27732,-0.35546 0.48046,-0.45704 0.21092,-0.1094 0.42576,-0.164 0.64454,-0.164 0.23436,2e-5 
0.4531,0.0546 0.65624,0.164 0.21092,0.1016 0.37108,0.25392 0.48048,0.45704 0.1172,0.1954 0.1758,0.40234 
0.1758,0.62108 -0.1016,0.7344 -0.53908,1.10158 -1.3125,1.10156 l -1.875,6.53946 0,5.43712 -10.08984,0 
0,-5.43712 -1.6875,-6.5043"
              fill="none"
              stroke="black"
              stroke-width="1pt" />
    </g>

    <clipPath id="clip-path-queen">
        <use xlink:href="#queen"/>
    </clipPath>

    <rect id="bounding-box-queen"
          x="-15" y="-15" width="30" height="30" />

    <g id="rook">
        <path
            d="m -1.6993603,-8.7712601 3.2461001,0 0,1.8164001 2.0038999,0 0,-1.8164001 3.16406,0 
0,1.8984401 -1.34764,0 0,1.6875 -1.07814,1.7578 0,6.85548 1.07814,1.74608 0,1.6758 1.34764,0 0,1.91016 
-13.51172,0 0,-1.91016 1.34766,0 0,-1.6758 1.08984,-1.78124 0.012,0 0,-6.8086 -0.012,0 
-1.08984,-1.76952 0,-1.6875 -1.34766,0 0,-1.8984401 3.10548,0 0,1.8164001 1.99218,0 0,-1.8164001"
              fill="none"
              stroke="black"
              stroke-width="1pt" />
    </g>

    <clipPath id="clip-path-rook">
        <use xlink:href="#rook"/>
    </clipPath>

    <rect id="bounding-box-rook"
          x="-15" y="-15" width="30" height="30" />

    <g id="pawn">
        <path
            d="m -4.9240003,6.53264 c -0.0642,-0.33215 -0.0634,-0.66722 -0.0634,-1.00522 0,-0.93236 
0.20616,-1.82395 0.684,-2.67473 0.48368,-0.85662 0.9441,-1.51219 1.7949,-1.96673 0.22142,-0.12232 
0.28492,-0.22726 0.51802,-0.31468004 -0.1748,-0.169 -0.32344,-0.3642 -0.4458,-0.58565 -0.24474,-0.43703 
-0.36714,-0.89448 -0.36712,-1.37232996 -2e-5,-0.48365 0.1224,-0.94402 0.36712,-1.38107 0.25058,-0.44287 
0.6002,-0.78669 1.04892,-1.03145 0.1574,-0.0816 0.3205,-0.15148 0.4895,-0.20977 -0.1516,-0.1107 
-0.27098,-0.25058 -0.35838,-0.41957 -0.1342,-0.22726 -0.20106,-0.46326 -0.20106,-0.70802 0,-0.24475 
0.0642,-0.47784 0.1924,-0.69928 0.1282,-0.22726 0.30592,-0.40209 0.5332,-0.52447 0.22726,-0.12232 
0.46034,-0.18354 0.69928005,-0.18356 0.23308,1e-5 0.46326,0.0612 0.69054,0.18356 0.22726,0.12232 
0.40498005,0.29721 0.53318005,0.52447 0.134,0.22144 0.20104,0.45453 0.20106,0.69928 -2e-5,0.24476 
-0.0612,0.48076 -0.1836,0.70802 -0.099,0.169 -0.22144005,0.31177 -0.36712005,0.42831 0.15741,0.0525 
0.32340005,0.1195 0.49822005,0.20103 0.4370399,0.24476 0.7808599,0.58858 1.0314599,1.03145 
0.25056,0.43705 0.37584,0.89742 0.37584,1.38107 0,0.47784996 -0.1194,0.93529996 -0.35835,1.37232996 
-0.1282,0.22145 -0.27974,0.41666 -0.45454,0.58565 0.22142,0.0932 0.27908,0.19814004 0.50054,0.31468004 
0.8566,0.45454 1.31994,1.11011 1.80362,1.96673 0.48366,0.85078 0.65998,1.74237 0.65998,2.67473 0,0.338 
0.0306,0.67307 -0.0392,1.00522 l -9.78298,0"
              fill="none"
              stroke="black"
              stroke-width="1pt" />
    </g>

    <clipPath id="clip-path-pawn">
        <use xlink:href="#pawn"/>
    </clipPath>

    <rect id="bounding-box-pawn"
          x="-15" y="-15" width="30" height="30" />


    <!-- PLAYING CARD SUITS -->

    <g id="spade">
        <g transform="scale(0.5)">
        <path
            d="m 6.2108297,8.23837 0,1.368 -12.504,0 0,-1.368 c 0.24,-0.016 0.51198,-0.056 0.816,-0.12 
0.30398,-0.08 0.60798,-0.152 0.912,-0.216 0.31998,-0.08 0.63998,-0.2 0.96,-0.36 0.31998,-0.16 
0.61599,-0.344 0.88801,-0.552 0.28797,-0.208 0.55998,-0.48 0.816,-0.816 0.25598,-0.336 0.46398,-0.72 
0.624,-1.152 -0.72002,0.528 -1.51202,0.792 -2.376,0.792 -0.97602,0 -1.81602,-0.344 -2.52,-1.032 
-0.688,-0.68798 -1.032,-1.51998 -1.032,-2.496 0,-0.63998 0.088,-1.19198 0.264,-1.656 0.176,-0.46398004 
0.416,-0.86398004 0.72,-1.20000004 0.31998,-0.33598 0.67198,-0.65597996 1.056,-0.95999996 
0.38398,-0.31998 0.80798,-0.69598 1.272,-1.128 0.46398,-0.44798 0.91198,-0.95198 1.344,-1.512 
0.44798,-0.55998 0.89598,-1.30398 1.344,-2.232 0.46398,-0.94398 0.86398,-2.0159801 
1.20000005,-3.2159981 0.30398,1.184018 0.67198,2.2480181 1.10400005,3.1919981 0.44798,0.92802 
0.8879799,1.67202 1.3199999,2.232 0.44798,0.54402 0.89598,1.04002 1.344,1.488 0.46398,0.43202 
0.88798,0.80802 1.272,1.128 0.39998,0.30402 0.75998,0.62401996 1.08,0.95999996 0.31998,0.33602 
0.56798,0.74402 0.744,1.224 0.176,0.48002004 0.26398,1.04002004 0.264,1.68000004 -2e-5,0.97602 
-0.35202,1.80802 -1.056,2.496 -0.68802,0.688 -1.52002,1.032 -2.496,1.032 -0.86402,0 -1.65602,-0.264 
-2.3759999,-0.792 0.192,0.512 0.45598,0.968 0.7919999,1.368 0.35198,0.4 0.70398,0.704 1.056,0.912 
0.36798,0.192 0.75198,0.368 1.152,0.528 0.41598,0.144 0.78398,0.232 1.104,0.264 0.33598,0.032 
0.63998,0.08 0.912,0.144"
              fill="none"
              stroke="black"
              stroke-width="1pt" />
        </g>
    </g>

    <clipPath id="clip-path-spade">
        <use xlink:href="#spade"/>
    </clipPath>

    <rect id="bounding-box-spade"
          x="-5" y="-5" width="10" height="10" />

    <g id="club">
        <g transform="scale(0.5)">
        <path
            d="m 6.2468297,7.56637 0,1.368 -12.576,0 0,-1.368 c 0.576,-0.096 1.072,-0.2 1.488,-0.312 
0.416,-0.128 0.848,-0.296 1.296,-0.504 0.46401,-0.224 0.848,-0.48 1.15201,-0.768 0.32,-0.288 0.6,-0.656 
0.84,-1.104 0.256,-0.46398 0.432,-0.98398 0.528,-1.56 -0.48,0.56002 -1.064,1.00802 -1.752,1.344 
-0.672,0.336 -1.336,0.504 -1.992,0.504 -1.168,0 -2.168,-0.424 -3,-1.272 -0.816,-0.86398 -1.224,-1.89598 
-1.224,-3.096 0,-1.16798004 0.376,-2.16798 1.128,-3 0.752,-0.83198 1.672,-1.24798 2.76,-1.248 
0.368,2e-5 0.728,0.056 1.08,0.168 -0.192,-0.47998 -0.288,-0.98398 -0.288,-1.512 0,-1.15198 
0.416,-2.12798 1.248,-2.9280001 0.848,-0.81598 1.856,-1.22398 3.02400005,-1.224 1.16800005,2e-5 
2.16799995,0.40802 2.99999995,1.224 0.848,0.8000201 1.272,1.7760201 1.272,2.9280001 0,0.51202 
-0.096,1.01602 -0.288,1.512 0.336,-0.112 0.696,-0.168 1.08,-0.168 1.088,2e-5 2.008,0.41602 2.76,1.248 
0.75198,0.83202 1.12798,1.83201996 1.128,3 -2e-5,1.20002 -0.41602,2.23202 -1.248,3.096 -0.816,0.848 
-1.808,1.272 -2.976,1.272 -1.424,0 -2.672,-0.64 -3.74399995,-1.92 0.11200005,0.73602 0.32000005,1.368 
0.62400005,1.896 0.3039999,0.512 0.7039999,0.928 1.1999999,1.248 0.512,0.304 1.032,0.544 1.56,0.72 
0.528,0.176 1.168,0.328 1.92,0.456"
              fill="none"
              stroke="black"
              stroke-width="1pt" />
        </g>
    </g>

    <clipPath id="clip-path-club">
        <use xlink:href="#club"/>
    </clipPath>

    <rect id="bounding-box-club"
          x="-5" y="-5" width="10" height="10" />

    <g id="heart">
        <g transform="scale(0.5)">
        <path
            d="m 3.8948397,-9.8456281 c 1.10398,2e-5 2.04799,0.38402 2.832,1.151998 0.79998,0.76802 
1.19998,1.6880201 1.20001,2.7600001 -2e-5,0.73602 -0.112,1.43202 -0.33601,2.088 -0.20802,0.64002 
-0.49602,1.23202 -0.864,1.776 -0.35202,0.54402 -0.76002,1.09601996 -1.224,1.65599996 -0.44802,0.56002 
-0.93602,1.17602004 -1.464,1.84800004 -0.51202,0.67202 -1.00802,1.38402 -1.488,2.136 -0.48002,0.752 
-0.9520199,1.672 -1.4159999,2.76 -0.44802005,1.088 -0.82402005,2.256 -1.12800005,3.504 
-0.35202005,-1.328 -0.77602005,-2.56 -1.27200005,-3.696 -0.48002,-1.136 -0.968,-2.088 -1.464,-2.856 
-0.48,-0.76798 -0.984,-1.48798 -1.512,-2.16 -0.512,-0.68798004 -0.992,-1.29598004 -1.44,-1.82400004 
-0.432,-0.52797996 -0.832,-1.04797996 -1.2,-1.55999996 -0.352,-0.51198 -0.632,-1.06398 -0.84,-1.656 
-0.192,-0.59198 -0.288,-1.21598 -0.288,-1.872 0,-1.15198 0.384,-2.1119801 1.152,-2.8800001 
0.784,-0.783978 1.736,-1.175978 2.856,-1.175998 1.744,2e-5 3.06398,0.872018 3.96000005,2.6159981 
0.43198,-0.8799801 0.99998,-1.5359801 1.70400005,-1.9679981 0.7039799,-0.43198 1.4479799,-0.64798 
2.2319999,-0.648"
              fill="none"
              stroke="black"
              stroke-width="1pt" />
        </g>
    </g>

    <clipPath id="clip-path-heart">
        <use xlink:href="#heart"/>
    </clipPath>

    <rect id="bounding-box-heart"
          x="-5" y="-5" width="10" height="10" />

    <g id="diamond">
        <g transform="scale(0.6)">
        <path
            d="m -0.06516025,-8.6336201 c 0.38398,0.76801 1.31198005,2.1520101 2.78399995,4.1519901 
1.47198,1.98402 2.65598,3.47202 3.552,4.46399996 -1.12001,1.28002004 -2.32802,2.80002004 
-3.624,4.56000004 -1.2800199,1.76 -2.18401995,3.12 -2.71199995,4.08 C -1.2491803,6.51037 
-3.3451803,3.63039 -6.3531603,-0.01763004 -3.2651803,-3.74561 -1.1691803,-6.61761 
-0.06516025,-8.6336201" />
              fill="none"
              stroke="black"
              stroke-width="1pt" />
        </g>
    </g>

    <clipPath id="clip-path-diamond">
        <use xlink:href="#diamond"/>
    </clipPath>

    <rect id="bounding-box-diamond"
          x="-5" y="-5" width="10" height="10" />

</svg>
