<?xml version="1.0"?>
<svg
     xmlns="http://www.w3.org/2000/svg"
     xmlns:xlink="http://www.w3.org/1999/xlink">

    <!-- FILLS -->

    <g id="fill-white">
        <rect x="-20" y="-20"
              width="40" height="40"
              fill="white"
              stroke="none" />
    </g>

    <g id="fill-grey">
        <rect x="-20" y="-20"
              width="40" height="40"
              fill="#aaaaaa"
              stroke="none" />
    </g>

    <g id="fill-yellow">
        <g transform="scale(0.7)">
            <path d="M -40 -20 l 40 40
                 M -35 -20 l 40 40 M -30 -20 l 40 40
                 M -25 -20 l 40 40 M -20 -20 l 40 40
                 M -15 -20 l 40 40 M -10 -20 l 40 40
                 M -5  -20 l 40 40 M 0   -20 l 40 40
                 M 5   -20 l 40 40 M 10  -20 l 40 40"
              fill="none"
              stroke="#ffff00"
              stroke-width="1.5pt" />
        </g>
    </g>

    <g id="fill-purple">
        <g transform="scale(0.7)">
            <rect x="-20" y="-20"
                  width="40" height="40"
                  fill="#660066"
                  stroke="none" />
            <path d="M -40 -20 l 40 40
                 M -35 -20 l 40 40 M -30 -20 l 40 40
                 M -25 -20 l 40 40 M -20 -20 l 40 40
                 M -15 -20 l 40 40 M -10 -20 l 40 40
                 M -5  -20 l 40 40 M 0   -20 l 40 40
                 M 5   -20 l 40 40 M 10  -20 l 40 40"
              fill="none"
              stroke="white"
              stroke-width="0.35pt" />
        </g>
    </g>

    <g id="fill-clear">
        <g transform="scale(0.7)">
            <path d="M -10.5 -20 l 0 40 M -7.5  -20 l 0 40
                 M -1.5  -20 l 0 40 M 1.5   -20 l 0 40
                 M -4.5  -20 l 0 40 M 4.5   -20 l 0 40
                 M  7.5  -20 l 0 40 M 10.5  -20 l 0 40"
              fill="none"
              stroke="#cccccc"
              stroke-width="0.85pt" />
        </g>
    </g>

    <g id="fill-blue">
        <g transform="scale(0.7)">
            <rect x="-20" y="-20"
              width="40" height="40"
              fill="#0000ff"
              stroke="none" />
            <path d="M -10.5 -20 l 0 40 M -7.5  -20 l 0 40
                 M -1.5  -20 l 0 40 M 1.5   -20 l 0 40
                 M -4.5  -20 l 0 40 M 4.5   -20 l 0 40
                 M  7.5  -20 l 0 40 M 10.5  -20 l 0 40"
              fill="none"
              stroke="white"
              stroke-width="0.35pt" />
        </g>
    </g>

    <g id="fill-teal">
        <g transform="scale(0.7)">
            <path d="M -10.5 -20 l 0 40 M -7.5  -20 l 0 40
                 M -1.5  -20 l 0 40 M 1.5   -20 l 0 40
                 M -4.5  -20 l 0 40 M 4.5   -20 l 0 40
                 M  7.5  -20 l 0 40 M 10.5  -20 l 0 40
                 M -20 -1.5 l 40 0 M -20  1.5 l 40 0
                 M -20 -4.5 l 40 0 M -20  4.5 l 40 0
                 M -20 -7.5 l 40 0 M -20  7.5 l 40 0
                 M -20 -10.5 l 40 0 M -20  10.5 l 40 0"
              fill="none"
              stroke="#008888"
              stroke-width="0.85pt" />
        </g>
    </g>

    <g id="fill-red">
        <g transform="scale(0.7)">
            <rect x="-20" y="-20"
              width="40" height="40"
              fill="#ff0000"
              stroke="none" />
            <path d="M -10.5 -20 l 0 40 M -7.5  -20 l 0 40
                 M -1.5  -20 l 0 40 M 1.5   -20 l 0 40
                 M -4.5  -20 l 0 40 M 4.5   -20 l 0 40
                 M  7.5  -20 l 0 40 M 10.5  -20 l 0 40
                 M -20 -1.5 l 40 0 M -20  1.5 l 40 0
                 M -20 -4.5 l 40 0 M -20  4.5 l 40 0
                 M -20 -7.5 l 40 0 M -20  7.5 l 40 0
                 M -20 -10.5 l 40 0 M -20  10.5 l 40 0"
              fill="none"
              stroke="white"
              stroke-width="0.35pt" />
        </g>
    </g>

    <g id="fill-green">
        <g transform="scale(0.7)">
            <path d="M -40 -20 l 40 40
                 M -35 -20 l 40 40 M -30 -20 l 40 40
                 M -25 -20 l 40 40 M -20 -20 l 40 40
                 M -15 -20 l 40 40 M -10 -20 l 40 40
                 M -5  -20 l 40 40 M 0   -20 l 40 40
                 M 5   -20 l 40 40 M 10  -20 l 40 40
                 M -40 20 l 40 -40
                 M -35 20 l 40 -40 M -30 20 l 40 -40
                 M -25 20 l 40 -40 M -20 20 l 40 -40
                 M -15 20 l 40 -40 M -10 20 l 40 -40
                 M -5  20 l 40 -40 M 0   20 l 40 -40
                 M 5   20 l 40 -40 M 10  20 l 40 -40"
              fill="none"
              stroke="#00cc00"
              stroke-width="0.85pt" />
        </g>
    </g>

    <g id="fill-orange">
        <g transform="scale(0.7)">
            <rect x="-20" y="-20"
              width="40" height="40"
              fill="#ff8800"
              stroke="none" />
            <path d="M -40 -20 l 40 40
                 M -35 -20 l 40 40 M -30 -20 l 40 40
                 M -25 -20 l 40 40 M -20 -20 l 40 40
                 M -15 -20 l 40 40 M -10 -20 l 40 40
                 M -5  -20 l 40 40 M 0   -20 l 40 40
                 M 5   -20 l 40 40 M 10  -20 l 40 40
                 M -40 20 l 40 -40
                 M -35 20 l 40 -40 M -30 20 l 40 -40
                 M -25 20 l 40 -40 M -20 20 l 40 -40
                 M -15 20 l 40 -40 M -10 20 l 40 -40
                 M -5  20 l 40 -40 M 0   20 l 40 -40
                 M 5   20 l 40 -40 M 10  20 l 40 -40"
              fill="none"
              stroke="white"
              stroke-width="0.85pt" />
        </g>
    </g>

    <g id="fill-black">
        <rect x="-20" y="-20"
              width="40" height="40"
              fill="black"
              stroke="none" />
    </g>

    <!-- PLAYER -->

    <g id="player">
        <path id="path-player"
            d="m 0.01576969,-4.1541865 c 0.17167817,0 1.26706091,2.5127551 1.40595171,2.613665 0.1388905,0.1009099 2.8671549,0.3661969 2.9202065,0.529473 C 4.3949789,-0.84777281 2.3436988,0.97048209 2.2906475,1.1337581 2.2375955,1.2970338 2.8283728,3.9737455 2.6894823,4.0746554 2.5505915,4.1755656 0.18744786,2.7865533 0.01576934,2.7865533 c -0.17167814,0 -2.53482214,1.389012 -2.67371264,1.2881021 -0.1388909,-0.1009099 0.4518864,-2.7776219 0.3988348,-2.9408976 -0.053052,-0.16327571 -2.104332,-1.98153101 -2.0512804,-2.1448067 0.053052,-0.1632757 2.781316,-0.4285627 2.9202065,-0.5294726 0.1388908,-0.1009099 1.2342736,-2.613665 1.40595209,-2.613665 z"
            stroke-width="0.3pt"
            stroke="black"
            fill="none"
        />
    </g>

    <clipPath id="clip-path-player">
        <use xlink:href="#path-player"/>
    </clipPath>

    <rect id="bounding-box-player"
          x="-5" y="-5" width="10" height="10" />



    <!-- SQUARE DESIGNS -->

    <g id="patch">
        <rect id="path-patch"
            x="-5" y="-5" width="10" height="10"
            fill="none" stroke="none" />
    </g>

    <clipPath id="clip-path-patch">
        <use xlink:href="#path-patch"/>
    </clipPath>

    <rect id="bounding-box-patch"
          x="-5" y="-5" width="10" height="10" />





    <!-- SIMPLE PIECES -->

    <g id="circle">
        <circle id="path-circle"
            cx="0" cy="0"
            r="4"
            stroke-width="0.5pt"
            stroke="black"
            fill="none"
        />
    </g>

    <clipPath id="clip-path-circle">
        <use xlink:href="#path-circle"/>
    </clipPath>

    <rect id="bounding-box-circle"
          x="-5" y="-5" width="10" height="10" />

    <g id="double-circle">
        <path id="path-double-circle"
            d="m 2.0050612,-0.00747652 c 0,1.11202662 -0.9014753,2.01350372 -2.01350308,2.01350372 -1.11202562,0 -2.01349932,-0.9014771 -2.01349932,-2.01350372 0,-1.11202558 0.9014737,-2.01350078 2.01349932,-2.01350078 1.11202778,0 2.01350308,0.9014752 2.01350308,2.01350078 z m 3.1013337,0 c 0,-2.82484238 -2.2899892,-5.11483168 -5.11483678,-5.11483168 -2.82484302,0 -5.11483402,2.2899893 -5.11483402,5.11483168 0,2.82484642 2.289991,5.11483572 5.11483402,5.11483572 2.82484758,0 5.11483678,-2.2899893 5.11483678,-5.11483572 z"
            stroke-width="0.5pt"
            stroke="black"
            fill="none"
        />
    </g>

    <clipPath id="clip-path-double-circle">
        <use xlink:href="#path-double-circle"/>
    </clipPath>

    <rect id="bounding-box-double-circle"
          x="-10" y="-10" width="20" height="20" />

    <g id="triple-circle">
        <path id="path-triple-circle"
            d="m 1.0426893,-0.00747582 c 0,0.58052301 -0.47060667,1.05113062 -1.05113028,1.05113062 -0.58052248,0 -1.05112832,-0.47060761 -1.05112832,-1.05113062 0,-0.58052246 0.47060584,-1.05112908 1.05112832,-1.05112908 0.58052361,0 1.05113028,0.47060662 1.05113028,1.05112908 z m 1.7217531,-1.25e-6 c 0,1.53142157 -1.2414619,2.77288587 -2.77288499,2.77288587 -1.53142011,0 -2.77287981,-1.2414643 -2.77287981,-2.77288587 0,-1.53142013 1.2414597,-2.77288183 2.77287981,-2.77288183 1.53142309,0 2.77288499,1.2414617 2.77288499,2.77288183 z m 2.3419525,5.5e-7 c 0,-2.82484238 -2.2899892,-5.11483168 -5.11483678,-5.11483168 -2.82484302,0 -5.11483402,2.2899893 -5.11483402,5.11483168 0,2.82484642 2.289991,5.11483572 5.11483402,5.11483572 2.82484758,0 5.11483678,-2.2899893 5.11483678,-5.11483572 z"
            stroke-width="0.5pt"
            stroke="black"
            fill="none"
        />
    </g>

    <clipPath id="clip-path-triple-circle">
        <use xlink:href="#path-triple-circle"/>
    </clipPath>

    <rect id="bounding-box-triple-circle"
          x="-6" y="-6" width="12" height="12" />









    <!-- MULTI-PIECES (backgammon, mancala, etc) -->

    <g id="circle-x1">
        <circle
            cx="0" cy="0"
            r="3"
            stroke-width="0.5pt"
            stroke="black"
            fill="none"
        />
    </g>

    <clipPath id="clip-path-circle-x1">
        <use xlink:href="#path-circle-x1"/>
    </clipPath>

    <rect id="bounding-box-circle-x1"
          x="-11" y="-11" width="22" height="22" />

    <g id="circle-x2">
        <g
            stroke-width="0.5pt"
            stroke="black"
            fill="none">
            <circle cx="-6" cy="6" r="3" />
            <circle cx="6" cy="-6" r="3" />
        </g>
    </g>

    <clipPath id="clip-path-circle-x2">
        <use xlink:href="#path-circle-x2"/>
    </clipPath>

    <rect id="bounding-box-circle-x2"
          x="-11" y="-11" width="22" height="22" />

    <g id="circle-x3">
        <g
            stroke-width="0.5pt"
            stroke="black"
            fill="none">
            <circle cx="0" cy="0" r="3" />
            <circle cx="-6" cy="6" r="3" />
            <circle cx="6" cy="-6" r="3" />
        </g>
    </g>

    <clipPath id="clip-path-circle-x3">
        <use xlink:href="#path-circle-x3"/>
    </clipPath>

    <rect id="bounding-box-circle-x3"
          x="-11" y="-11" width="22" height="22" />

    <g id="circle-x4">
        <g
            stroke-width="0.5pt"
            stroke="black"
            fill="none">
            <circle cx="-6" cy="6" r="3" />
            <circle cx="6" cy="-6" r="3" />
            <circle cx="-6" cy="-6" r="3" />
            <circle cx="6" cy="6" r="3" />
        </g>
    </g>

    <clipPath id="clip-path-circle-x4">
        <use xlink:href="#path-circle-x4"/>
    </clipPath>

    <rect id="bounding-box-circle-x4"
          x="-11" y="-11" width="22" height="22" />

    <g id="circle-x5">
        <g
            stroke-width="0.5pt"
            stroke="black"
            fill="none">
            <circle cx="0" cy="0" r="3" />
            <circle cx="-6" cy="6" r="3" />
            <circle cx="6" cy="-6" r="3" />
            <circle cx="-6" cy="-6" r="3" />
            <circle cx="6" cy="6" r="3" />
        </g>
    </g>

    <clipPath id="clip-path-circle-x5">
        <use xlink:href="#path-circle-x5"/>
    </clipPath>

    <rect id="bounding-box-circle-x5"
          x="-11" y="-11" width="22" height="22" />

    <g id="circle-x6">
        <g
            stroke-width="0.5pt"
            stroke="black"
            fill="none">
            <circle cx="-6" cy="6" r="3" />
            <circle cx="6" cy="-6" r="3" />
            <circle cx="-6" cy="-6" r="3" />
            <circle cx="6" cy="6" r="3" />
            <circle cx="-6" cy="0" r="3" />
            <circle cx="6" cy="0" r="3" />
        </g>
    </g>

    <clipPath id="clip-path-circle-x6">
        <use xlink:href="#path-circle-x6"/>
    </clipPath>

    <rect id="bounding-box-circle-x6"
          x="-11" y="-11" width="22" height="22" />

    <g id="circle-x7">
        <g
            stroke-width="0.5pt"
            stroke="black"
            fill="none">
            <circle cx="0" cy="0" r="3" />
            <circle cx="-6" cy="6" r="3" />
            <circle cx="6" cy="-6" r="3" />
            <circle cx="-6" cy="-6" r="3" />
            <circle cx="6" cy="6" r="3" />
            <circle cx="-6" cy="0" r="3" />
            <circle cx="6" cy="0" r="3" />
        </g>
    </g>

    <clipPath id="clip-path-circle-x7">
        <use xlink:href="#path-circle-x7"/>
    </clipPath>

    <rect id="bounding-box-circle-x7"
          x="-11" y="-11" width="22" height="22" />

    <g id="circle-x8">
        <g
            stroke-width="0.5pt"
            stroke="black"
            fill="none">
            <circle cx="-6" cy="6" r="3" />
            <circle cx="6" cy="-6" r="3" />
            <circle cx="-6" cy="-6" r="3" />
            <circle cx="6" cy="6" r="3" />
            <circle cx="0" cy="-3" r="3" />
            <circle cx="0" cy="3" r="3" />
            <circle cx="-6" cy="0" r="3" />
            <circle cx="6" cy="0" r="3" />
        </g>
    </g>

    <clipPath id="clip-path-circle-x8">
        <use xlink:href="#path-circle-x8"/>
    </clipPath>

    <rect id="bounding-box-circle-x8"
          x="-11" y="-11" width="22" height="22" />

    <g id="circle-x9">
        <g
            stroke-width="0.5pt"
            stroke="black"
            fill="none">
            <circle cx="-6" cy="6" r="3" />
            <circle cx="6" cy="-6" r="3" />
            <circle cx="-6" cy="-6" r="3" />
            <circle cx="6" cy="6" r="3" />
            <circle cx="0" cy="-6" r="3" />
            <circle cx="0" cy="6" r="3" />
            <circle cx="-6" cy="0" r="3" />
            <circle cx="6" cy="0" r="3" />
            <circle cx="0" cy="0" r="3" />
        </g>
    </g>

    <clipPath id="clip-path-circle-x9">
        <use xlink:href="#path-circle-x9"/>
    </clipPath>

    <rect id="bounding-box-circle-x9"
          x="-11" y="-11" width="22" height="22" />








    <!-- DIRECTIONAL PIECES -->

    <g id="east">
        <path id="path-east"
              d="M -5 -4 L -5 4 L 3 3 L 6 0 L 3 -3 Z"
              fill="none"
              stroke="black"
              stroke-width="0.5pt" />
    </g>

    <clipPath id="clip-path-north">
        <g transform="rotate(-90)">
            <use xlink:href="#path-east" />
        </g>
    </clipPath>

    <rect id="bounding-box-north"
          x="-6.5" y="-6.5" width="13" height="13" />

    <g id="north">
        <g transform="rotate(-90)">
            <use xlink:href="#east" />
        </g>
    </g>

    <clipPath id="clip-path-east">
        <use xlink:href="#path-east"/>
    </clipPath>

    <rect id="bounding-box-east"
          x="-7.5" y="-7.5" width="15" height="15" />

    <g id="west">
        <g transform="rotate(-180)">
            <use xlink:href="#east" />
        </g>
    </g>

    <clipPath id="clip-path-west">
        <g transform="rotate(-180)">
            <use xlink:href="#path-east" />
        </g>
    </clipPath>

    <rect id="bounding-box-west"
          x="-7.5" y="-7.5" width="15" height="15" />

    <g id="south">
        <g transform="rotate(-270)">
            <use xlink:href="#east" />
        </g>
    </g>

    <clipPath id="clip-path-south">
        <g transform="rotate(-270)">
            <use xlink:href="#path-east" />
        </g>
    </clipPath>

    <rect id="bounding-box-south"
          x="-7.5" y="-7.5" width="15" height="15" />









    <!-- STACKING PIECES -->

    <g id="small">
        <rect
            x="-4" y="-4"
            width="8" height="8"
            stroke-width="0.7pt"
            stroke="black"
            fill="none"
        />
    </g>

    <clipPath id="clip-path-small">
        <use xlink:href="#path-small"/>
    </clipPath>

    <rect id="bounding-box-small"
          x="-5" y="-5" width="10" height="10" />


    <g id="medium">
        <rect
            x="-9" y="-4"
            width="18" height="8"
            stroke-width="0.7pt"
            stroke="black"
            fill="none"
        />
    </g>

    <clipPath id="clip-path-medium">
        <use xlink:href="#path-medium"/>
    </clipPath>

    <rect id="bounding-box-medium"
          x="-10" y="-5" width="20" height="10" />

    <g id="large">
        <rect
            x="-14" y="-4"
            width="28" height="8"
            stroke-width="0.7pt"
            stroke="black"
            fill="none"
        />
    </g>

    <clipPath id="clip-path-large">
        <use xlink:href="#path-large"/>
    </clipPath>

    <rect id="bounding-box-large"
          x="-15" y="-5" width="30" height="10" />










    <!-- CHESS PIECES -->

    <!--
        Derived from public domain "Chess symbols set"
        attr. Igor Krizanovskij / Anonymous,
        OpenClipArt.org
    -->

    <g id="bishop">
        <path id="path-bishop"
              d="m 1.7201459,1.1654435 0.2432,0.93635 c 0,0.28374 -0.2878,0.44993 -0.8633,0.49857 0.4215,0.16214 0.8147,0.24321 1.1795,0.24321 0.049,0 0.2878,-0.0122 0.7175,-0.0365 0.3567,0 0.6485,0.18646 0.8755,0.55938 0.032,0.0649 0.073,0.13781 0.1216,0.21888 l -0.4378,0.66882 c -0.1297,0.16214 -0.2675,0.26753 -0.4134,0.31617 -0.032,-0.17025 -0.2919,-0.27564 -0.7783,-0.31617 l -0.2918,-0.0243 c -0.9972,-0.0811 -1.67000005,-0.2959 -2.01860005,-0.6445 -0.3162,0.33238 -0.7986,0.52289 -1.44709995,0.57153 -0.1459,0.0162 -0.3364,0.0405 -0.5715,0.073 -0.5918,0.0486 -0.9364,0.13376 -1.0337,0.25536 -0.016,0.0243 -0.028,0.0527 -0.036,0.0851 -0.2108,-0.0892 -0.4094,-0.29185 -0.5959,-0.60802 -0.073,-0.12971 -0.1581,-0.25537 -0.2554,-0.37697 0.2189,-0.40534 0.454,-0.64855 0.7053,-0.72962 0.089,-0.0324 0.1865,-0.0486 0.2919,-0.0486 0,0 0.2391,0.0122 0.7174,0.0365 0.373,0 0.7660999,-0.0811 1.17959995,-0.24321 -0.57559995,-0.0486 -0.86339995,-0.21483 -0.86339995,-0.49857 0,-0.0243 0.065,-0.23104 0.1946,-0.62018 0.04,-0.12971 0.061,-0.21888 0.061,-0.26752 -0.4945,-0.59991003 -0.7418,-1.13091006 -0.7418,-1.59301006 0,-0.53505 0.2635,-1.02145994 0.7904,-1.45923994 0.4701999,-0.39723 0.81069995,-0.60801 1.02149995,-0.63233 -0.1784,-0.21889 -0.2676,-0.44588 -0.2675,-0.68098 -10e-5,-0.38102 0.1905,-0.61612 0.5715,-0.7053 0.089,-0.0243 0.1824,-0.0365 0.2797,-0.0365 0.4053,10e-6 0.66880005,0.14998 0.79040005,0.44993 l 0.061,0.25537 0,0.0365 c 0,0.22699 -0.089,0.45398 -0.26749997,0.68098 0.154,0.0405 0.38499997,0.16619 0.69309997,0.37697 0.7458,0.51884 1.1188,1.0903699 1.1188,1.71459994 0,0.4702 -0.2433,0.98499003 -0.7297,1.54436006 m -1.31580002,-0.97117006 0,-0.58784 0.45410005,0 0,-0.72463004 -0.45410005,0 0,-0.5513599 -0.7003,0 0,0.5513599 -0.4541,0 0,0.72463004 0.4541,0 0,0.58784 0.7003,0 z m -0.3501,-3.58894994 c -0.1622,0 -0.2635,0.073 -0.304,0.21889 l -0.012,0.073 c 0,0.15403 0.081,0.25131 0.2432,0.29185 0.024,0.008 0.049,0.0122 0.073,0.0122 0.2026,0 0.304,-0.10134 0.304,-0.30401 0,-0.19457 -0.1014,-0.29185 -0.304,-0.29185"
              fill="none"
              stroke="black"
              stroke-width="0.3pt" />
    </g>
    <!--
       d="m 1.6559879,0.97977318 0.243206,0.93634612 c -9e-6,0.283742 -0.287804,0.449932 -0.863383,0.498573 0.421549,0.162138 0.814733,0.243208 1.179552,0.243208 0.048633,0 0.287784,-0.012161 0.717459,-0.036482 0.356694,0 0.648541,0.186459 0.875544,0.559377 0.032417,0.064854 0.072953,0.137815 0.121603,0.218885 l -0.437771,0.668816 c -0.129721,0.162139 -0.267538,0.267529 -0.41345,0.316169 -0.03244,-0.170243 -0.291859,-0.275633 -0.778261,-0.316169 l -0.291849,-0.024319 c -0.997157,-0.081069 -1.67002889,-0.295901 -2.01861289,-0.644497 -0.316179,0.332381 -0.798539,0.522893 -1.44707911,0.571534 -0.145924,0.016215 -0.336436,0.040535 -0.571536,0.072963 -0.591803,0.04864 -0.936346,0.133763 -1.033627,0.255367 -0.016214,0.024319 -0.028375,0.052694 -0.036482,0.085121 -0.210776,-0.089175 -0.409397,-0.291848 -0.595855,-0.608015 -0.072963,-0.12971 -0.158084,-0.255367 -0.255367,-0.37697 0.218886,-0.405344 0.453985,-0.64855 0.705298,-0.72962 0.089178,-0.032428 0.186459,-0.048642 0.291848,-0.048642 0,0 0.239153,0.01216 0.71746,0.036482 0.372916,0 0.766099,-0.08107 1.1795511,-0.243208 -0.5755881,-0.048641 -0.8633821,-0.214831 -0.8633821,-0.498573 0,-0.02432 0.064855,-0.231044 0.194565,-0.620176 0.040533,-0.1297111 0.060802,-0.2188871 0.060802,-0.2675271 -0.494521,-0.59990902 -0.74178,-1.13091102 -0.74178,-1.59300302 0,-0.53505488 0.263473,-1.02146788 0.79042,-1.45923898 0.4701901,-0.3972388 0.81067911,-0.6080168 1.02146711,-0.6323368 -0.178361,-0.218886 -0.267536,-0.44588 -0.267527,-0.680979 -9e-6,-0.381023 0.190503,-0.616122 0.571537,-0.705299 0.089165,-0.024311 0.182394,-0.03647 0.279687,-0.03648 0.405332,10e-6 0.66880701,0.149978 0.79041898,0.449931 l 0.060802,0.255367 0,0.036481 c -9e-6,0.226993 -0.089186,0.453985 -0.26752595,0.680979 0.15401998,0.040534 0.38506599,0.166192 0.69313896,0.37697 0.745823,0.5188389 1.11874,1.0903759 1.118749,1.71460578 -9e-6,0.4702 -0.243217,0.984986 -0.72962,1.54436 m -1.44707696,-1.130908 0,-0.559374 0.42561001,0 0,-0.46209588 -0.42561001,0 0,-0.522894 -0.437772,0 0,0.522894 -0.425612,0 0,0.46209588 0.425612,0 0,0.559374 0.437772,0 m -0.218886,-3.42921278 c -0.162148,0 -0.263485,0.072961 -0.30401,0.218887 l -0.012158,0.07296 c -1.1e-5,0.154031 0.081058,0.251314 0.243206,0.291849 0.02431,0.00811 0.04863,0.012159 0.072962,0.012159 0.202661,0 0.303998,-0.101335 0.304008,-0.304008 -1e-5,-0.194566 -0.101347,-0.291847 -0.304008,-0.291847"
    -->
    <clipPath id="clip-path-bishop">
        <use xlink:href="#path-bishop"/>
    </clipPath>

    <rect id="bounding-box-bishop"
          x="-5" y="-5" width="10" height="10" />

    <g id="knight">
        <path id="path-knight"
       d="m -2.1078481,-0.41756082 c 0.215165,0 0.443242,-0.124798 0.684228,-0.37438997 0.1291,-0.12909894 0.1936501,-0.24098691 0.1936501,-0.33565991 0,-0.111888 -0.1032801,-0.167831 -0.3098401,-0.167831 -0.240985,0 -0.443242,0.107584 -0.606768,0.32274997 -0.086069,0.10328097 -0.1291,0.21086394 -0.1291,0.32275191 0,0.154919 0.055942,0.232379 0.16783,0.232379 m -0.154921,-2.13014768 c 0,-0.146315 -0.081764,-0.69714 -0.06455,-0.69714 0.017214,0 0.060246,-0.0043 0.1291,-0.012911 0.387301,0 0.800419,0.129102 1.23935911,0.387302 0.051639,0.034427 0.077461,0.051639 0.077461,0.051639 0.249592,-0.404514 0.438938,-0.60677 0.568038,-0.60677 0.275413,0.15492 0.456155,0.32275 0.54222,0.50349 0.043034,0.086068 0.107584,0.266806 0.19365,0.54222 0.068853,-0.017215 0.137706,-0.025819 0.20656001,-0.025819 0.72295888,0 1.41149088,0.443242 2.06559888,1.3297278 0.783206,1.02419288 1.174809,2.418469 1.174809,4.182835 0,0.395907 -0.017213,0.753082 -0.051639,1.07153 l -5.448018,0 c 0.017215,-0.576647 0.228076,-1.123169 0.63259011,-1.63957 0.043034,-0.068853 0.10328,-0.146312 0.18074,-0.232379 0.318447,-0.404512 0.512096,-0.714352 0.58095,-0.92952 0.034426,-0.1118851 0.060246,-0.2280761 0.07746,-0.3485691 -0.56804,0.223773 -0.99407001,0.5551301 -1.27809011,0.9940701 -0.1291,0.215165 -0.271108,0.43894 -0.42603,0.671319 -0.043034,0.068854 -0.107584,0.103281 -0.193649,0.103281 -0.215166,0 -0.322749,-0.133403 -0.322749,-0.40021 -0.086069,0.111886 -0.185045,0.16783 -0.29693,0.16783 0,0 -0.086068,-0.021518 -0.2582,-0.06455 -0.370086,-0.094675 -0.632589,-0.258201 -0.787511,-0.490581 -0.051639,-0.077459 -0.107582,-0.180739 -0.16783,-0.309838 0.060248,-0.370088 0.357178,-1.10595712 0.890791,-2.20761012 0.3873,-0.79181288 0.628287,-1.35985168 0.72296,-1.70411668 0.00861,-0.07746 0.012909,-0.189345 0.012909,-0.33566 z m -0.839149,3.8342658 c -0.20656,0 -0.344267,0.090369 -0.41312,0.27111 -0.017213,0.043033 -0.02582,0.086066 -0.02582,0.1291 0,0.034426 0.012909,0.07746 0.03873,0.129099 0.223773,0 0.36148,-0.094673 0.413119,-0.284018 0.00861,-0.02582 0.012911,-0.055945 0.012911,-0.09037 0,-0.017214 -0.00861,-0.068853 -0.02582,-0.154921"
              fill="none"
              stroke="black"
              stroke-width="0.3pt" />
    </g>

    <clipPath id="clip-path-knight">
        <use xlink:href="#path-knight"/>
    </clipPath>

    <rect id="bounding-box-knight"
          x="-5" y="-5" width="10" height="10" />

    <g id="king">
        <path id="path-king"
              d="m -0.31482605,-5.0650012 -0.19421,1.059144 -1.18658025,0 -0.0031,0 -0.0125,0 0,0.532057 1.26170025,0.588308 0.06643,0.582991 c -0.5123303,0.308619 -0.67174035,0.592877 -0.71875025,1.171875 -0.53778,-0.3496669 -1.21438,-0.4651199 -1.8875,-0.2968749 -0.0097,0.0029 -0.01857,0.0063 -0.02813,0.0094 -0.61821,0.194596 -0.91797,0.76866091 -0.95312,1.36875001 0.0068,0.26009201 0.08507,0.49750658 0.19687,0.72187454 0.08293,0.17533301 0.18644,0.34236605 0.30625,0.50312505 l 0.25,0.346875 c 0.1198,0.183977 0.21064,0.347446 0.27188,0.4875 0.22971,0.782334 0.18041,2.256162 0.26562,2.315625 l 5.3625006,0 c 0.08521,-0.059463 0.03591,-1.533291 0.26562,-2.315625 0.06124,-0.140054 0.15208,-0.303523 0.27188,-0.4875 l 0.25,-0.346875 c 0.11981,-0.160759 0.22332,-0.32779204 0.30625,-0.50312505 0.1118,-0.22436796 0.19004,-0.46178253 0.19687,-0.72187454 -0.03515,-0.6000891 -0.33491,-1.17415401 -0.95312,-1.36875001 -0.0095,-0.0031 -0.01848,-0.0064 -0.02813,-0.0094 -0.67312,-0.168245 -1.34972,-0.05279 -1.8875,0.2968749 -0.04701,-0.578998 -0.20642003,-0.863256 -0.71875035,-1.171875 l 0.05694,-0.582991 1.27119035,-0.588308 0,-0.532057 -0.0125,0 -0.0031,0 -1.18658035,0 -0.19421,-1.059144 -0.0125,0 -0.09375,0 -0.0125,0 -0.40717,0 -0.09375,0 -0.0125,0 -1e-5,0 z"
              fill="none"
              stroke="black"
              stroke-width="0.3pt" />
    </g>

    <clipPath id="clip-path-king">
        <use xlink:href="#path-king"/>
    </clipPath>

    <rect id="bounding-box-king"
          x="-5" y="-5" width="10" height="10" />

    <g id="queen">
        <path id="path-queen"
       d="m 0.01962721,-3.8557671 c -0.35183,0 -0.6375,0.28255 -0.6375,0.63438 0,0.35183 0.28567,0.6375001 0.6375,0.6375001 0.35183,0 0.63437997,-0.2856701 0.63437997,-0.6375001 0,-0.35183 -0.28254997,-0.63438 -0.63437997,-0.63438 z m -1.89061991,0.39688 c -0.35183,0 -0.6375,0.28567 -0.6375,0.6375 0,0.3518301 0.28567,0.6375001 0.6375,0.6375001 0.35182,0 0.6375,-0.28567 0.6375,-0.6375001 0,-0.35183 -0.28568,-0.6375 -0.6375,-0.6375 z m 3.7875,0 c -0.35183,0 -0.6375,0.28567 -0.6375,0.6375 0,0.3518301 0.28567,0.6375001 0.6375,0.6375001 0.35182,0 0.6375,-0.28567 0.6375,-0.6375001 0,-0.35183 -0.28568,-0.6375 -0.6375,-0.6375 z m -1.96250009,0.9468701 c 0,0.001 0,0.002 0,0.003 0.18958,1.08214 -0.44498,1.82819 -0.58125,2.9 -0.31755,-0.70327 -1.10094991,-1.69214 -1.03749991,-2.6 l -0.14688,0.0312 c 0.30411,0.84832 -0.0889,2.10806 -0.15937,2.78438 -0.50462,-0.48352 -0.90684,-0.67002 -1.11563,-1.6125 l -0.0594,0.0219 c 0.2265,-0.0977 0.38437,-0.32205 0.38437,-0.58437 0,-0.35183 -0.28567,-0.6375 -0.6375,-0.6375 -0.35183,0 -0.6375,0.28567 -0.6375,0.6375 0,0.35182 0.28567,0.63749002 0.6375,0.63749002 0.066,0 0.13078,-0.009 0.19063,-0.0281 l -0.0219,0.009 c 0.4586,0.78179998 -0.13099,1.42206998 0.0563,2.14374998 0.18725,0.7216799 0.8215,1.4705499 0.66875,2.2781199 -0.0315,0.17214 -0.0469,0.52403 -0.0469,0.65313 l 5.15,0 c -1e-5,-0.1291 -0.0153,-0.48099 -0.0469,-0.65313 -0.15275,-0.80757 0.48151,-1.55644 0.66875,-2.2781199 0.18694,-0.72051 -0.40134,-1.36055 0.0531,-2.14061998 0.0455,0.0103 0.092,0.0156 0.14062,0.0156 0.35183,0 0.6375,-0.28567002 0.6375,-0.63750002 0,-0.35183 -0.28567,-0.6375 -0.6375,-0.6375 -0.35183,0 -0.6375,0.28567 -0.6375,0.6375 0,0.24921 0.14461,0.46407 0.35313,0.56875 -0.20922,0.93646998 -0.606,1.12392998 -1.10938,1.60624998 -0.0705,-0.67631 -0.46661,-1.93604998 -0.1625,-2.78436998 l -0.14687,-0.0312 c 0.0634,0.90737 -0.71651002,1.89678998 -1.0343801,2.59999998 -0.13613999,-1.07208 -0.77397999,-1.81768998 -0.58436999,-2.90000998 0,-10e-4 0,-0.002 0,-0.003 l -0.0687,0.003 -0.0688,-0.003 z"
              fill="none"
              stroke="black"
              stroke-width="0.3pt" />
    </g>

    <clipPath id="clip-path-queen">
        <use xlink:href="#path-queen"/>
    </clipPath>

    <rect id="bounding-box-queen"
          x="-5" y="-5" width="10" height="10" />

    <g id="rook">
        <path id="path-rook"
       d="m 3.2239759,4.1783953 -6.467904,0 0,-1.116609 1.303908,-1.290999 0,-2.56908709 -1.006977,-0.99406881 0,-1.4270583 0.161479,-0.083412 1.148988,0.019472 0,0.922749 0.89057911,0 0,-0.922749 1.47194998,0 0,0.922749 0.89057991,0 0,-0.922749 1.148988,-0.019472 0.16148,0.052184 0,1.4582856 -1.006978,0.99406881 0,2.56908709 1.303907,1.290999 0,1.116609 z"
              fill="none"
              stroke="black"
              stroke-width="0.3pt" />
    </g>

    <clipPath id="clip-path-rook">
        <use xlink:href="#path-rook"/>
    </clipPath>

    <rect id="bounding-box-rook"
          x="-5" y="-5" width="10" height="10" />

    <g id="pawn">
        <path id="path-pawn"
              d="m -0.04203529,-1.8681551 c -0.7211301,0.079195 -0.92271,0.769126 -0.59375,1.37187504 -0.76768981,0.34076408 -1.01436971,1.54702096 -0.1312501,1.90312496 -1.13978931,0.541193 -1.36375931,1.617694 -1.35936931,2.76875 l 4.24375,0 c 0.0044,-1.151056 -0.21958,-2.227557 -1.35938026,-2.76875 C 1.6410953,1.0507409 1.3944153,-0.15551598 0.62671506,-0.49628006 0.95568522,-1.0990291 0.75410504,-1.7889597 0.03296471,-1.8681551 c -0.01354,0.00984 -0.02562,0.023774 -0.0375,0.040625 -0.01187,-0.016851 -0.02395,-0.030785 -0.0375,-0.040625 z"
              fill="none"
              stroke="black"
              stroke-width="0.3pt" />
    </g>

    <clipPath id="clip-path-pawn">
        <use xlink:href="#path-pawn"/>
    </clipPath>

    <rect id="bounding-box-pawn"
          x="-3" y="-5" width="6" height="10" />










    <!-- CHINESE CHESS PIECES -->

    <!-- rook == chess rook -->

    <rect id="bounding-box-elephant"
          x="-5" y="-5" width="10" height="10" />

    <g id="elephant">
        <path id="path-elephant"
       d="m 3.5408119,0.85337518 c 0.185515,-0.206265 -0.456141,-0.444313 -0.748647,-0.72662 -0.292507,-0.282306 -0.617687,0.339612 -0.423482,0.641212 0.1942,0.30159902 0.927269,0.25478902 1.172129,0.085408 z M 2.6054459,-1.3723267 c 0.033645,0.153406 -0.083187,0.321969 -0.245244,0.353773 -0.162052,0.031805 -0.340063,-0.078893 -0.373585,-0.232323 -0.033645,-0.153405 0.083187,-0.3219684 0.245239,-0.3537734 0.162058,-0.031804 0.340068,0.078894 0.37359,0.2323234 z m 0.754082,2.984281 c 0.354139,-0.4361121 0.884484,-1.95098712 0.315197,-3.4705888 -0.803036,-2.1435335 -1.504705,-2.1649308 -2.347262,-2.3324407 -1.65118689,-0.3282738 -3.8808533,0.2594445 -5.2058993,1.8599712 -0.430911,0.5204979 0.315791,1.95329518 0.60541,2.41082218 0.662691,1.04688602 1.363213,1.61035312 2.41432111,1.18678702 0.6347613,-0.255791 0.9850553,-2.2868719 0.9850553,-2.2868719 0,0 -0.362937,1.99992388 -0.9733283,2.2724719 0.5699433,0.7285221 0.4676073,1.2384601 1.2197993,0.7627071 0.52487795,-0.347419 1.00193789,-0.9909621 1.46775389,-0.71577 0.465812,0.275192 -0.729652,1.273583 -0.587315,1.917769 0.142337,0.644186 0.547795,1.147062 1.06609,1.165564 0.518296,0.018502 0.780175,-0.075095 1.032497,-0.281002 0.252328,-0.205906 0.577522,-0.426546 0.625647,-0.594516 0.048125,-0.16797 -0.053782,-0.36934 -0.238957,-0.316812 -0.185179,0.052528 -0.461642,0.471465 -0.725539,0.50628 -0.263893,0.034815 -0.558072,-0.134881 -0.668342,-0.540953 -0.110269,-0.406072 0.646044,-1.089213 1.014872,-1.543418 z"
              fill="none"
              stroke="black"
              stroke-width="0.3pt" />
    </g>

    <clipPath id="clip-path-elephant">
        <use xlink:href="#path-elephant"/>
    </clipPath>

    <rect id="bounding-box-cannon"
          x="-5" y="-5" width="10" height="10" />

    <g id="cannon">
        <path id="path-cannon"
       d="m 0.87707496,1.0264392 c 0.48715994,0.5030411 0.47483994,1.3061931 -0.0275,1.7938901 -0.50233995,0.487697 -1.30448995,0.47526 -1.79164025,-0.02778 -0.48716011,-0.503041 -0.47484011,-1.306193 0.02751,-1.79389112 0.5023403,-0.487696 1.3044803,-0.475259 1.79163025,0.027781 z M 1.5943149,0.33017518 c 0.87129,0.89967402 0.84926,2.33609012 -0.0492,3.20832312 -0.89845988,0.872234 -2.33311989,0.849989 -3.2044203,-0.049685 -0.871283,-0.899674 -0.849258,-2.3360901 0.04921,-3.20832412 0.89845041,-0.872233 2.33312039,-0.849988 3.2044103,0.049686 z m 1.15311,-4.12809508 c 0.0044,-0.00284 -3.33126989,1.8455841 -4.2645903,2.5147872 -2.697262,1.93399088 -2.521071,3.220464 -0.79805,4.375231 l -0.914429,0.939926 0.620706,0 0.739863,-0.762477 0.01662,-0.01109 c -0.666944,-0.900014 -0.584272,-2.1765591 0.24108,-2.97781812 0.88068041,-0.854971 2.27792042,-0.850591 3.1534103,-0.00277 l 2.02007,-3.23567518 -0.81468,-0.840112 z"
              fill="none"
              stroke="black"
              stroke-width="0.3pt" />
    </g>

    <clipPath id="clip-path-cannon">
        <use xlink:href="#path-cannon"/>
    </clipPath>

    <rect id="bounding-box-alt-king"
          x="-5" y="-5" width="10" height="10" />

    <g id="alt-king">
        <path id="path-alt-king"
              d="m -1.0630864,-1.3150012 c -0.4169899,-0.0042 -1.1686499,-0.3095929 -1.7624999,-0.2187499 -0.75756,0.09412 -1.0657,0.54769787 -1.06872,1.29062487 4e-5,0.001 -5e-5,0.0021 0,0.0031 -3e-5,0.0021 1e-5,0.0041 0,0.0062 0.01834,0.50155506 0.22645,0.97713964 0.46874,1.40937473 0.20227,0.259102 0.37596,0.540058 0.52188,0.834375 0.22971,0.782334 0.18043,2.256162 0.26562,2.315625 l 0.02188,0 5.2343806,0 0.02187,0 c 0.0852,-0.059463 0.03591,-1.533291 0.26563,-2.315625 0.14123,-0.296982 0.32381,-0.572626 0.52187,-0.834375 0.24658,-0.43355909 0.44403,-0.90750367 0.46875,-1.40937473 0,-0.0021 -10e-5,-0.0042 0,-0.0062 -10e-6,-0.0011 2e-5,-0.0021 0,-0.0031 0.01605,-0.76512997 -0.32976,-1.17237497 -1.06873,-1.29062487 -0.59626,-0.118946 -1.21679,0.1897319 -1.7625,0.2187499 -0.54571031,0.02902 -1.71118065,0.0042 -2.1281707,0 z"
              fill="none"
              stroke="black"
              stroke-width="0.3pt" />
    </g>

    <clipPath id="clip-path-alt-king">
        <use xlink:href="#path-alt-king"/>
    </clipPath>



    <rect id="bounding-box-mandarin"
          x="-3" y="-5" width="6" height="10" />

    <g id="mandarin">
        <path id="path-mandarin"
              d="m -0.31436605,-4.4656112 -0.19375,1.059375 -1.18750025,0 -0.0031,0 -0.0125,0 0,0.53125 1.26250025,0.590625 0.06562,0.58125 -0.3125003,0.50625 c -0.81649995,0.48449097 -1.20258995,1.79013161 -0.20937,2.1906247 -1.35648995,0.644085 -1.62397995,1.923855 -1.61874995,3.29375 l 5.0500006,0 c 0.0052,-1.369895 -0.25914,-2.649665 -1.61563003,-3.29375 C 1.9063143,0.59228541 1.5156643,-0.71835523 0.6950343,-1.1999862 l -0.30938035,-0.503125 0.05938,-0.58125 1.26875035,-0.590625 0,-0.53125 -0.0125,0 -0.0031,0 -1.18438031,0 -0.19376004,-1.059375 -0.0125,0 -0.09375,0 -0.0125,0 -0.40937,0 -0.09375,0 -0.0125,0 z"
              fill="none"
              stroke="black"
              stroke-width="0.3pt" />
    </g>

    <clipPath id="clip-path-mandarin">
        <use xlink:href="#path-mandarin"/>
    </clipPath>

    <rect id="bounding-box-vizier"
          x="-5" y="-5" width="10" height="10" />

    <g id="vizier">
        <path id="path-vizier"
              d="m 0.00796971,-3.8056551 c -0.35182,0 -0.6375,0.2825481 -0.6375,0.634375 0,0.3518269 0.28568,0.6375 0.6375,0.6375 0.35183016,0 0.63437035,-0.2856731 0.63437035,-0.6375 0,-0.3518269 -0.28254019,-0.634375 -0.63437035,-0.634375 z m -0.06563,1.34375 c 0,0.00104 0,0.00208 0,0.00313 0.08045,2.50848412 -2.04200941,4.794779 -3.04061941,1.50312508 l -0.05938,0.021875 c 0.22651,-0.097649 0.38438,-0.32205098 0.38438,-0.58437498 0,-0.351827 -0.28567,-0.6375 -0.6375001,-0.6375 -0.35182,0 -0.6375,0.285673 -0.6375,0.6375 0,0.351826 0.28568,0.63750003 0.6375,0.63750003 0.06597,0 0.1307901,-0.00951 0.1906201,-0.028125 l -0.02187,0.00937 c 0.45861,0.78180207 0.46901,1.42206707 0.65625,2.14375007 0.18724,0.721683 0.2215,1.470553 0.06875,2.278125 -0.03152,0.172132 -0.04686,0.524025 -0.04688,0.653125 l 5.15,0 c -1e-5,-0.1291 -0.01534,-0.480993 -0.04687,-0.653125 -0.15274,-0.807572 -0.11849,-1.556442 0.06875,-2.278125 0.18695,-0.72051 0.19866,-1.360546 0.65312,-2.14062507 0.04548,0.010305 0.09204,0.015625 0.14063,0.015625 0.35183,0 0.6375,-0.28567403 0.6375,-0.63750003 0,-0.351827 -0.28567,-0.6375 -0.6375,-0.6375 -0.35182,0 -0.6375,0.285673 -0.6375,0.6375 0,0.24921 0.14461,0.464074 0.35312,0.56874998 C 1.8891803,2.366295 -0.00335029,0.04985304 0.07984971,-2.45878 c 0,-0.00104 0,-0.00208 0,-0.00312 l -0.1375,0 -1e-5,5e-6 z"
              fill="none"
              stroke="black"
              stroke-width="0.3pt" />
    </g>

    <clipPath id="clip-path-vizier">
        <use xlink:href="#path-vizier"/>
    </clipPath>

    <rect id="bounding-box-small-rook"
          x="-4" y="-5" width="8" height="10" />

    <g id="small-rook">
        <path id="path-small-rook"
              d="m 2.6352143,4.3260705 -5.2679006,0 0,-1.116609 1.30391,-1.090999 0,-1.56908705 -1.00698,-0.99406868 0,-1.02705787 0.16148,-0.08341 4.3510906,0 0.16148,0.05218 0,1.05828587 -1.00698,0.99406868 0,1.56908705 1.3039,1.090999 0,1.116609 z"
              fill="none"
              stroke="black"
              stroke-width="0.3pt" />
    </g>

    <clipPath id="clip-path-small-rook">
        <use xlink:href="#path-small-rook"/>
    </clipPath>

    <rect id="bounding-box-small-rook-with-dot"
          x="-4" y="-5" width="8" height="10" />

    <g id="small-rook-with-dot">
        <path id="path-small-rook-with-dot"
              d="m 2.6128805,4.3163332 -5.2678996,0 0,-1.116609 1.3039096,-1.090999 0,-1.56908695 -1.00698,-0.994069 0,-1.02705795 0.16148,-0.083412 4.35109,0 0.16148,0.052184 0,1.05828595 -1.00698,0.994069 0,1.56908695 1.3039,1.090999 0,1.116609 z M 0.62427044,1.1757163 c 0,-0.35641305 -0.28893,-0.64534305 -0.64534,-0.64534305 -0.35642,0 -0.64534995,0.28893 -0.64534995,0.64534305 0,0.3564129 0.28892995,0.6453439 0.64534995,0.6453439 0.35641,0 0.64534,-0.288931 0.64534,-0.6453439 z"
              fill="none"
              stroke="black"
              stroke-width="0.3pt" />
    </g>

    <clipPath id="clip-path-small-rook-with-dot">
        <use xlink:href="#path-small-rook-with-dot"/>
    </clipPath>










    <!-- SHOGI PIECES -->

    <rect id="bounding-box-gold-general"
          x="-4" y="-5" width="8" height="10" />

    <g id="gold-general">
        <path id="path-gold-general"
              d="m -2.7148191,-3.2690988 c -0.35183,0 -0.6375,0.2856732 -0.6375,0.6375 0,0.3518269 0.28567,0.6375 0.6375,0.6375 0.3518296,0 0.6374996,-0.2856731 0.6374996,-0.6375 0,-0.3518268 -0.28567,-0.6375 -0.6374996,-0.6375 z m 5.3874996,0 c -0.35183,0 -0.6375,0.2856732 -0.6375,0.6375 0,0.3518269 0.28567,0.6375 0.6375,0.6375 0.35183,0 0.6375,-0.2856731 0.6375,-0.6375 0,-0.3518268 -0.28567,-0.6375 -0.6375,-0.6375 z m -5.18125,1.25 -0.1468696,0.03125 c 0.2989396,0.833948 0.6973296,3.20735 0.6437396,3.94375 l -1.2562396,1.24375 0,1.115625 6.4656196,0 0,-1.115625 -1.22188,-1.209375 c -0.06788,-0.685847 0.33419,-3.132009 0.6375,-3.978125 l -0.14687,-0.03125 c 0.06342,0.907376 -0.97063,0.748652 -1.03437,0.8 l -0.02928,0.40000004 -2.85801,0 -0.01584,-0.40000004 c -0.0825,-0.051375 -1.10095,0.107856 -1.0375,-0.8 z"
              fill="none"
              stroke="black"
              stroke-width="0.3pt" />
    </g>

    <clipPath id="clip-path-gold-general">
        <use xlink:href="#path-gold-general"/>
    </clipPath>

    <!-- tokin (promoted pawn) = gold general with dot -->
    <rect id="bounding-box-tokin"
          x="-4" y="-5" width="8" height="10" />

    <g id="tokin">
        <path id="path-tokin"
              d="m -2.6395541,-3.2213665 c -0.3518,0 -0.6375,0.28568 -0.6375,0.6375 0,0.35183 0.2857,0.6375 0.6375,0.6375 0.3519,0 0.6375,-0.28567 0.6375,-0.6375 0,-0.35182 -0.2856,-0.6375 -0.6375,-0.6375 z m 5.3875,0 c -0.3518,0 -0.6375,0.28568 -0.6375,0.6375 0,0.35183 0.2857,0.6375 0.6375,0.6375 0.3519,0 0.6375,-0.28567 0.6375,-0.6375 0,-0.35182 -0.2856,-0.6375 -0.6375,-0.6375 z m -5.1812,1.25 -0.1469,0.0312 c 0.2989,0.8339499 0.6973,3.20735 0.6438,3.94375 l -1.2563,1.24375 0,1.11563 6.4656,0 0,-1.11563 -1.2218,-1.20937 c -0.068,-0.68585 0.3341,-3.1320101 0.6375,-3.97813 l -0.1469,-0.0312 c 0.063,0.9073799 -0.9707,0.74866 -1.0344,0.8 l -0.028,0.39999994 -2.8594,0 -0.016,-0.39999994 c -0.082,-0.0514 -1.101,0.1078599 -1.0375,-0.8 z m 2.48749995,2.55312997 c 0.45950002,0 0.83120002,0.37168 0.83120002,0.83125003 0,0.45957 -0.3717,0.83125 -0.83120002,0.83125 -0.4596,0 -0.8313,-0.37168 -0.8313,-0.83125 0,-0.45957003 0.3717,-0.83125003 0.8313,-0.83125003 z"
              fill="none"
              stroke="black"
              stroke-width="0.3pt" />
    </g>

    <clipPath id="clip-path-tokin">
        <use xlink:href="#path-tokin"/>
    </clipPath>


    <rect id="bounding-box-silver-general"
          x="-4" y="-5" width="8" height="10" />

    <g id="silver-general">
        <path id="path-silver-general"
              d="m -0.03459897,-2.6036215 c -0.72114,0.079196 -0.92272002,0.769126 -0.59376,1.3718753 -0.76769003,0.340764 -1.01438003,1.547021 -0.13124,1.903125 -0.54049003,0.25663 -0.86996003,0.636136 -1.07188003,1.084375 -0.46205,-0.559538 -0.92459,-1.41523 -1.25938,-2.51875 l -0.05937,0.021875 c 0.22651,-0.097649 0.38437,-0.322051 0.38437,-0.584375 0,-0.3518273 -0.28567,-0.6375003 -0.6375,-0.6375003 -0.3518198,0 -0.6374998,0.285673 -0.6374998,0.6375003 0,0.351826 0.28568,0.6375 0.6374998,0.6375 0.06597,0 0.13079,-0.00951 0.19063,-0.028125 l -0.02187,0.00937 c 0.4586,0.781802 0.469,1.422067 0.65624,2.14375 0.18724,0.721683 0.2215,1.470553 0.06876,2.278125 -0.03153,0.172132 -0.04687,0.524025 -0.04688,0.653125 l 5.15,0 c -1e-5,-0.1291 -0.01535,-0.480993 -0.04688,-0.653125 -0.15274,-0.807572 -0.11849,-1.556442 0.06876,-2.278125 0.18694,-0.72051 0.19866,-1.360546 0.65312,-2.140625 0.04548,0.010305 0.09203,0.015625 0.14062,0.015625 0.35183,0 0.6375,-0.285674 0.6375,-0.6375 0,-0.3518273 -0.28567,-0.6375003 -0.6375,-0.6375003 -0.35182,0 -0.6375,0.285673 -0.6375,0.6375003 0,0.24921 0.14462,0.464074 0.35313,0.56875 -0.39589,1.0688 -0.86072,1.903121 -1.30625,2.4625 -0.20401,-0.426354 -0.53279,-0.78731 -1.05311997,-1.034375 0.88312997,-0.356104 0.63643997,-1.562361 -0.13126,-1.903125 0.32897,-0.6027493 0.12739,-1.2926793 -0.59374,-1.3718753 -0.01356,0.00984 -0.02564,0.023774 -0.0375,0.040625 -0.01187,-0.016851 -0.02395,-0.030785 -0.0375,-0.040625 z"
              fill="none"
              stroke="black"
              stroke-width="0.3pt" />
    </g>

    <clipPath id="clip-path-silver-general">
        <use xlink:href="#path-silver-general"/>
    </clipPath>


    <rect id="bounding-box-shogi-knight"
          x="-3" y="-5" width="6" height="10" />

    <g id="shogi-knight">
        <path id="path-shogi-knight"
              d="m -0.53626605,-3.0162572 c -0.04873,0 -0.1214103,0.07855 -0.2156203,0.23125 l -0.02813,-0.02187 c -0.1657,-0.09747 -0.32254995,-0.143751 -0.46874995,-0.143751 -0.02599,0.0033 -0.04037,0.0031 -0.04687,0.0031 -0.0065,0 0.02187,0.207267 0.02187,0.262499 0,0.05523 0,0.09889 -0.0031,0.128126 -0.03574,0.129956 -0.1288,0.144849 -0.275,0.443749 -0.20143,0.415862 -0.31163,0.4915461 -0.33437,0.6312501 0.02274,0.04873 0.043,0.08951 0.0625,0.1187509 0.05848,0.08772 0.15717,0.148636 0.29687,0.184375 l 0.09688,0.025 c 0.04223,0 0.08001,-0.02026 0.1125,-0.0625 0,0.100717 0.04065,0.15 0.12187,0.15 0.03249,0 0.05876,-0.01463 0.075,-0.04063 0.05848,-0.08772 0.11064,-0.171903 0.15937996,-0.253125 0.10721,-0.1656959 0.26994,0.109472 0.4843703,0.025 -0.0065,0.04548 -0.01826,0.08901 -0.03125,0.13125 l -0.4187503,1.05937508 c -0.25814006,0.65305358 -0.59007996,1.40152762 0.16563,1.70624962 -1.13979996,0.541193 -1.36376996,1.617694 -1.35937996,2.76875 l 4.2437506,0 c 0.0044,-1.151056 -0.21958,-2.227557 -1.35937003,-2.76875 0.75538013,-0.304593 0.68557013,-1.23131264 0.16875011,-1.70624962 0.37817002,-0.4867981 -0.02639,-1.50477898 -0.33438007,-1.98437608 -0.24692035,-0.334638 -0.50521035,-0.503125 -0.77812035,-0.503125 -0.026,0 -0.05214,0.006 -0.07813,0.0125 -0.03249,-0.103966 -0.05875,-0.173761 -0.075,-0.206251 -0.03249,-0.06823 -0.09916,-0.132144 -0.20312,-0.190625 l -10e-6,0 -2e-5,0 z"
              fill="none"
              stroke="black"
              stroke-width="0.3pt" />
    </g>

    <clipPath id="clip-path-shogi-knight">
        <use xlink:href="#path-shogi-knight"/>
    </clipPath>

    <rect id="bounding-box-lance"
          x="-3" y="-5" width="6" height="10" />

    <g id="lance">
        <path id="path-lance"
              d="m 0.01534103,-4.013001 c -0.35183,0 -0.6375,0.282548 -0.6375,0.634375 0,0.351827 0.28567,0.6375 0.6375,0.6375 0.35183,0 0.63437,-0.285673 0.63437,-0.6375 0,-0.351827 -0.28254,-0.634375 -0.63437,-0.634375 z m -0.06563,1.34375 0,0.00313 -0.18437,1.034375 c -0.55604,0.1746109 -0.68995002,0.7854068 -0.39375,1.3281248 -0.75476003,0.335019 -1.00596003,1.506571 -0.17500001,1.884375 l -0.0062,0.04375 C -1.906249,2.1731528 -2.123309,3.2341258 -2.118989,4.3682538 l 4.24375,0 c 0.0043,-1.121585 -0.20965,-2.171248 -1.27499997,-2.725 l -0.0125,-0.075 c 0.79529997,-0.391903 0.54253997,-1.540889 -0.20312,-1.871875 0.29061,-0.532482 0.16742,-1.1313704 -0.3625,-1.3187498 l -0.18438,-1.04375 0,-0.00313 -0.1375,0 z"
              fill="none"
              stroke="black"
              stroke-width="0.3pt" />
    </g>

    <clipPath id="clip-path-lance">
        <use xlink:href="#path-lance"/>
    </clipPath>

    <rect id="bounding-box-dragon-king"
          x="-5" y="-5" width="10" height="10" />

    <g id="dragon-king">
        <path id="path-dragon-king"
              d="m -0.33001605,-5.0281112 -0.1875,1.00625 -1.18750025,0 -0.0031,0 -0.01562,0 0,0.553125 1.26562025,0.584375 -0.3343703,1.075 -1.03436995,0 0,-0.921875 -0.94688,-0.01875 -0.1625,0.08125 0,1.428125 1.00625,0.99374997 0,2.16874973 -1.30313,1.290625 0,1.11875 6.4687606,0 0,-1.11875 -1.30626,-1.290625 0,-2.16874973 1.00938,-0.99374997 0,-1.459375 -0.1625,-0.05 -0.95,0.01875 0,0.921875 -1.03438,0 -0.33437035,-1.075 1.26875035,-0.584375 0,-0.553125 -0.01562,0 -0.0031,0 -1.19063031,0 -0.18437004,-1.00625 -0.01563,0 -0.1125,0 -0.0125,0 -0.39687,0 -0.10937,0 -0.01563,0 -6e-5,0 z"
              fill="none"
              stroke="black"
              stroke-width="0.3pt" />
    </g>

    <clipPath id="clip-path-dragon-king">
        <use xlink:href="#path-dragon-king"/>
    </clipPath>

    <rect id="bounding-box-dragon-horse"
          x="-5" y="-5" width="10" height="10" />

    <g id="dragon-horse">
        <path id="path-dragon-horse"
              d="m -0.33001605,-5.0281112 -0.18437,1.00625 -1.19063025,0 -0.0031,0 -0.01562,0 0,0.553125 1.26875025,0.584375 -0.2531303,0.609375 c -0.21122,0.07454 -0.51032995,0.273434 -0.89686995,0.6000001 -0.52695,0.4377709 -0.79063,0.92431987 -0.79063,1.45937497 0,0.46209196 0.24923,0.79071558 0.74376,1.39062463 0,0.04864 -0.02198,0.139039 -0.0625,0.26875 -0.12972,0.389132 -0.19376,0.59443 -0.19376,0.61875 0,0.283742 0.28693,0.451359 0.8624999,0.5 -0.4134499,0.162138 -0.8051999,0.24375 -1.1781199,0.24375 -0.4783,-0.024322 -0.71875,-0.0375 -0.71875,-0.0375 -0.10539,0 -0.20145,0.017572 -0.29063,0.05 -0.25131,0.08107 -0.48737,0.322781 -0.70624,0.728125 0.09728,0.121603 0.18328,0.248415 0.25624,0.378125 0.18646,0.316167 0.3861,0.517075 0.59688,0.60625 0.0081,-0.032427 0.01816,-0.060056 0.03438,-0.084375 0.09728,-0.121604 0.44256,-0.20761 1.03437,-0.25625 0.2351,-0.032428 0.42596,-0.05566 0.57187,-0.071875 0.64854995,-0.048641 1.13070025,-0.239494 1.44688025,-0.571875 0.34859,0.348596 1.02159035,0.562681 2.01875035,0.64375 l 0.29063,0.025 c 0.48641,0.040536 0.74568,0.145382 0.77812,0.315625 0.14591,-0.04864 0.28589,-0.153486 0.41562,-0.315625 l 0.4375,-0.66875 c -0.04864,-0.08107 -0.08945,-0.153896 -0.12187,-0.21875 -0.227,-0.372918 -0.51831,-0.559375 -0.875,-0.559375 -0.42968,0.024321 -0.67012,0.0375 -0.71875,0.0375 -0.36482,0 -0.75658,-0.081612 -1.17812,-0.24375 0.57557,-0.048641 0.86248,-0.216258 0.8625,-0.5 l -0.24376,-0.934375 c 0.48641,-0.55937405 0.73124,-0.87354967 0.73126,-1.34374963 -2e-5,-0.6242301 -0.37293,-1.19678607 -1.11876,-1.71562507 -0.22681,-0.155176 -0.41294004,-0.265221 -0.55624,-0.328125 l -0.26563035,-0.625 1.26875035,-0.584375 0,-0.553125 -0.01562,0 -0.0031,0 -1.19063031,0 -0.18437004,-1.00625 -0.01563,0 -0.10937,0 -0.01563,0 -0.39374,0 -0.1125,0 -0.01563,0 -6e-5,0 z m -0.01875,3.321875 0.7,0 0,0.55 0.45312035,0 0,0.72499997 -0.45312035,0 0,0.58750011 -0.7,0 0,-0.58750011 -0.4531203,0 0,-0.72499997 0.4531203,0 0,-0.55 z"
              fill="none"
              stroke="black"
              stroke-width="0.3pt" />
    </g>

    <clipPath id="clip-path-dragon-horse">
        <use xlink:href="#path-dragon-horse"/>
    </clipPath>






    <!-- BIRDS -->

    <!--
        Copyright Karen Hatzigeorgiou
        but freely licensed for commercial use
        http://karenswhimsy.com/image-ordering.shtm#terms
    -->

    <!-- FAIRY CHESS PIECES -->

    <!-- double-headed pawn -->

    <g id="double-pawn">
        <path id="path-double-pawn"
              d="m 1.5943815,-1.4678814 c 0.3517999,0 0.6374998,0.28568 0.6374998,0.63749993 0,0.35183 -0.2856999,0.6375 -0.6374998,0.6375 -0.3519,0 -0.6374999,-0.28567 -0.6374999,-0.6375 0,-0.35181993 0.2855999,-0.63749993 0.6374999,-0.63749993 z m -3.1875002,0 c 0.022,0 0.044,9.5e-4 0.066,0.003 0.3213,0.0327 0.57190002,0.30454 0.57190002,0.63436993 0,0.28586 -0.18750002,0.52861 -0.44690002,0.60938 -0.06,0.0186 -0.1247,0.0281 -0.1906,0.0281 -0.3519,0 -0.6375,-0.28567 -0.6375,-0.6375 0,-0.35181993 0.2856,-0.63749993 0.6375,-0.63749993 z m 2.9812002,1.24999993 0.1469,0.0312 c -0.2422,0.67554 -0.5463999,1.47962007 -0.6249999,2.12500007 0,0.002 0.01,0.004 0.013,0.006 0.8747998,0.51521 1.1571997,1.31627 1.1999997,2.37188 l -4.2438,0 c 0,-1.12676 0.3783,-1.83291 1.21250004,-2.37813 -0.079,-0.64538 -0.38280004,-1.44946007 -0.62500004,-2.12500007 l 0.1469,-0.0312 c -0.023,0.33465 0.21,0.55388 0.51880004,0.69688 0.01,-0.0241 0.018,-0.0461 0.028,-0.0687 0.039,-0.0933 0.095,-0.17276 0.15940003,-0.24063 0.015,-0.0155 0.031,-0.0296 0.047,-0.0438 0.017,-0.0148 0.036,-0.0304 0.053,-0.0437 0,-9e-4 0,-0.002 0,-0.003 0.091,-0.0683 0.19570007,-0.11694 0.30620007,-0.14686999 0.088,-0.02390001 0.17960006,-0.03790001 0.27190009,-0.03750001 0.092,-4e-4 0.18340002,0.0136 0.27190002,0.03750001 0.1105,0.02989999 0.2148,0.07859999 0.3062,0.14686999 0,9e-4 0,0.002 0,0.003 0.018,0.0134 0.037,0.0289 0.053,0.0437 0.017,0.0148 0.032,0.0276 0.047,0.0438 0,0.001 0,0.002 0,0.003 0.015,0.0158 0.03,0.0328 0.044,0.05 0.001,0.001 0,0.002 0,0.003 0.014,0.0172 0.025,0.0345 0.037,0.0531 0.001,0.001 0,0.002 0,0.003 0.012,0.0188 0.024,0.0392 0.034,0.0594 0,0.001 0,0.002 0,0.003 0.011,0.0203 0.019,0.0409 0.028,0.0625 0,0.001 0,0.002 0,0.003 0.01,0.0226 0.02,0.0447 0.028,0.0688 0.039,-0.0179 0.076,-0.0359 0.1125,-0.0563 0.035,-0.0199 0.0679999,-0.0433 0.0999999,-0.0656 0,-5e-4 0,5e-4 0,0 0.032,-0.0224 0.06,-0.0468 0.087,-0.0719 0.001,-5e-4 0,5e-4 0,0 0.1417,-0.12832 0.2271,-0.29327 0.2125,-0.50312 l 0,2e-5 0,0 z"
              fill="none"
              stroke="black"
              stroke-width="0.3pt" />
    </g>
<!--              d="m -1.6148195,-1.4690988 c -0.35183,0 -0.6375,0.285673 -0.6375,0.63750004 0,0.35182701 0.28567,0.63750001 0.6375,0.63750001 0.35183,0 0.63749997,-0.285673 0.63749997,-0.63750001 0,-0.35182704 -0.28566997,-0.63750004 -0.63749997,-0.63750004 z m 3.1875,0 c -0.35183,0 -0.63750006,0.285673 -0.63750006,0.63750004 0,0.35182701 0.28567006,0.63750001 0.63750006,0.63750001 0.35183,0 0.6375,-0.285673 0.6375,-0.63750001 0,-0.35182704 -0.28567,-0.63750004 -0.6375,-0.63750004 z m -2.98125,1.25000005 -0.14688,0.03125 c 0.23301,0.650017 0.64743997,1.38380395 0.79375999,2.02499995 -1.00629999,0.54605 -1.38541999,1.389038 -1.38125999,2.478125 l 4.24376,0 c 0.0039,-1.025159 -0.33377,-1.831446 -1.21250006,-2.378125 0.07863,-0.645385 0.38283006,-1.44946695 0.62500006,-2.12499995 l -0.14688,-0.03125 c 0.02346,0.33558 -0.2118,0.553901 -0.52188006,0.696875 -0.25609,-0.784268 -1.47317995,-0.770578 -1.73436998,0 -0.30832996,-0.142959 -0.54221996,-0.361117 -0.51874996,-0.696875 z"-->

    <clipPath id="clip-path-double-pawn">
        <use xlink:href="#path-double-pawn"/>
    </clipPath>

    <rect id="bounding-box-double-pawn"
          x="-3" y="-5" width="6" height="10" />

    <!-- triple-headed pawn -->

    <g id="triple-pawn">
        <path id="path-triple-pawn"
              d="m 0.00628158,-2.4647514 c -0.35180009,0 -0.63440016,0.28255 -0.63440016,0.63437 0,0.2394 0.13060002,0.4504 0.32500007,0.55938 -0.24230007,0.0731 -0.4748001,0.2068899 -0.65620017,0.37186993 -0.033,-0.29734993 -0.27070002,-0.53530993 -0.56880002,-0.56561993 -0.021,-0.002 -0.044,-0.003 -0.066,-0.003 -0.3518,0 -0.6375,0.28568 -0.6375,0.63749993 0,0.35183 0.2857,0.6375 0.6375,0.6375 0.066,0 0.1308,-0.009 0.1906,-0.0281 0.034,-0.0105 0.066,-0.0249 0.097,-0.0406 0,0.10272 0.02,0.20515 0.075,0.30625 l 0.081,0.25938 c -0.1554,-0.13142 -0.2529,-0.30166 -0.2375,-0.52188 l -0.1469,0.0312 c 0.2068,0.57706 0.46,1.24877007 0.57810002,1.83438007 -0.97190002,0.54631 -1.16980002,1.38612 -1.16560002,2.46875 l 0.01,0 c 0,0.0653 -0.01,0.13171 -0.01,0.2 l 4.2437,0 c 0,-0.0681 0,-0.13401 -0.01,-0.2 l 0.01,0 c 0,-1.08131 -0.1935999,-1.91926 -1.1624997,-2.46563 0.1179,-0.58627 0.3677999,-1.25952007 0.5749999,-1.83750007 l -0.1468,-0.0312 c 0.015,0.20985 -0.071,0.3748 -0.2124999,0.50313 0,5e-4 0,-5e-4 0,0 -0.01,0.006 -0.015,0.0125 -0.022,0.0187 l 0.081,-0.25938 c 0.055,-0.10011 0.08,-0.2014 0.078,-0.30312 0.086,0.043 0.1819,0.0656 0.2843,0.0656 0.3518999,0 0.6374998,-0.28567 0.6374998,-0.6375 0,-0.35181993 -0.2855999,-0.63749993 -0.6374998,-0.63749993 -0.3277,0 -0.59879996,0.24736 -0.63429996,0.56562993 -0.179,-0.16187003 -0.4089,-0.29545993 -0.6469,-0.36874993 0.1966,-0.10862 0.3312,-0.31902 0.3312,-0.55938 0,-0.35182 -0.2856,-0.63437 -0.63750002,-0.63437 z"
              fill="none"
              stroke="black"
              stroke-width="0.3pt" />
    </g>

    <clipPath id="clip-path-triple-pawn">
        <use xlink:href="#path-triple-pawn"/>
    </clipPath>

    <rect id="bounding-box-triple-pawn"
          x="-3" y="-5" width="6" height="10" />

    <!-- wheeled horse -->

    <rect id="bounding-box-wheeled-knight"
          x="-5" y="-5" width="10" height="10" />

    <g id="wheeled-knight">
        <path id="path-wheeled-knight"
              d="m 2.4382863,0.93242902 c 0.51112,0.52777788 0.49819,1.37042388 -0.02885,1.88210388 -0.52704,0.511679 -1.36864,0.49863 -1.87974024,-0.029146 -0.51112045,-0.527778 -0.49819035,-1.370425 0.02886,-1.88210488 0.52704024,-0.511678 1.36863024,-0.49863 1.87973024,0.029147 z m 0.75251,-0.730502 c 0.91414,0.94391488 0.89103,2.45096588 -0.05162,3.36608988 -0.94264,0.915126 -2.44785024,0.891787 -3.36199069,-0.052128 -0.91412981,-0.943915 -0.89101991,-2.450966 0.05163,-3.36609188 0.94263043,-0.91512401 2.44785069,-0.89178503 3.36198069,0.05213 z M -0.29250429,-4.01025 c -0.1291,0 -0.3191501,0.201736 -0.56875,0.60625 0,0 -0.02648,-0.015573 -0.07812,-0.05 -0.43893971,-0.2582 -0.85332931,-0.3875 -1.24062931,-0.3875 -0.06885,0.00861 -0.11091,0.0125 -0.12812,0.0125 -0.01722,0 0.06562,0.55056 0.06562,0.696875 0,0.146315 -0.0039,0.256915 -0.0125,0.334375 -0.09467,0.344265 -0.3377,0.914437 -0.725,1.7062499 -0.5336102,1.10165312 -0.8303702,1.83616212 -0.8906202,2.2062501 0.06025,0.1290989 0.11711,0.2319159 0.16875,0.3093749 0.15492,0.23238 0.4174102,0.39595 0.7875002,0.490625 l 0.25937,0.065625 c 0.11189,0 0.21081,-0.056864 0.29688,-0.16875 0,0.266807 0.10671,0.4 0.32187,0.4 0.08607,0 0.15072,-0.034271 0.19375,-0.103125 0.1549299,-0.232379 0.2958997,-0.45671 0.4249997,-0.671875 0.2087399,-0.3225949 0.49410971,-0.58737488 0.85624971,-0.79374988 0.10511,-0.177032 0.23587,-0.343514 0.39063,-0.49375 0.94263033,-0.91512401 2.44836059,-0.89079003 3.36250059,0.053125 0.39993,0.412963 0.61987,0.93381188 0.6625,1.46562488 -0.10912,-1.36605088 -0.48846,-2.47528889 -1.14063,-3.3281249 -0.6541,-0.886486 -1.34266,-1.33125 -2.06562024,-1.33125 -0.06886,0 -0.13740004,0.01091 -0.20625015,0.028125 -0.08607,-0.275414 -0.15072016,-0.457682 -0.1937502,-0.54375 -0.08607,-0.18074 -0.26521,-0.348205 -0.5406301,-0.503125 z M -1.520624,-1.879 c 0.2065599,0 0.3093698,0.053737 0.3093698,0.165625 0,0.094673 -0.06465,0.2084009 -0.1937499,0.3374999 -0.2409799,0.249592 -0.4692096,0.375 -0.6843696,0.375 -0.11189,0 -0.16563,-0.079456 -0.16563,-0.234375 0,-0.111888 0.04206,-0.218594 0.12813,-0.321875 C -1.9633537,-1.772291 -1.7616137,-1.879 -1.520624,-1.879 z m -1.5624997,2.58125002 c 0.01721,0.086068 0.025,0.135911 0.025,0.153125 0,0.034425 -0.0039,0.064805 -0.0125,0.090625 -0.05164,0.18934488 -0.18873,0.28437488 -0.4125002,0.28437488 -0.02582,-0.051639 -0.0375,-0.093699 -0.0375,-0.1281249 0,-0.043034 0.0078,-0.085092 0.025,-0.12812498 0.06885,-0.180741 0.2059402,-0.271875 0.4125002,-0.271875 z"
              fill="none"
              stroke="black"
              stroke-width="0.3pt" />
    </g>

    <clipPath id="clip-path-wheeled-knight">
        <use xlink:href="#path-wheeled-knight"/>
    </clipPath>

    <rect id="bounding-box-wheeled-elephant"
          x="-5" y="-5" width="10" height="10" />

    <g id="wheeled-elephant">
        <path id="path-wheeled-elephant"
              d="m -0.20330329,0.53409202 c 0.87129035,0.89967388 0.84926035,2.33608988 -0.0492,3.20832288 -0.89845991,0.872234 -2.33311941,0.849989 -3.20441941,-0.049685 -0.87129,-0.899674 -0.84926,-2.33609 0.04921,-3.20832388 0.89845,-0.87223308 2.3331194,-0.84998808 3.20440941,0.049686 z m -0.7172401,0.69626388 c 0.4871601,0.5030411 0.4748401,1.306193 -0.0275,1.79389 -0.50233981,0.487697 -1.30448941,0.47526 -1.79163941,-0.02778 -0.48716,-0.503041 -0.47484,-1.306193 0.02751,-1.793891 0.50234,-0.48769588 1.3044796,-0.47525888 1.79162931,0.027781 z m 1.3676803,-5.511011 c -1.47548031,0.015134 -3.15151961,0.6464471 -4.22811961,1.946875 -0.43091,0.5204979 0.31662,1.95497304 0.60624,2.41250012 0.03119,0.04926 0.06237,0.096683 0.09376,0.14375 0.88583,-0.58903008 2.08958941,-0.486095 2.86249941,0.296875 0.17591,-0.416116 0.30641,-0.90660108 0.37812,-1.221875 -0.06971,0.31692892 -0.1926,0.813386 -0.36875,1.23125 0.0021,0.00211 0.0042,0.00413 0.0062,0.00625 0.40687,0.420121 0.6185102,0.95789888 0.6375002,1.49999988 0.01283,-0.00783 0.02414,-0.013424 0.0375,-0.021875 0.52488025,-0.347419 0.99981029,-0.9908169 1.46562029,-0.715625 0.46582,0.275192 -0.72983,1.271439 -0.5875,1.915625 0.14233,0.644186 0.55046,1.147123 1.06876,1.165625 0.51829,0.018502 0.77892,-0.075343 1.03124,-0.28125 0.25234,-0.205906 0.57689,-0.42578 0.625,-0.59375 0.04813,-0.16797 -0.05232,-0.368153 -0.2375,-0.315625 -0.18516,0.052528 -0.46111,0.471435 -0.725,0.50625 -0.26389,0.034815 -0.55847,-0.134553 -0.66874,-0.540625 -0.11027,-0.406072 0.64366,-1.089545 1.0125,-1.54375 0.35414,-0.436112 0.88491,-1.95227296 0.31562,-3.471875 -0.80303,-2.1435335 -1.50431,-2.1637401 -2.34688,-2.33125 -0.30959,-0.061551 -0.63762026,-0.090993 -0.97812032,-0.0875 z m 1.94375039,2.66875 c 0.1431,0.00198 0.28317,0.10325 0.3125,0.2375 0.03365,0.153406 -0.08169,0.321321 -0.24375,0.353125 -0.16205,0.031805 -0.34147,-0.07782 -0.375,-0.23125 -0.03364,-0.153405 0.08483,-0.32132 0.24688,-0.353125 0.02025,-0.00397 0.03893,-0.00653 0.05937,-0.00625 z m -2.16563059,0.590625 c 0,0 -0.0234,0.1233371 -0.06562,0.31562512 0.04356,-0.19175102 0.06562,-0.31562512 0.06562,-0.31562512 z M 2.7252573,0.05372002 c 0.05351,-0.00257 0.11079,0.018943 0.16563,0.071875 0.29251,0.282307 0.93238,0.518735 0.74687,0.725 -0.24485,0.16938098 -0.97767,0.21722388 -1.17187,-0.084375 -0.15779,-0.24505 0.02753,-0.701346 0.25937,-0.7125 z"
              fill="none"
              stroke="black"
              stroke-width="0.3pt" />
    </g>

    <clipPath id="clip-path-wheeled-elephant">
        <use xlink:href="#path-wheeled-elephant"/>
    </clipPath>

    <rect id="bounding-box-wheeled-super-elephant"
          x="-5" y="-5" width="10" height="10" />

    <g id="wheeled-super-elephant">
        <path id="path-wheeled-super-elephant"
              d="m -0.49879696,0.93149797 c 0.5356,0.55307003 0.5221,1.43609003 -0.03,1.97228003 -0.55230004,0.53619 -1.43420004,0.52252 -1.96980004,-0.0305 -0.5356,-0.55307 -0.5221,-1.43608 0.03,-1.97228003 0.5523,-0.53619001 1.4342,-0.52252001 1.96980004,0.0305 z m 0.7886,-0.76550001 C 1.247703,1.155138 1.223503,2.734388 0.23580304,3.693358 c -0.9878,0.95897 -2.56510004,0.93451 -3.52310004,-0.0546 -0.9579,-0.98914 -0.9337,-2.56839 0.054,-3.52736004 0.9878,-0.95897 2.56520004,-0.93451 3.52310004,0.0546 z m -0.9659,-4.54532996 c -1.51940004,0.0203 -2.96250004,0.7794 -4.14010004,2.30539 -0.4539,0.58816 0.4204,2.13309996 0.7559,2.62490996 0.09,0.13203 0.1802,0.25805 0.2714,0.37450001 0.1262,-0.29682001 0.3108,-0.57563001 0.5566,-0.81427001 0.763,-0.74075 1.877,-0.89486 2.78640004,-0.4707 0.027,-0.13544 0.019,-1.06452996 0.065,-1.12358996 0.1781,-0.22969 -0.032,0.99022996 -0.059,1.12701996 0.2653,0.12474 0.5124,0.29912 0.7284,0.52224 0.4242,0.43803 0.6534,0.99203004 0.6941,1.55639004 0.50359996,0.29025 0.90269996,0.81953 1.45669996,1.09257 0.35,0.1725 1.4004,0.46605 2.2916,-0.91391 0.8913,-1.37996004 -1.3787,-3.9502 -0.3779,-4.56611 0.305,-0.18766 0.5169,0.14172 0.5635,-0.0447 0.046,-0.18638 0.082,-0.27585 -0.052,-0.45352 -0.1259,-0.16758 0.4448,-1.15544 -0.9379,-0.0172 -1.3828,1.13826 1.0092,3.79425996 0.268,4.66918 -0.1976,0.57626 -1.3391,0.92713 -1.5702,0.49818 -0.075,-0.13964 -10e-4,-0.43023 0.1031,-0.80053 -0.3111,0.16396 -1.0148,0.21111 -1.2231,-0.0893 -0.2248,-0.32407004 0.1077,-1.02068004 0.4398,-0.72150004 0.2466,0.22218 0.7064,0.40971 0.8452,0.58751002 0.2119,-0.75751002 0.4677,-1.79890002 0.052,-2.80356998 -0.9632,-2.32504 -1.7375,-2.32143 -2.66959996,-2.47374 -0.2854,-0.0466 -0.5672,-0.069 -0.8486,-0.0653 z M 2.790603,0.96325798 c -0.023,0.0807 -0.041,0.14947002 -0.062,0.22332002 0.025,-0.0129 0.05,-0.027 0.069,-0.0412 0.051,-0.0601 0.041,-0.12048 -0.01,-0.18209002 l 0,0 z M 1.333803,-1.513912 c 0.1573,-0.003 0.3132,0.1044 0.3504,0.25081 0.043,0.16729 -0.081,0.35404996 -0.2576,0.39510996 -0.1769,0.041 -0.3766,-0.0732 -0.4192,-0.24050996 -0.043,-0.16729 0.081,-0.35749 0.2577,-0.39854 0.022,-0.005 0.046,-0.006 0.069,-0.007 l 0,0 z"
              fill="none"
              stroke="black"
              stroke-width="0.3pt" />
    </g>

    <clipPath id="clip-path-super-elephant">
        <use xlink:href="#path-super-elephant"/>
    </clipPath>

    <rect id="bounding-box-super-elephant"
          x="-5" y="-5" width="10" height="10" />

    <g id="super-elephant">
        <path id="path-super-elephant"
              d="m 2.7861985,1.2027059 c 0.19606,-0.2336351 -0.51795,-0.47102 -0.84999,-0.770195 -0.33206,-0.29917398 -0.66592,0.396439 -0.44116,0.720517 0.22474,0.3240781 1.02848,0.2450171 1.29115,0.049678 z m -1.11164,-2.4103406 c 0.04275,0.1672951 -0.07929,0.35691302 -0.25616,0.397966 -0.17684,0.041056 -0.37663,-0.073873 -0.41922998,-0.2411969 -0.04276,-0.1672951 0.07927,-0.3569111 0.25612998,-0.3979641 0.17688,-0.041049 0.37664,0.073872 0.41926,0.241195 z m 0.94103,3.650695 c -0.36525,-0.7242232 0.89834,-2.57706328 0.21555,-4.2253369 -0.96314,-2.3250393 -1.33495,-2.3221103 -2.2670498,-2.474419 -1.8266896,-0.2984835 -3.9948202,0.4313167 -5.3904502,2.239897 -0.45387,0.5881559 0.42059,2.13436552 0.75607,2.6261785 0.7676,1.1253402 1.5585601,1.7180754 2.6975506,1.2130552 0.68785012,-0.3049811 0.99621,-2.54991882 0.99621,-2.54991882 0,0 -0.32342988,2.21117972 -0.98386,2.53365382 -1.1907405,0.6271582 -2.2734106,-0.166541 -3.2110906,-2.101136 -0.43724,0.37812984 -0.4786,4.5369492 -0.24521,4.5374682 l 5.05288034,0.011237 c 0.18637992,4e-4 -0.2543499,-1.436687 -0.22752992,-1.655477 0.07213,-0.5884861 0.40391984,-1.1266183 0.92610962,-0.8417922 0.52220996,0.2848261 0.92691996,1.2341592 1.49504996,1.5141582 0.35,0.172501 1.40005,0.468782 2.29127,-0.91118 0.89124,-1.3799625 -1.37733,-4.3498579 -0.3765,-4.9657629 0.30495,-0.187661 0.51482,0.139519 0.56138,-0.046859 0.04655,-0.186377 0.08485,-0.2735859 -0.04867,-0.4512525 -0.12594,-0.1675788 0.44253,-1.157814 -0.94021,-0.019551 -1.38274,1.1382648 1.01064,4.1939132 0.26941,5.0688296 -0.19757,0.5762651 -1.20566,1.2224311 -1.57091,0.4982081 z"
              fill="none"
              stroke="black"
              stroke-width="0.3pt" />
    </g>

    <clipPath id="clip-path-wheeled-super-elephant">
        <use xlink:href="#path-wheeled-super-elephant"/>
    </clipPath>

    <rect id="bounding-box-elephant-queen"
          x="-5" y="-5" width="10" height="10" />

    <g id="elephant-queen">
        <path id="path-elephant-queen"
              d="m 2.0914814,0.37070042 c 0.02464,0.10556 -0.06091,0.221551 -0.17958,0.2434359 -0.11868,0.021886 -0.24902,-0.054287 -0.27358,-0.1598649 -0.02463,-0.105559 0.06092,-0.221552 0.17959,-0.243437 0.11867,-0.021885 0.24903,0.054289 0.27357,0.159866 z m 0.68496,1.53153788 c 0.13584,-0.141934 -0.33403,-0.305738 -0.54822,-0.499998 -0.2142,-0.194259 -0.45232,0.233693 -0.31011,0.441228 0.1422,0.207534 0.67902,0.175324 0.85833,0.05877 z m -2.81913,-5.167087 0,0.00313 c 0.16603,0.8905717 -0.39005,0.9054307 -0.50937,1.7875 -0.27812001,-0.5787706 -0.96495,-0.7934876 -0.90938,-1.540625 l -0.12812,0.025 c 0.2663,0.6981424 -0.07576,1.1340418 -0.1375,1.6906251 -0.44196,-0.3979141 -0.79527,0.050634 -0.97813,-0.7250001 l -0.05313,0.015625 c 0.19839,-0.080362 0.3375,-0.2622397 0.3375,-0.478125 0,-0.289543 -0.25125,-0.525 -0.55937,-0.525 -0.30812,0 -0.55625,0.235457 -0.55625,0.525 0,0.2895421 0.24813,0.521875 0.55625,0.521875 0.05096,0 0.10291,-0.00368 0.15,-0.015625 0.36936,0.5916821 0.02776,1.31578312 0.02187,1.82500012 -0.0096,0.8342049 0.38828,1.22000788 0.59376,1.52499988 0.48525,0.720379 0.99907,1.107086 1.76874,0.815625 0.46486,-0.176014 0.72188,-1.57187498 0.72188,-1.57187498 0,0 -0.26551,1.37495498 -0.7125,1.56249998 0.41736,0.501306 0.34294,0.852374 0.89375,0.525 0.38436,-0.239063 0.7339,-0.67999 1.075,-0.490625 0.34111,0.189364 -0.53548004,0.875477 -0.43125,1.31875 0.10423,0.443276 0.40171,0.790393 0.78125,0.803125 0.37954,0.012731 0.57148,-0.052063 0.75625,-0.19375 0.18477,-0.141688 0.42101,-0.293792 0.45625,-0.409375 0.03524,-0.115583 -0.03939,-0.254896 -0.175,-0.21875 -0.13559,0.036145 -0.338,0.322918 -0.53125,0.346875 -0.19324,0.023957 -0.40675,-0.09245 -0.4875,-0.371875 -0.08074,-0.279423 0.47367,-0.746831 0.74375,-1.059375 0.25518,-0.295293 0.9041,-1.70249798 0.19687,-2.56874988 -0.33633,-0.411952 -0.34696,-1.23944402 0.02188,-1.83437512 0.03983,0.00848 0.08244,0.0125 0.125,0.0125 0.30812,0 0.55625,-0.2323329 0.55625,-0.521875 0,-0.2895422 -0.24813,-0.525 -0.55625,-0.525 -0.30813,0 -0.55938,0.2354578 -0.55938,0.525 0,0.2050923 0.12676,0.3794792 0.30938,0.465625 -0.18324,0.7706821 -0.531,0.324932 -0.97188,0.7218701 -0.06175,-0.5565817 -0.41008,-0.9924836 -0.14374,-1.6906251 l -0.12813,-0.025 c 0.05554,0.7467435 -0.62786,0.9619119 -0.90625,1.540625 -0.11924,-0.8822869 -0.67541,-0.8967914 -0.50938,-1.7875 l 0,-0.00313 -0.0625,0.00313 -0.05937,-0.00313 z m 1.71905,-0.7792663 c -0.30813,0 -0.55833,0.2350992 -0.55833,0.5246422 0,0.2895431 0.2502,0.5246432 0.55833,0.5246432 0.30812,0 0.55831,-0.2351001 0.55831,-0.5246432 0,-0.289543 -0.25019,-0.5246422 -0.55831,-0.5246422 z m -3.31707,0 c -0.30813,0 -0.55832,0.2350992 -0.55832,0.5246422 0,0.2895431 0.25019,0.5246432 0.55832,0.5246432 0.30813,0 0.55832,-0.2351001 0.55832,-0.5246432 0,-0.289543 -0.25019,-0.5246422 -0.55832,-0.5246422 z m 1.6558,-0.326616 c -0.30813,0 -0.55832,0.2325279 -0.55832,0.522071 0,0.2895421 0.25019,0.5246422 0.55832,0.5246422 0.30812,0 0.55558,-0.2351001 0.55558,-0.5246422 0,-0.2895431 -0.24746,-0.522071 -0.55558,-0.522071 z"
              fill="none"
              stroke="black"
              stroke-width="0.3pt" />
    </g>

    <!--              d="m 0.00642471,-4.2965224 c -0.30813,0 -0.55832,0.2325279 -0.55832,0.522071 0,0.2895421 0.25019,0.5246422 0.55832,0.5246422 0.30812008,0 0.55558035,-0.2351001 0.55558035,-0.5246422 0,-0.2895431 -0.24746027,-0.522071 -0.55558035,-0.522071 z m -1.65579971,0.326616 c -0.3081297,0 -0.5583197,0.2350992 -0.5583197,0.5246422 0,0.2895431 0.25019,0.5246432 0.5583197,0.5246432 0.3081299,0 0.5583197,-0.2351001 0.5583197,-0.5246432 0,-0.289543 -0.2501898,-0.5246422 -0.5583197,-0.5246422 z m 3.3170703,0 c -0.30813,0 -0.55833,0.2350992 -0.55833,0.5246422 0,0.2895431 0.2502,0.5246432 0.55833,0.5246432 0.30812,0 0.55831,-0.2351001 0.55831,-0.5246432 0,-0.289543 -0.25019,-0.5246422 -0.55831,-0.5246422 z m -1.71875069,0.7792481 c 0,8.7e-4 0,0.00171 0,0.00257 0.16603,0.8905717 -0.38971,0.9049849 -0.50905,1.7870542 -0.2781,-0.5787706 -0.96420971,-0.7930255 -0.90863971,-1.5401629 L -1.597375,-2.91548 c 0.2663299,0.6981424 -0.07782,1.1353154 -0.1395697,1.6918986 -0.44195,-0.3979136 -0.79421,0.048153 -0.97707,-0.7274813 l -0.052,0.018003 c 0.19838,-0.080362 0.33663,-0.2650378 0.33663,-0.4809231 0,-0.289543 -0.25019,-0.5246423 -0.55831,-0.5246423 -0.30812,0 -0.5583201,0.2350993 -0.5583201,0.5246423 0,0.2895421 0.2502001,0.5246431 0.5583201,0.5246431 0.05778,0 0.11454,-0.00783 0.16695,-0.023146 l -0.01916,0.00771 c 0.40164,0.6433985 -0.11473,1.17031659 0.04926,1.76423962 l 5.5996,0 c 0.16373,-0.59295803 -0.35148,-1.11968712 0.04653,-1.76166752 0.03983,0.00849 0.0806,0.012859 0.12316,0.012859 0.30812,0 0.55831,-0.235101 0.55831,-0.5246431 0,-0.2895422 -0.25019,-0.5246422 -0.55831,-0.5246422 -0.30813,0 -0.55832,0.2351 -0.55832,0.5246422 0,0.2050923 0.12665,0.3819186 0.30927,0.4680644 -0.18324,0.7706875 -0.53073,0.3253989 -0.97159,0.7223365 -0.06176,-0.5565816 -0.40865,-0.9937556 -0.14232,-1.6918971 l -0.12863,-0.025718 c 0.05554,0.7467435 -0.62750026,0.9614492 -0.90589024,1.5401623 -0.11924012,-0.8822869 -0.67785035,-0.8963441 -0.51180035,-1.7870527 0,-8.7e-4 0,-0.00171 0,-0.00257 l -0.06021,0.00257 -0.06021,-0.00257 0,4.4e-6 0,-3.5e-6 z M 2.7677753,1.9764469 c 0.13584,-0.141934 -0.33403,-0.305738 -0.54822,-0.499998 -0.2142,-0.194259 -0.45232,0.233693 -0.31011,0.441228 0.1422,0.207534 0.67902,0.175324 0.85833,0.05877 z m -0.68496,-1.53153788 c 0.02464,0.10556 -0.06091,0.221551 -0.17958,0.243436 -0.11868,0.021886 -0.24902,-0.054287 -0.27358,-0.159865 -0.02463,-0.105559 0.06092,-0.221552 0.17959,-0.243437 0.11867,-0.021885 0.24903,0.054289 0.27357,0.159866 z m 0.5522,2.05352788 c 0.25933,-0.300095 0.59523,-1.57255188 0.17835,-2.61821288 l -5.60099,0.00354 c -0.31554,0.358162 0.35366,1.24549988 0.56574,1.56032988 0.48528,0.720379 0.9982595,1.108108 1.76795931,0.816647 0.46484,-0.176014 0.7213501,-1.57363188 0.7213501,-1.57363188 0,0 -0.2657701,1.37617788 -0.7127601,1.56372288 0.41736,0.501306 0.34243,0.852203 0.8932403,0.524829 0.38436013,-0.239063 0.73371039,-0.681896 1.07481039,-0.492531 0.34111,0.189364 -0.53431004,0.876371 -0.43008,1.319644 0.10423,0.443276 0.40114,0.789311 0.78068,0.802043 0.37954,0.012731 0.57131,-0.051674 0.75608,-0.193361 0.18477,-0.141688 0.42291,-0.293513 0.45815,-0.409096 0.03524,-0.115583 -0.03938,-0.254149 -0.17499,-0.218003 -0.13559,0.036145 -0.33804,0.324422 -0.53129,0.348379 -0.19324,0.023957 -0.40867,-0.092814 -0.48942,-0.372239 -0.08074,-0.279423 0.47309,-0.749504 0.74317,-1.062048 l 0,-8e-6 0,-4e-6 z"-->


    <clipPath id="clip-path-elephant-queen">
        <use xlink:href="#path-elephant-queen"/>
    </clipPath>

    <!-- night rider = knight with extra movement -->

    <rect id="bounding-box-nightrider"
          x="-5" y="-5" width="10" height="10" />

    <g id="nightrider">
        <g transform="rotate(180)">
            <use xlink:href="#knight" />
        </g>
    </g>

    <clipPath id="clip-path-nightrider">
        <use xlink:href="#path-nightrider"/>
    </clipPath>

    <rect id="bounding-box-grasshopper"
          x="-5" y="-5" width="10" height="10" />

    <g id="grasshopper">
        <g transform="rotate(180)">
            <use xlink:href="#queen" />
        </g>
    </g>

    <clipPath id="clip-path-grasshopper">
        <use xlink:href="#path-grasshopper"/>
    </clipPath>

    <!-- archbishop = knight + bishop -->

    <rect id="bounding-box-archbishop"
          x="-5" y="-5" width="10" height="10" />

    <g id="archbishop">
        <path id="path-archbishop"
       d="m -3.4051056,0.32635718 c -0.180119,0 -0.300199,0.078791 -0.360238,0.236374 -0.01501,0.037519 -0.022515,0.075039 -0.022515,0.112559 0,0.030015 0.011257,0.067535 0.033772,0.112558 0.195129,0 0.315209,-0.082543 0.360238,-0.247628 0.00751,-0.022512 0.011258,-0.048777 0.011258,-0.078791 0,-0.015009 -0.00751,-0.060031 -0.022515,-0.135072 m 2.43106211,-4.10732178 c -0.11257401,0 -0.27610701,0.1754395 -0.49375011,0.528125 0,0 -0.023721,-0.013734 -0.06875,-0.04375 -0.382754,-0.225118 -0.743525,-0.340625 -1.08125,-0.340625 -0.017753,0.018533 -0.020689,0.465036 -0.05625,0.621875 0,0.1275683 -0.00186,0.2230896 -0.00937,0.290625 -0.082554,0.3001558 -0.293526,0.7971385 -0.63125,1.4874999 -0.465308,0.96050188 -0.725589,1.60232988 -0.778125,1.92499988 0.052536,0.112558 0.101846,0.201215 0.146875,0.26875 0.135091,0.20260602 0.364787,0.34558012 0.6875,0.42812512 0.150099,0.037518 0.225,0.05625 0.225,0.05625 0.097564,0 0.184323,-0.049325 0.259375,-0.146875 0,0.232622 0.093627,0.35 0.28125,0.35 0.075048,0 0.131225,-0.030593 0.16875,-0.090625 0.135091,-0.202605 0.259301,-0.3967781 0.371875,-0.58437512 0.247664,-0.3827 0.617172,-0.673648 1.11250011,-0.86875 -0.015011,0.105055 -0.035606,0.2087 -0.065625,0.30625 -0.06004,0.187599 -0.28799401,0.501384 -0.50625011,0.80937502 -0.218257,0.3079911 -0.720242,0.6935501 -0.525,0.6937501 0.424349,-0.017785 0.57626,0.405007 1.02500011,0.50313 -0.41345211,0.162138 -0.80833411,0.24375 -1.18125011,0.24375 l -0.715625,-0.034375 c -0.105389,0 -0.204572,0.014447 -0.29375,0.046875 -0.251313,0.08107 -0.484239,0.325906 -0.703125,0.73125 0.097283,0.121603 0.180162,0.24529 0.253125,0.375 0.186458,0.316167 0.386099,0.5202 0.596875,0.609375 0.00811,-0.032427 0.021286,-0.060056 0.0375,-0.084375 0.097281,-0.121604 0.439447,-0.20761 1.03125,-0.25625 0.2351,-0.032428 0.425951,-0.05566 0.571875,-0.071875 0.64853961,-0.048641 1.13069561,-0.239494 1.44687461,-0.571875 0.348584,0.348596 1.02159289,0.562681 2.01874989,0.64375 l 0.29375,0.025 c 0.486402,0.040536 0.745685,0.145382 0.778125,0.315625 0.145912,-0.04864 0.282779,-0.153486 0.4125,-0.315625 l 0.4375,-0.66875 c -0.04865,-0.08107 -0.089458,-0.153896 -0.121875,-0.21875 -0.227003,-0.372918 -0.518306,-0.559375 -0.875,-0.559375 -0.429675,0.024321 -0.670117,0.034375 -0.71875,0.034375 -0.364819,0 -0.541834,-0.135297 -0.963383,-0.297435 0.290516,0.00253 0.842486,-0.509421 1.158216,-0.49944 0,-1.53830512 -0.218132,-2.70078206 -0.901083,-3.5937501 -0.570379,-0.7729044 -1.17270789,-1.1593748 -1.80312489,-1.1593748 -0.06004,0 -0.118085,0.00687 -0.178125,0.021875 -0.075049,-0.2401265 -0.134349,-0.3968345 -0.171875,-0.471875 -0.075048,-0.1575826 -0.231716,-0.3024292 -0.4718745,-0.4375 l -5e-6,-5e-6 z m -1.56423811,2.6215509 c 0.187623,0 0.386505,-0.108808 0.596643,-0.326421 0.112575,-0.1125581 0.168862,-0.2101101 0.168862,-0.2926531 0,-0.097553 -0.090059,-0.1463281 -0.270179,-0.1463281 -0.210137,0 -0.386504,0.0938 -0.529098,0.2813981 -0.075052,0.090048 -0.112575,0.1838471 -0.112575,0.2813991 0,0.13507 0.048782,0.202605 0.146347,0.202605"
              fill="none"
              stroke="black"
              stroke-width="0.3pt" />
    </g>

    <clipPath id="clip-path-archbishop">
        <use xlink:href="#path-archbishop"/>
    </clipPath>

    <!-- chancellor = knight + rook -->

    <rect id="bounding-box-chancellor"
          x="-5" y="-5" width="10" height="10" />

    <g id="chancellor">
        <path id="path-chancellor"
       d="m -3.0129181,0.32635718 c -0.180119,0 -0.300199,0.078791 -0.360238,0.236374 -0.01501,0.037519 -0.022515,0.075039 -0.022515,0.112559 0,0.030015 0.011257,0.067535 0.033772,0.112558 0.195129,0 0.315209,-0.082543 0.360238,-0.247628 0.00751,-0.022512 0.011258,-0.048777 0.011258,-0.078791 0,-0.015009 -0.00751,-0.06003 -0.022515,-0.135072 m 2.43106211,-4.10732178 c -0.112574,0 -0.276107,0.1754395 -0.49375001,0.528125 0,0 -0.023721,-0.013734 -0.06875,-0.04375 -0.3827541,-0.225118 -0.7435251,-0.340625 -1.0812501,-0.340625 -0.017753,0.018533 -0.020689,0.465036 -0.05625,0.621875 0,0.1275683 -0.00186,0.2230896 -0.00937,0.290625 -0.082554,0.3001558 -0.293526,0.7971385 -0.63125,1.4874999 -0.465308,0.96050288 -0.725589,1.60232988 -0.778125,1.92500088 0.052536,0.112558 0.101846,0.201215 0.146875,0.26875 0.135091,0.20260602 0.364787,0.34558012 0.6875,0.42812512 0.150099,0.037518 0.225,0.05625 0.225,0.05625 0.097564,0 0.184323,-0.049325 0.259375,-0.146875 0,0.232622 0.093627,0.35 0.28125,0.35 0.075048,0 0.131225,-0.030593 0.16875,-0.090625 0.135091,-0.202605 0.259301,-0.3967781 0.371875,-0.58437512 0.247664,-0.3827 0.61717209,-0.673648 1.11250009,-0.86875 -0.015011,0.105055 -0.035606,0.2087 -0.065625,0.30625 -0.06004,0.187599 -0.287994,0.501384 -0.50624999,0.80937502 -0.218257,0.3079911 -0.7202421,0.6935491 -0.5250001,0.6937491 l 0.25625,0 -0.90625,0.88125 0,1.428125 0.1625,0.084375 1.15000011,-0.021875 0,-0.921875 0.890625,0 0,0.921875 1.47187489,0 0,-0.921875 0.890625,0 0,0.921875 1.146875,0.021875 0.1625,-0.053125 0,-1.459375 -0.896875,-0.878125 0.28125,0 c 0,-1.53830512 -0.338924,-2.75390706 -1.021875,-3.6468751 -0.570379,-0.7729044 -1.17270794,-1.1593748 -1.80312489,-1.1593748 -0.06004,0 -0.118085,0.00687 -0.178125,0.021875 -0.075049,-0.2401265 -0.134349,-0.3968345 -0.171875,-0.471875 -0.075048,-0.1575826 -0.231716,-0.3024292 -0.471875,-0.4375 l -5e-6,0 z m -0.70000001,5.6906249 -0.00312,0.00312 0.00312,-0.00312 5e-6,0 z m -0.8642381,-3.069074 c 0.187623,0 0.386505,-0.108808 0.596643,-0.326421 0.112575,-0.1125581 0.168862,-0.2101101 0.168862,-0.2926541 0,-0.097552 -0.090059,-0.1463271 -0.270179,-0.1463271 -0.210137,0 -0.386504,0.0938 -0.529098,0.2813981 -0.075052,0.090048 -0.112575,0.1838471 -0.112575,0.2813991 0,0.13507 0.048782,0.202605 0.146347,0.202605"
              fill="none"
              stroke="black"
              stroke-width="0.3pt" />
    </g>

    <clipPath id="clip-path-chancellor">
        <use xlink:href="#path-chancellor"/>
    </clipPath>

    <!-- amazon = knight + queen -->

    <rect id="bounding-box-amazon"
          x="-5" y="-5" width="10" height="10" />

    <g id="amazon">
        <path id="path-amazon"
              d="m -0.67065364,-4.4444237 c -0.1243002,0 -0.30480048,0.19365 -0.54500056,0.58295 0,0 -0.026,-0.0152 -0.076,-0.0483 -0.4225,-0.24849 -0.8207,-0.37599 -1.1935,-0.37599 -0.02,0.0205 -0.023,0.51331 -0.062,0.68643 0,0.14082 0,0.24625 -0.01,0.3208 -0.091,0.33131 -0.324,0.87989 -0.6968,1.64191 -0.5136,1.06021046 -0.8009,1.76867062 -0.8589,2.12483062 0.058,0.12425 0.1124,0.22211 0.1621,0.29665 0.1491,0.22363998 0.4027,0.38145968 0.7589,0.47256958 0.1657,0.0414 0.2484,0.0621 0.2484,0.0621 0.1077,0 0.2034,-0.0544 0.2863,-0.1621198 0,0.2567698 0.1033,0.3863297 0.3104,0.3863297 0.083,0 0.1449,-0.0338 0.1863,-0.1000299 0.1491,-0.2236399 0.2862,-0.4379696 0.4105,-0.64503956 0.2321,-0.35867 0.5647,-0.64212 0.99340044,-0.852 -0.03,0.48174 -0.14940028,0.6514 -0.45190044,1.34525956 -0.1373,0.5292499 0.29490016,0.4131999 -0.041,0.9865299 l 0.017,0.007 c -0.044,-0.0136 -0.093,-0.0207 -0.1415,-0.0207 -0.258,0 -0.4656,0.20766 -0.4656,0.46567 0,0.25801 0.2076,0.46912 0.4656,0.46912 0.2581,0 0.4691002,-0.21111 0.4691002,-0.46912 0,-0.19238 -0.1167002,-0.35612 -0.2828002,-0.42773 l 0.045,0.0173 c 0.15320004,-0.69117 0.44750052,-0.24217 0.81750084,-0.59675 0.052,0.49597 0.3404,0.83353 0.1173,1.45565 l 0.107,0.0207 c -0.047,-0.66578 0.526,-0.80193 0.7588,-1.31768 0.1,0.78602 0.56679966,0.74485 0.42779986,1.53844 0,7e-4 0,0.003 0,0.003 l 0.052,-0.003 0.048,0.003 c 0,-7e-4 0,-0.003 0,-0.003 -0.1390999,-0.79371 0.3278994,-0.75223 0.4276994,-1.53844 0.2331,0.5157 0.8054,0.65225 0.7589,1.31768 l 0.1104,-0.0207 c -0.223,-0.62212 0.065,-0.95968 0.1172,-1.45565 0.3692,0.35371 0.6607,-0.0969 0.8141,0.58985 -0.1529,0.0768 -0.2587,0.23462 -0.2587,0.41738 0,0.25801 0.2077,0.46912 0.4657,0.46912 0.258,0 0.4691,-0.21111 0.4691,-0.46912 0,-0.25801 -0.2111,-0.46567 -0.4691,-0.46567 -0.036,0 -0.067,0.003 -0.1001,0.0103 -0.3332,-0.57206 0.096,-0.45469 -0.041,-0.9830699 -0.042,-0.1389198 -0.085,-0.2523096 -0.1276,-0.35528956 -0.035,-1.52236016 -0.4077,-2.18450054 -1.1245,-3.12171054 -0.6296,-0.85314 -1.29439928,-1.27973 -1.99029928,-1.27973 -0.066,0 -0.1303,0.008 -0.1966,0.0241 -0.083,-0.26506 -0.1483,-0.43803 -0.1897,-0.52086 -0.083,-0.17394 -0.2558,-0.33383 -0.52090028,-0.48292 z m -1.17970056,2.0489499 c 0.1988,0 0.3,0.051 0.3,0.15867 0,0.0911 -0.062,0.2 -0.1862,0.32424 -0.232,0.2402 -0.4518,0.36219 -0.6588,0.36219 -0.1077,0 -0.1622,-0.0751 -0.1622,-0.2242099 0,-0.1076801 0.041,-0.2110501 0.1242,-0.3104501 0.1574,-0.20707 0.351,-0.31044 0.583,-0.31044 z m -1.504,2.48356072 c 0.017,0.0828 0.028,0.13176 0.028,0.14833 0,0.0331 -0.01,0.0614 -0.014,0.0862 -0.05,0.18222 -0.1813,0.27596 -0.3967,0.27596 -0.025,-0.0497 -0.038,-0.091 -0.038,-0.12418 0,-0.0414 0.01,-0.0828 0.024,-0.12418 0.066,-0.17394 0.1979,-0.26216 0.3967,-0.26216 z m 3.10100084,3.09411938 c -0.258,0 -0.46910036,0.2111 -0.46910036,0.46911 0,0.25802 0.21110036,0.46568 0.46910036,0.46568 0.258,0 0.4691,-0.20766 0.4691,-0.46568 0,-0.25801 -0.2111,-0.46911 -0.4691,-0.46911 z m 2.77679916,0 c -0.258,0 -0.4657,0.2111 -0.4657,0.46911 0,0.25802 0.2077,0.46568 0.4657,0.46568 0.258,0 0.4691,-0.20766 0.4691,-0.46568 0,-0.25801 -0.2111,-0.46911 -0.4691,-0.46911 z m -1.3900994,0.2932 c -0.25799976,0 -0.46909976,0.2111 -0.46909976,0.46912 0,0.25801 0.2111,0.46221 0.46909976,0.46221 0.2579996,0 0.4656994,-0.2042 0.4656994,-0.46221 0,-0.25802 -0.2076998,-0.46912 -0.4656994,-0.46912 z"
              fill="none"
              stroke="black"
              stroke-width="0.3pt" />
    </g>

    <clipPath id="clip-path-amazon">
        <use xlink:href="#path-amazon"/>
    </clipPath>










    <!-- PLAYING CARD SUITS -->

    <g id="spade">
        <g transform="scale(0.5)">
        <path id="path-spade"
            d="m 6.2108297,8.23837 0,1.368 -12.504,0 0,-1.368 c 0.24,-0.016 0.51198,-0.056 0.816,-0.12 
0.30398,-0.08 0.60798,-0.152 0.912,-0.216 0.31998,-0.08 0.63998,-0.2 0.96,-0.36 0.31998,-0.16 
0.61599,-0.344 0.88801,-0.552 0.28797,-0.208 0.55998,-0.48 0.816,-0.816 0.25598,-0.336 0.46398,-0.72 
0.624,-1.152 -0.72002,0.528 -1.51202,0.792 -2.376,0.792 -0.97602,0 -1.81602,-0.344 -2.52,-1.032 
-0.688,-0.68798 -1.032,-1.51998 -1.032,-2.496 0,-0.63998 0.088,-1.19198 0.264,-1.656 0.176,-0.46398004 
0.416,-0.86398004 0.72,-1.20000004 0.31998,-0.33598 0.67198,-0.65597996 1.056,-0.95999996 
0.38398,-0.31998 0.80798,-0.69598 1.272,-1.128 0.46398,-0.44798 0.91198,-0.95198 1.344,-1.512 
0.44798,-0.55998 0.89598,-1.30398 1.344,-2.232 0.46398,-0.94398 0.86398,-2.0159801 
1.20000005,-3.2159981 0.30398,1.184018 0.67198,2.2480181 1.10400005,3.1919981 0.44798,0.92802 
0.8879799,1.67202 1.3199999,2.232 0.44798,0.54402 0.89598,1.04002 1.344,1.488 0.46398,0.43202 
0.88798,0.80802 1.272,1.128 0.39998,0.30402 0.75998,0.62401996 1.08,0.95999996 0.31998,0.33602 
0.56798,0.74402 0.744,1.224 0.176,0.48002004 0.26398,1.04002004 0.264,1.68000004 -2e-5,0.97602 
-0.35202,1.80802 -1.056,2.496 -0.68802,0.688 -1.52002,1.032 -2.496,1.032 -0.86402,0 -1.65602,-0.264 
-2.3759999,-0.792 0.192,0.512 0.45598,0.968 0.7919999,1.368 0.35198,0.4 0.70398,0.704 1.056,0.912 
0.36798,0.192 0.75198,0.368 1.152,0.528 0.41598,0.144 0.78398,0.232 1.104,0.264 0.33598,0.032 
0.63998,0.08 0.912,0.144"
              fill="none"
              stroke="black"
              stroke-width="0.7pt" />
        </g>
    </g>

    <clipPath id="clip-path-spade">
        <use xlink:href="#path-spade"/>
    </clipPath>

    <rect id="bounding-box-spade"
          x="-5" y="-5" width="10" height="10" />

    <g id="club">
        <g transform="scale(0.5)">
        <path id="path-club"
            d="m 6.2468297,7.56637 0,1.368 -12.576,0 0,-1.368 c 0.576,-0.096 1.072,-0.2 1.488,-0.312 
0.416,-0.128 0.848,-0.296 1.296,-0.504 0.46401,-0.224 0.848,-0.48 1.15201,-0.768 0.32,-0.288 0.6,-0.656 
0.84,-1.104 0.256,-0.46398 0.432,-0.98398 0.528,-1.56 -0.48,0.56002 -1.064,1.00802 -1.752,1.344 
-0.672,0.336 -1.336,0.504 -1.992,0.504 -1.168,0 -2.168,-0.424 -3,-1.272 -0.816,-0.86398 -1.224,-1.89598 
-1.224,-3.096 0,-1.16798004 0.376,-2.16798 1.128,-3 0.752,-0.83198 1.672,-1.24798 2.76,-1.248 
0.368,2e-5 0.728,0.056 1.08,0.168 -0.192,-0.47998 -0.288,-0.98398 -0.288,-1.512 0,-1.15198 
0.416,-2.12798 1.248,-2.9280001 0.848,-0.81598 1.856,-1.22398 3.02400005,-1.224 1.16800005,2e-5 
2.16799995,0.40802 2.99999995,1.224 0.848,0.8000201 1.272,1.7760201 1.272,2.9280001 0,0.51202 
-0.096,1.01602 -0.288,1.512 0.336,-0.112 0.696,-0.168 1.08,-0.168 1.088,2e-5 2.008,0.41602 2.76,1.248 
0.75198,0.83202 1.12798,1.83201996 1.128,3 -2e-5,1.20002 -0.41602,2.23202 -1.248,3.096 -0.816,0.848 
-1.808,1.272 -2.976,1.272 -1.424,0 -2.672,-0.64 -3.74399995,-1.92 0.11200005,0.73602 0.32000005,1.368 
0.62400005,1.896 0.3039999,0.512 0.7039999,0.928 1.1999999,1.248 0.512,0.304 1.032,0.544 1.56,0.72 
0.528,0.176 1.168,0.328 1.92,0.456"
              fill="none"
              stroke="black"
              stroke-width="0.7pt" />
        </g>
    </g>

    <clipPath id="clip-path-club">
        <use xlink:href="#path-club"/>
    </clipPath>

    <rect id="bounding-box-club"
          x="-5" y="-5" width="10" height="10" />

    <g id="heart">
        <g transform="scale(0.5)">
        <path id="path-heart"
            d="m 3.8948397,-9.8456281 c 1.10398,2e-5 2.04799,0.38402 2.832,1.151998 0.79998,0.76802 
1.19998,1.6880201 1.20001,2.7600001 -2e-5,0.73602 -0.112,1.43202 -0.33601,2.088 -0.20802,0.64002 
-0.49602,1.23202 -0.864,1.776 -0.35202,0.54402 -0.76002,1.09601996 -1.224,1.65599996 -0.44802,0.56002 
-0.93602,1.17602004 -1.464,1.84800004 -0.51202,0.67202 -1.00802,1.38402 -1.488,2.136 -0.48002,0.752 
-0.9520199,1.672 -1.4159999,2.76 -0.44802005,1.088 -0.82402005,2.256 -1.12800005,3.504 
-0.35202005,-1.328 -0.77602005,-2.56 -1.27200005,-3.696 -0.48002,-1.136 -0.968,-2.088 -1.464,-2.856 
-0.48,-0.76798 -0.984,-1.48798 -1.512,-2.16 -0.512,-0.68798004 -0.992,-1.29598004 -1.44,-1.82400004 
-0.432,-0.52797996 -0.832,-1.04797996 -1.2,-1.55999996 -0.352,-0.51198 -0.632,-1.06398 -0.84,-1.656 
-0.192,-0.59198 -0.288,-1.21598 -0.288,-1.872 0,-1.15198 0.384,-2.1119801 1.152,-2.8800001 
0.784,-0.783978 1.736,-1.175978 2.856,-1.175998 1.744,2e-5 3.06398,0.872018 3.96000005,2.6159981 
0.43198,-0.8799801 0.99998,-1.5359801 1.70400005,-1.9679981 0.7039799,-0.43198 1.4479799,-0.64798 
2.2319999,-0.648"
              fill="none"
              stroke="black"
              stroke-width="0.7pt" />
        </g>
    </g>

    <clipPath id="clip-path-heart">
        <use xlink:href="#path-heart"/>
    </clipPath>

    <rect id="bounding-box-heart"
          x="-5" y="-5" width="10" height="10" />

    <g id="diamond">
        <g transform="scale(0.6)">
        <path id="path-diamond"
            d="m -0.06516025,-8.6336201 c 0.38398,0.76801 1.31198005,2.1520101 2.78399995,4.1519901 
1.47198,1.98402 2.65598,3.47202 3.552,4.46399996 -1.12001,1.28002004 -2.32802,2.80002004 
-3.624,4.56000004 -1.2800199,1.76 -2.18401995,3.12 -2.71199995,4.08 C -1.2491803,6.51037 
-3.3451803,3.63039 -6.3531603,-0.01763004 -3.2651803,-3.74561 -1.1691803,-6.61761 
-0.06516025,-8.6336201"
              fill="none"
              stroke="black"
              stroke-width="0.7pt" />
        </g>
    </g>

    <clipPath id="clip-path-diamond">
        <use xlink:href="#path-diamond"/>
    </clipPath>

    <rect id="bounding-box-diamond"
          x="-5" y="-5" width="10" height="10" />
  
</svg>
